<svg width="40" height="42" viewBox="0 0 40 42" fill="none" xmlns="http://www.w3.org/2000/svg">
<g id="icon">
<g id="school">
<mask id="mask0_650_896" style="mask-type:alpha" maskUnits="userSpaceOnUse" x="-1" y="3" width="42" height="42">
<rect id="Bounding box" x="-0.5" y="3.5" width="41" height="41" fill="#D9D9D9" stroke="black"/>
</mask>
<g mask="url(#mask0_650_896)">
<path id="Vector" d="M16.7642 41.2411C9.03046 41.2304 2.75 34.9657 2.75 27.2534C2.75 19.5343 9.05017 13.2656 16.7841 13.2656C20.3621 13.2656 23.622 14.6038 26.1007 16.8022L28.7235 14.1883L27.0814 9.84156C27.0813 9.84125 27.0812 9.84095 27.0811 9.84064C26.9157 9.40802 27.1358 8.93898 27.5627 8.7763C27.9951 8.6115 28.466 8.82927 28.6297 9.25608L28.6304 9.2577L30.0011 12.9061L30.8363 12.0736L29.2009 7.87379C29.2008 7.87349 29.2007 7.8732 29.2006 7.87291C29.0357 7.45423 29.239 6.97206 29.6712 6.80662C30.0895 6.64312 30.5729 6.84434 30.7391 7.27624L30.7391 7.27612L30.506 7.36666L30.7394 7.27711L16.7642 41.2411ZM16.7642 41.2411L16.7663 41.25C24.5002 41.25 30.8003 34.9813 30.8003 27.2622C30.8003 23.7052 29.4581 20.4481 27.2529 17.9854L29.5074 15.7385C29.6188 15.8138 29.7492 15.8612 29.8856 15.8756C29.8857 15.8756 29.8859 15.8756 29.8861 15.8757L35.31 16.4675L35.3235 16.4689H35.3371H35.3371H35.3372H35.3372H35.3372H35.3373H35.3373H35.3374H35.3374H35.3375H35.3375H35.3375H35.3376H35.3376H35.3376H35.3377H35.3377H35.3377H35.3378H35.3378H35.3378H35.3379H35.3379H35.338H35.338H35.338H35.3381H35.3381H35.3382H35.3382H35.3383H35.3383H35.3384H35.3384H35.3385H35.3385H35.3386H35.3386H35.3387H35.3387H35.3388H35.3388H35.3389H35.3389H35.339H35.339H35.3391H35.3392H35.3392H35.3393H35.3393H35.3394H35.3395H35.3395H35.3396H35.3397H35.3397H35.3398H35.3399H35.3399H35.34H35.3401H35.3402H35.3402H35.3403H35.3404H35.3404H35.3405H35.3406H35.3407H35.3408H35.3408H35.3409H35.341H35.3411H35.3411H35.3412H35.3413H35.3414H35.3415H35.3416H35.3416H35.3417H35.3418H35.3419H35.342H35.3421H35.3422H35.3423H35.3424H35.3424H35.3425H35.3426H35.3427H35.3428H35.3429H35.343H35.3431H35.3432H35.3433H35.3434H35.3435H35.3436H35.3437H35.3438H35.3439H35.344H35.3441H35.3442H35.3443H35.3444H35.3445H35.3446H35.3447H35.3448H35.3449H35.3451H35.3452H35.3453H35.3454H35.3455H35.3456H35.3457H35.3458H35.3459H35.346H35.3462H35.3463H35.3464H35.3465H35.3466H35.3467H35.3469H35.347H35.3471H35.3472H35.3473H35.3474H35.3476H35.3477H35.3478H35.3479H35.348H35.3482H35.3483H35.3484H35.3485H35.3487H35.3488H35.3489H35.349H35.3492H35.3493H35.3494H35.3496H35.3497H35.3498H35.3499H35.3501H35.3502H35.3503H35.3505H35.3506H35.3507H35.3509H35.351H35.3511H35.3513H35.3514H35.3515H35.3517H35.3518H35.3519H35.3521H35.3522H35.3523H35.3525H35.3526H35.3528H35.3529H35.353H35.3532H35.3533H35.3534H35.3536H35.3537H35.3539H35.354H35.3542H35.3543H35.3544H35.3546H35.3547H35.3549H35.355H35.3552H35.3553H35.3554H35.3556H35.3557H35.3559H35.356H35.3562H35.3563H35.3565H35.3566H35.3568H35.3569H35.3571H35.3572H35.3574H35.3575H35.3577H35.3578H35.358H35.3581H35.3583H35.3584H35.3586H35.3587H35.3589H35.359H35.3592H35.3593H35.3595H35.3596H35.3598H35.3599H35.3601H35.3602H35.3604H35.3606H35.3607H35.3609H35.361H35.3612H35.3613H35.3615H35.3616H35.3618H35.362H35.3621H35.3623H35.3624H35.3626H35.3627H35.3629H35.3631H35.3632H35.3634H35.3635H35.3637H35.3638H35.364H35.3642H35.3643H35.3645H35.3646H35.3648H35.365H35.3651H35.3653H35.3654H35.3656H35.3658H35.3659H35.3661H35.3662H35.3664H35.3666H35.3667H35.3669H35.367H35.3672H35.3674H35.3675H35.3677H35.3678H35.368H35.3682H35.3683H35.3685H35.3687H35.3688H35.369H35.3691H35.3693H35.3695H35.3696H35.3698H35.3699H35.3701H35.3703H35.3704H35.3706H35.3708H35.3709H35.3711H35.3712H35.3714H35.3716H35.3717H35.3719H35.3721H35.3722H35.3724H35.3725H35.3727H35.3729H35.373H35.3732H35.3734H35.3735H35.3737H35.3738H35.374H35.3742H35.3743H35.3745H35.3747H35.3748H35.375H35.3751H35.3753H35.3755H35.3756H35.3758H35.3759H35.3761H35.3763H35.3764H35.3766H35.3768H35.3769H35.3771H35.3772H35.3774H35.3776H35.3777H35.3779H35.378H35.3782H35.3784H35.3785H35.3787H35.3788H35.379H35.3792H35.3793H35.3795H35.3796H35.3798H35.3799H35.3801H35.3803H35.3804H35.3806H35.3807H35.3809H35.381H35.3812H35.3814H35.3815H35.3817H35.3818H35.382H35.3821H35.3823H35.3825H35.3826H35.3828H35.3829H35.3831H35.3832H35.3834H35.3835H35.3837H35.3838H35.384H35.3841H35.3843H35.3844H35.3846H35.3848H35.3849H35.3851H35.3852H35.3854H35.3855H35.3857H35.3858H35.386H35.3861H35.3863H35.3864H35.3866H35.3867H35.3868H35.387H35.3871H35.3873H35.3874H35.3876H35.3877H35.3879H35.388H35.3882H35.3883H35.3885H35.3886H35.3887H35.3889H35.389H35.3892H35.3893H35.3895H35.3896H35.3897H35.3899H35.39H35.3902H35.3903H35.3904H35.3906H35.3907H35.3909H35.391H35.3911H35.3913H35.3914H35.3915H35.3917H35.3918H35.3919H35.3921H35.3922H35.3923H35.3925H35.3926H35.3927H35.3929H35.393H35.3931H35.3933H35.3934H35.3935H35.3937H35.3938H35.3939H35.394H35.3942H35.3943H35.3944H35.3946H35.3947H35.3948H35.3949H35.3951H35.3952H35.3953H35.3954H35.3955H35.3957H35.3958H35.3959H35.396H35.3961H35.3963H35.3964H35.3965H35.3966H35.3967H35.3968H35.397H35.3971H35.3972H35.3973H35.3974H35.3975H35.3976H35.3978H35.3979H35.398H35.3981H35.3982H35.3983H35.3984H35.3985H35.3986H35.3987H35.3988H35.3989H35.3991H35.3992C35.819 16.4689 36.1729 16.1528 36.2235 15.7367L36.2238 15.7342C36.2749 15.2759 35.9421 14.8722 35.4887 14.822L35.4883 14.8219L30.9195 14.3222L31.945 13.3001L37.331 13.8878L37.3445 13.8892H37.3581H37.3582H37.3582H37.3582H37.3583H37.3583H37.3584H37.3584H37.3585H37.3585H37.3586H37.3586H37.3586H37.3586H37.3587H37.3587H37.3587H37.3588H37.3588H37.3588H37.3589H37.3589H37.359H37.359H37.359H37.3591H37.3591H37.3592H37.3592H37.3593H37.3593H37.3593H37.3594H37.3594H37.3595H37.3595H37.3596H37.3596H37.3597H37.3597H37.3598H37.3599H37.3599H37.36H37.36H37.3601H37.3601H37.3602H37.3603H37.3603H37.3604H37.3604H37.3605H37.3606H37.3606H37.3607H37.3608H37.3608H37.3609H37.361H37.361H37.3611H37.3612H37.3613H37.3613H37.3614H37.3615H37.3616H37.3616H37.3617H37.3618H37.3619H37.3619H37.362H37.3621H37.3622H37.3623H37.3624H37.3624H37.3625H37.3626H37.3627H37.3628H37.3629H37.3629H37.363H37.3631H37.3632H37.3633H37.3634H37.3635H37.3636H37.3637H37.3638H37.3639H37.364H37.364H37.3641H37.3642H37.3643H37.3644H37.3645H37.3646H37.3647H37.3648H37.3649H37.365H37.3651H37.3652H37.3653H37.3655H37.3656H37.3657H37.3658H37.3659H37.366H37.3661H37.3662H37.3663H37.3664H37.3665H37.3666H37.3667H37.3669H37.367H37.3671H37.3672H37.3673H37.3674H37.3675H37.3677H37.3678H37.3679H37.368H37.3681H37.3682H37.3684H37.3685H37.3686H37.3687H37.3688H37.369H37.3691H37.3692H37.3693H37.3695H37.3696H37.3697H37.3698H37.37H37.3701H37.3702H37.3703H37.3705H37.3706H37.3707H37.3708H37.371H37.3711H37.3712H37.3714H37.3715H37.3716H37.3718H37.3719H37.372H37.3722H37.3723H37.3724H37.3726H37.3727H37.3728H37.373H37.3731H37.3732H37.3734H37.3735H37.3737H37.3738H37.3739H37.3741H37.3742H37.3743H37.3745H37.3746H37.3748H37.3749H37.3751H37.3752H37.3753H37.3755H37.3756H37.3758H37.3759H37.3761H37.3762H37.3763H37.3765H37.3766H37.3768H37.3769H37.3771H37.3772H37.3774H37.3775H37.3777H37.3778H37.378H37.3781H37.3783H37.3784H37.3786H37.3787H37.3788H37.379H37.3792H37.3793H37.3795H37.3796H37.3798H37.3799H37.3801H37.3802H37.3804H37.3805H37.3807H37.3808H37.381H37.3811H37.3813H37.3814H37.3816H37.3817H37.3819H37.3821H37.3822H37.3824H37.3825H37.3827H37.3828H37.383H37.3831H37.3833H37.3835H37.3836H37.3838H37.3839H37.3841H37.3843H37.3844H37.3846H37.3847H37.3849H37.385H37.3852H37.3854H37.3855H37.3857H37.3858H37.386H37.3862H37.3863H37.3865H37.3866H37.3868H37.387H37.3871H37.3873H37.3874H37.3876H37.3878H37.3879H37.3881H37.3882H37.3884H37.3886H37.3887H37.3889H37.389H37.3892H37.3894H37.3895H37.3897H37.3899H37.39H37.3902H37.3903H37.3905H37.3907H37.3908H37.391H37.3912H37.3913H37.3915H37.3916H37.3918H37.392H37.3921H37.3923H37.3924H37.3926H37.3928H37.3929H37.3931H37.3933H37.3934H37.3936H37.3937H37.3939H37.3941H37.3942H37.3944H37.3946H37.3947H37.3949H37.395H37.3952H37.3954H37.3955H37.3957H37.3959H37.396H37.3962H37.3963H37.3965H37.3967H37.3968H37.397H37.3971H37.3973H37.3975H37.3976H37.3978H37.398H37.3981H37.3983H37.3984H37.3986H37.3988H37.3989H37.3991H37.3992H37.3994H37.3996H37.3997H37.3999H37.4H37.4002H37.4003H37.4005H37.4007H37.4008H37.401H37.4011H37.4013H37.4015H37.4016H37.4018H37.4019H37.4021H37.4022H37.4024H37.4026H37.4027H37.4029H37.403H37.4032H37.4033H37.4035H37.4036H37.4038H37.404H37.4041H37.4043H37.4044H37.4046H37.4047H37.4049H37.405H37.4052H37.4053H37.4055H37.4056H37.4058H37.4059H37.4061H37.4062H37.4064H37.4065H37.4067H37.4068H37.407H37.4072H37.4073H37.4074H37.4076H37.4077H37.4079H37.408H37.4082H37.4083H37.4085H37.4086H37.4088H37.4089H37.4091H37.4092H37.4094H37.4095H37.4096H37.4098H37.4099H37.4101H37.4102H37.4104H37.4105H37.4106H37.4108H37.4109H37.4111H37.4112H37.4113H37.4115H37.4116H37.4118H37.4119H37.412H37.4122H37.4123H37.4124H37.4126H37.4127H37.4129H37.413H37.4131H37.4133H37.4134H37.4135H37.4137H37.4138H37.4139H37.4141H37.4142H37.4143H37.4144H37.4146H37.4147H37.4148H37.415H37.4151H37.4152H37.4153H37.4155H37.4156H37.4157H37.4158H37.416H37.4161H37.4162H37.4163H37.4165H37.4166H37.4167H37.4168H37.4169H37.4171H37.4172H37.4173H37.4174H37.4175H37.4177H37.4178H37.4179H37.418H37.4181H37.4182H37.4184H37.4185H37.4186H37.4187H37.4188H37.4189H37.419H37.4191H37.4192H37.4193H37.4195H37.4196H37.4197H37.4198H37.4199H37.42H37.4201H37.4202C37.84 13.8892 38.194 13.5731 38.2446 13.157L38.2449 13.1545C38.296 12.6962 37.9632 12.2925 37.5098 12.2423L37.5096 12.2422L33.4457 11.7957L35.8592 9.39019C36.1789 9.07163 36.1789 8.54181 35.8592 8.22325C35.5401 7.90515 35.01 7.90515 34.6908 8.22325L34.8673 8.40032L16.7642 41.2411ZM32.1075 10.7979L31.9141 10.9906L32.013 11.2451L32.2063 11.0524L32.1075 10.7979ZM31.1354 12.1285L31.0984 12.0914L31.1354 12.1285ZM30.0976 13.1629L29.9033 13.3565L29.8068 13.0997L30.0976 13.1629ZM17.3506 27.8457L17.1741 27.6686L17.3506 27.8457L18.8949 26.3064C19.0284 26.5992 19.1047 26.9223 19.1047 27.2622C19.1047 28.5457 18.0562 29.5919 16.7663 29.5919C15.4764 29.5919 14.428 28.5457 14.428 27.2622C14.428 25.9787 15.4765 24.9325 16.7663 24.9325C17.1073 24.9325 17.4312 25.0084 17.7249 25.1411L16.1821 26.6787C15.8624 26.9973 15.8624 27.5271 16.1821 27.8457C16.3466 28.0097 16.553 28.0864 16.7663 28.0864C16.9796 28.0864 17.186 28.0097 17.3506 27.8457ZM16.7663 14.9317C19.8786 14.9317 22.7283 16.082 24.9032 17.9868L22.5239 20.3582C20.9617 19.0587 18.9523 18.2748 16.7575 18.2748C11.7803 18.2748 7.73175 22.3085 7.73175 27.271C7.73175 32.2336 11.7803 36.2673 16.7575 36.2673C21.7347 36.2673 25.7832 32.2336 25.7832 27.271C25.7832 25.0912 24.9963 23.089 23.693 21.5245L26.0726 19.1529C27.977 21.321 29.1391 24.1612 29.1391 27.2622C29.1391 34.0585 23.5875 39.5927 16.7663 39.5927C9.94511 39.5927 4.39353 34.0585 4.39353 27.2622C4.39353 20.4659 9.94511 14.9317 16.7663 14.9317ZM22.5286 22.685C23.5326 23.9379 24.1396 25.5308 24.1396 27.2534C24.1396 31.3021 20.8396 34.5923 16.7752 34.5923C12.7108 34.5923 9.41072 31.3021 9.41072 27.2534C9.41072 23.2046 12.7108 19.9144 16.7752 19.9144C18.5049 19.9144 20.1031 20.5121 21.3595 21.5187L18.944 23.9261C18.3179 23.5191 17.5712 23.2752 16.7752 23.2752C14.5725 23.2752 12.7844 25.056 12.7844 27.2534C12.7844 29.4507 14.5725 31.2316 16.7752 31.2316C18.9779 31.2316 20.7659 29.4507 20.7659 27.2534C20.7659 26.4536 20.5222 25.709 20.1143 25.0912L22.5286 22.685Z" fill="#029FC8" stroke="#029FC8" stroke-width="0.5"/>
</g>
</g>
</g>
</svg>
