<svg width="307" height="247" viewBox="0 0 307 247" fill="none" xmlns="http://www.w3.org/2000/svg">
<g clip-path="url(#clip0_291_398)">
<path d="M10.1571 186.764C3.48425 186.86 1.90365 189.981 1.87616 197.021C1.86242 200.349 2.60461 202.102 5.0511 204.02C9.89597 207.794 15.0707 208.626 20.3279 210.915C26.0181 213.39 30.753 217.838 36.5874 220.21C42.6762 222.685 48.222 226.191 54.3657 227.786C59.4924 229.113 66.3576 226.329 71.3193 223.847C76.3704 221.324 81.5039 218.904 86.6924 216.271C91.6747 213.741 96.2378 210.338 100.98 207.402C107.137 203.587 107.859 200.85 107.206 194.257C106.972 191.941 107.886 188.517 106.718 186.454C105.13 183.629 102.663 184.729 99.7082 184" fill="white"/>
<path d="M10.1296 184.887C8.32219 184.914 6.75533 185.141 5.3809 185.664C4.35695 186.056 3.43608 186.626 2.69389 187.376C2.13724 187.932 1.68368 188.586 1.3332 189.287C0.797171 190.346 0.481051 191.514 0.281759 192.793C0.0824659 194.072 0.00687216 195.467 0 197.014L0 197.104C0 197.99 0.0481051 198.815 0.178676 199.606C0.371097 200.782 0.76281 201.895 1.40192 202.878C2.03416 203.868 2.87944 204.707 3.89651 205.498C6.52168 207.547 9.23618 208.784 11.8682 209.781C14.5071 210.778 17.0773 211.548 19.5788 212.634C22.2246 213.782 24.7466 215.446 27.3787 217.171C30.0107 218.89 32.7458 220.671 35.8795 221.949C38.8208 223.146 41.7003 224.617 44.6484 226.026C47.5966 227.429 50.6272 228.756 53.8915 229.608C54.9841 229.89 56.1181 230.014 57.252 230.014C59.8634 230.014 62.5367 229.395 65.0862 228.543C67.6358 227.683 70.0617 226.583 72.1508 225.538C77.1744 223.029 82.3147 220.602 87.5376 217.955C92.7054 215.329 97.3098 211.885 101.962 209.004C103.275 208.193 104.381 207.409 105.323 206.591C106.732 205.367 107.776 204.027 108.415 202.5C109.054 200.974 109.274 199.345 109.274 197.571C109.274 196.492 109.192 195.344 109.075 194.085C109.054 193.879 109.047 193.639 109.047 193.37C109.047 192.346 109.205 190.978 109.212 189.541C109.212 188.902 109.178 188.242 109.061 187.568C108.944 186.894 108.738 186.207 108.36 185.547C107.845 184.619 107.151 183.876 106.354 183.395C105.763 183.031 105.144 182.824 104.567 182.701C103.701 182.515 102.917 182.501 102.196 182.453C101.474 182.412 100.808 182.357 100.169 182.192C99.1653 181.944 98.1482 182.556 97.9008 183.56C97.6534 184.564 98.265 185.581 99.2683 185.829C100.175 186.049 101 186.124 101.715 186.172C102.251 186.207 102.718 186.227 103.11 186.262C103.701 186.317 104.079 186.413 104.326 186.544C104.457 186.612 104.56 186.688 104.684 186.812C104.807 186.936 104.945 187.114 105.103 187.382C105.213 187.575 105.309 187.85 105.371 188.221C105.44 188.586 105.467 189.039 105.467 189.541C105.467 190.676 105.309 192.023 105.302 193.37C105.302 193.728 105.316 194.085 105.35 194.45C105.467 195.639 105.536 196.67 105.536 197.571C105.536 198.554 105.453 199.372 105.288 200.067C105.034 201.112 104.622 201.923 103.825 202.83C103.027 203.731 101.797 204.707 100.004 205.814C95.1725 208.818 90.6438 212.18 85.8539 214.607C80.6929 217.22 75.5594 219.64 70.4877 222.176C68.5017 223.166 66.2133 224.204 63.9042 224.981C61.602 225.758 59.2724 226.267 57.2657 226.26C56.3929 226.26 55.582 226.171 54.8467 225.978C51.9673 225.229 49.1497 224.012 46.2703 222.644C43.3908 221.276 40.4495 219.763 37.3021 218.485C34.6013 217.391 32.0586 215.755 29.4403 214.043C26.822 212.331 24.135 210.537 21.0838 209.203C18.3212 208.007 15.6754 207.217 13.2014 206.282C10.7206 205.347 8.42527 204.281 6.20556 202.548C5.66953 202.129 5.26407 201.751 4.95483 201.387C4.49439 200.837 4.23325 200.355 4.04083 199.709C3.84841 199.063 3.7522 198.231 3.7522 197.11V197.035C3.7522 195.344 3.86215 193.934 4.08206 192.834C4.24699 192.009 4.47378 191.356 4.74866 190.861C4.95483 190.49 5.18161 190.194 5.44962 189.94C5.85508 189.569 6.36362 189.266 7.12643 189.032C7.88924 188.799 8.90632 188.654 10.1914 188.641C11.2222 188.627 12.0469 187.774 12.0332 186.743C12.0194 185.712 11.1673 184.887 10.1364 184.901L10.1296 184.887Z" fill="#1E1007"/>
<path d="M29.4818 204.047C22.8845 201.607 -1.36738 195.309 5.58038 184.777C7.11287 182.446 8.35673 182.797 10.5489 181.635C14.9265 179.304 18.6169 175.929 23.1731 173.839C30.6294 170.415 38.0994 167.129 45.6794 164.269C50.8473 162.316 59.0595 160.666 64.5916 162.688C70.8384 164.963 76.2056 169.707 82.3424 172.849C88.5617 176.025 94.8635 178.816 101.275 181.518C113.336 186.599 88.5411 198.059 84.404 200.266C80.3426 202.425 76.721 205.477 72.8726 208.069C68.1789 211.225 60.2896 213.61 54.6682 213.686C50.6824 213.741 48.1122 211.692 44.6211 210.09C39.7075 207.828 34.5534 205.924 29.4818 204.047Z" fill="white"/>
<path d="M29.4814 204.047L30.1343 202.294C28.6086 201.73 26.334 201.015 23.7294 200.115C19.8329 198.767 15.2285 197 11.7375 194.897C9.99196 193.852 8.53506 192.717 7.5867 191.61C7.11252 191.054 6.76204 190.51 6.54213 189.995C6.32222 189.479 6.21227 188.991 6.21227 188.482C6.21227 187.726 6.44592 186.874 7.14001 185.815C7.44926 185.347 7.69666 185.079 7.90969 184.901C8.06775 184.763 8.21207 184.674 8.39074 184.577C8.65876 184.44 9.02298 184.302 9.53839 184.117C10.0538 183.931 10.6998 183.684 11.4214 183.292C13.7442 182.054 15.8195 180.583 17.84 179.194C19.8604 177.806 21.8396 176.506 23.9424 175.544C31.3781 172.127 38.8138 168.861 46.3251 166.022C49.6306 164.771 54.3792 163.63 58.5644 163.643C60.5642 163.643 62.4265 163.898 63.9384 164.455C66.8316 165.506 69.6217 167.177 72.4805 169.026C75.3393 170.869 78.2669 172.876 81.4762 174.526C87.7573 177.737 94.1072 180.549 100.533 183.257C101.529 183.67 102.106 184.103 102.374 184.412C102.512 184.564 102.574 184.681 102.615 184.777C102.649 184.873 102.67 184.956 102.67 185.066C102.67 185.182 102.649 185.341 102.581 185.54C102.457 185.925 102.148 186.461 101.646 187.066C100.78 188.125 99.3644 189.349 97.7082 190.538C95.2205 192.332 92.1899 194.085 89.5303 195.515C88.204 196.23 86.967 196.863 85.9293 197.392C84.8916 197.922 84.067 198.334 83.5103 198.63C79.2152 200.926 75.5524 204.027 71.8139 206.536C69.6904 207.973 66.6735 209.306 63.5536 210.262C60.4336 211.225 57.1899 211.802 54.6266 211.836H54.4961C52.8742 211.836 51.5754 211.438 50.146 210.798C48.7234 210.159 47.2184 209.258 45.3767 208.406C40.3738 206.103 35.1784 204.185 30.1068 202.308L29.4539 204.061L28.8079 205.814C33.8796 207.691 38.9925 209.581 43.8099 211.802C45.4179 212.538 46.9092 213.438 48.5998 214.201C50.2834 214.965 52.2076 215.576 54.4892 215.57H54.6679C57.726 215.521 61.2308 214.875 64.6394 213.83C68.0411 212.785 71.326 211.355 73.8893 209.63C77.8477 206.955 81.4281 203.951 85.2558 201.923C85.6407 201.717 86.2661 201.4 87.0495 201.008C89.7915 199.62 94.4233 197.255 98.4504 194.56C100.471 193.205 102.333 191.782 103.783 190.27C104.505 189.514 105.13 188.73 105.597 187.877C106.065 187.032 106.395 186.09 106.395 185.059C106.395 184.502 106.292 183.924 106.078 183.388C105.756 182.577 105.206 181.869 104.512 181.284C103.818 180.7 102.972 180.219 101.976 179.799C95.5847 177.104 89.3242 174.334 83.1667 171.185C80.2392 169.693 77.4147 167.761 74.494 165.871C71.5734 163.994 68.5565 162.151 65.2029 160.928C63.1344 160.172 60.8597 159.897 58.5506 159.89C53.7126 159.897 48.6753 161.127 44.985 162.516C37.35 165.396 29.8319 168.703 22.3618 172.134C19.9085 173.261 17.7575 174.691 15.7027 176.101C13.6479 177.51 11.6894 178.892 9.64148 179.978C9.18791 180.219 8.7962 180.377 8.377 180.535C8.06775 180.652 7.73789 180.762 7.38054 180.906C6.85138 181.119 6.23976 181.415 5.64188 181.882C5.044 182.35 4.49423 182.962 3.98569 183.746C2.96861 185.279 2.43945 186.894 2.43945 188.476C2.43945 189.885 2.85865 191.212 3.53213 192.38C4.72101 194.429 6.61773 196.059 8.81682 197.495C12.1155 199.64 16.17 201.352 19.8947 202.727C21.7571 203.415 23.5301 204.013 25.0695 204.528C26.6088 205.044 27.9145 205.47 28.8079 205.8L29.4539 204.047H29.4814Z" fill="#1E1007"/>
<path d="M58.6747 225.043C57.7881 223.386 58.3379 218.684 59.0664 216.759L58.6747 225.043Z" fill="white"/>
<path d="M60.3237 224.156C60.3237 224.156 60.2206 223.909 60.1725 223.565C60.1175 223.221 60.0901 222.768 60.0901 222.266C60.0901 221.406 60.1794 220.416 60.3168 219.523C60.4543 218.636 60.6604 217.831 60.8185 217.412C61.1827 216.443 60.7017 215.363 59.7327 214.999C58.7637 214.635 57.6848 215.116 57.3206 216.085C57.0182 216.897 56.7983 217.859 56.6196 218.931C56.4478 220.004 56.3447 221.152 56.3447 222.259C56.3447 222.905 56.3791 223.531 56.4753 224.136C56.5715 224.741 56.7158 225.325 57.0251 225.916C57.513 226.831 58.6469 227.168 59.554 226.68C60.468 226.191 60.8048 225.057 60.3168 224.15L60.3237 224.156Z" fill="#1E1007"/>
<path d="M55.5204 167.425C55.3348 173.619 54.249 179.868 54.249 186.276C54.249 190.504 56.2145 200.039 54.3315 203.332" fill="white"/>
<path d="M53.6512 167.37C53.4794 173.385 52.3868 179.655 52.3799 186.276C52.3799 187.094 52.4417 188.001 52.5242 188.991C52.6548 190.469 52.8403 192.133 52.9984 193.79C53.1564 195.454 53.2733 197.117 53.2733 198.568C53.2733 199.489 53.2252 200.328 53.1152 201.002C53.0121 201.675 52.8403 202.17 52.7029 202.404C52.1943 203.305 52.5036 204.446 53.4038 204.955C54.3041 205.464 55.4449 205.154 55.9534 204.254C56.4207 203.422 56.6544 202.528 56.8124 201.579C56.9636 200.63 57.0117 199.62 57.0117 198.568C57.0117 196.368 56.7781 193.962 56.5513 191.755C56.4413 190.655 56.3245 189.603 56.242 188.661C56.1596 187.726 56.1115 186.901 56.1115 186.276C56.1115 180.068 57.1835 173.846 57.3759 167.466C57.4034 166.435 56.5925 165.568 55.5617 165.541C54.5309 165.513 53.665 166.325 53.6375 167.356L53.6512 167.37Z" fill="#1E1007"/>
<path d="M17.2559 186.764C28.4231 185.629 40.4838 183.546 52.3589 183.601C58.5713 183.636 64.9968 183.209 71.2985 183.209C75.4218 183.209 84.7542 185.403 87.077 184.392" fill="white"/>
<path d="M17.4414 188.62C28.5399 187.492 40.3463 185.464 51.8434 185.471C52.0084 185.471 52.1802 185.471 52.3451 185.471C52.5856 185.471 52.8261 185.471 53.0667 185.471C59.1348 185.471 65.3197 185.079 71.2985 185.079C72.0063 185.079 73.0097 185.162 74.1436 185.292C75.841 185.492 77.8408 185.794 79.7719 186.056C81.7098 186.31 83.5653 186.53 85.1253 186.53C85.6063 186.53 86.0599 186.509 86.4997 186.454C86.9395 186.392 87.3725 186.31 87.826 186.111C88.7744 185.698 89.2142 184.598 88.8019 183.649C88.3896 182.701 87.29 182.261 86.3417 182.673C86.3417 182.673 86.1905 182.721 85.9774 182.742C85.7644 182.769 85.4689 182.783 85.1253 182.783C84.3281 182.783 83.2629 182.701 82.0947 182.57C80.3354 182.371 78.3287 182.068 76.432 181.814C74.5284 181.559 72.7485 181.339 71.3054 181.339C65.1617 181.339 58.9767 181.731 53.0735 181.731C52.8399 181.731 52.6062 181.731 52.3726 181.731C52.2008 181.731 52.0221 181.731 51.8503 181.731C39.9271 181.731 27.9902 183.801 17.0703 184.901C16.0395 185.004 15.2904 185.925 15.4004 186.949C15.5034 187.981 16.4243 188.723 17.4483 188.62H17.4414Z" fill="#1E1007"/>
<path d="M184.174 58.7256C194.482 54.8687 205.347 48.3376 215.277 43.9583C215.277 54.6144 204.055 71.8223 198.798 76.5797" fill="#0083BD"/>
<path d="M184.827 60.4785C190.098 58.5054 195.445 55.8792 200.709 53.2049C205.966 50.5374 211.147 47.8218 216.027 45.67L215.271 43.9581H213.401C213.401 46.2956 212.769 49.1968 211.677 52.2561C210.048 56.8417 207.43 61.7847 204.743 65.9647C203.402 68.0615 202.049 69.9659 200.798 71.554C199.554 73.1421 198.4 74.4071 197.541 75.1839C196.778 75.8783 196.716 77.0608 197.41 77.8239C198.104 78.5939 199.286 78.6489 200.049 77.9545C201.526 76.6139 203.251 74.5858 205.093 72.0696C207.849 68.2953 210.824 63.4622 213.14 58.4917C214.295 56.0029 215.291 53.4867 215.999 51.0324C216.707 48.578 217.14 46.1993 217.14 43.9512C217.14 43.3187 216.824 42.7275 216.288 42.3838C215.759 42.04 215.092 41.985 214.515 42.2394C209.464 44.4668 204.241 47.2099 199.011 49.8637C193.781 52.5174 188.538 55.0817 183.508 56.9654C182.539 57.3298 182.051 58.4092 182.408 59.3716C182.772 60.341 183.851 60.8291 184.813 60.4716L184.827 60.4785Z" fill="#1E1007"/>
<path d="M186.394 70.0141C192.799 60.2311 199.595 50.895 204.323 40.0945C205.526 37.3514 206.66 35.1652 206.296 32.1677C196.517 36.4302 187.686 42.6588 177.866 46.99C173.09 49.1006 166.85 53.1912 161.668 53.1706" fill="#D9252C"/>
<path d="M187.953 71.0385C194.324 61.3036 201.189 51.885 206.034 40.8439C206.542 39.6752 207.078 38.5477 207.504 37.3239C207.93 36.1002 208.24 34.7665 208.233 33.2884C208.233 32.8484 208.205 32.4015 208.15 31.9409C208.082 31.3496 207.738 30.834 207.223 30.5453C206.707 30.2565 206.089 30.2153 205.546 30.4559C200.536 32.6353 195.835 35.2958 191.176 37.9289C186.517 40.562 181.906 43.1676 177.116 45.2851C174.607 46.3988 171.872 47.9388 169.165 49.1763C167.811 49.795 166.478 50.3381 165.206 50.7163C163.942 51.0944 162.753 51.3075 161.708 51.3075H161.66C160.629 51.3144 159.798 52.16 159.805 53.1912C159.812 54.2225 160.657 55.0543 161.688 55.0475H161.701C163.241 55.0475 164.773 54.7518 166.278 54.2981C168.539 53.6175 170.752 52.5931 172.855 51.5481C174.951 50.5031 176.937 49.4444 178.621 48.7019C183.644 46.4813 188.359 43.8139 193.011 41.1808C197.663 38.5477 202.261 35.9627 207.037 33.8796L206.288 32.1609L204.433 32.3878C204.474 32.704 204.488 32.9996 204.488 33.2884C204.488 34.2509 204.295 35.124 203.965 36.0933C203.628 37.0627 203.141 38.1146 202.605 39.3314C197.98 49.8913 191.265 59.138 184.819 68.976C184.256 69.8423 184.496 70.9972 185.362 71.5679C186.228 72.1316 187.383 71.891 187.953 71.0247V71.0385Z" fill="#1E1007"/>
<path d="M138 135.786C132.914 139.416 127.733 143.589 122.07 146.834C118.778 148.725 110.051 151.544 108.697 155.38C106.505 161.602 116.71 160.357 120.647 159.45C125.953 158.233 162.705 141.328 157.977 133.153" fill="#F3D21F"/>
<path d="M137.004 134.384C131.863 138.055 126.723 142.194 121.218 145.342C120.517 145.748 119.37 146.277 118.078 146.862C116.126 147.749 113.803 148.787 111.769 150.024C110.752 150.643 109.797 151.317 108.979 152.087C108.168 152.857 107.474 153.73 107.082 154.816C106.821 155.552 106.684 156.267 106.684 156.968C106.677 157.917 106.979 158.858 107.522 159.567C107.921 160.103 108.429 160.515 108.965 160.825C109.769 161.285 110.649 161.547 111.556 161.712C112.463 161.87 113.412 161.932 114.36 161.932C116.875 161.932 119.411 161.512 121.047 161.134C121.452 161.038 121.912 160.9 122.462 160.715C124.496 160.02 127.767 158.659 131.595 156.865C137.334 154.17 144.274 150.505 149.861 146.704C152.658 144.799 155.119 142.861 156.954 140.922C157.868 139.952 158.637 138.976 159.201 137.959C159.757 136.948 160.128 135.869 160.135 134.728C160.135 133.896 159.922 133.05 159.489 132.301C159.015 131.476 157.964 131.201 157.139 131.675C156.314 132.149 156.04 133.201 156.514 134.026C156.644 134.267 156.699 134.459 156.699 134.728C156.699 134.989 156.637 135.326 156.459 135.752C156.136 136.543 155.414 137.574 154.356 138.674C152.5 140.612 149.648 142.785 146.384 144.896C141.477 148.072 135.636 151.152 130.661 153.51C128.173 154.692 125.898 155.689 124.077 156.432C123.163 156.803 122.366 157.112 121.713 157.339C121.067 157.566 120.552 157.724 120.291 157.786C118.875 158.116 116.49 158.494 114.374 158.494C112.958 158.501 111.652 158.302 110.938 157.972C110.573 157.807 110.381 157.642 110.292 157.511C110.202 157.38 110.147 157.277 110.14 156.968C110.14 156.741 110.189 156.411 110.347 155.957C110.429 155.724 110.594 155.428 110.869 155.098C111.35 154.52 112.154 153.86 113.137 153.235C114.614 152.286 116.49 151.379 118.263 150.567C119.15 150.162 120.016 149.777 120.813 149.405C121.61 149.034 122.325 148.69 122.95 148.333C128.764 144.999 133.987 140.777 139.017 137.189C139.787 136.639 139.972 135.566 139.416 134.789C138.866 134.019 137.794 133.834 137.017 134.391L137.004 134.384Z" fill="#1E1007"/>
<path d="M122.221 129.468C115.164 132.369 108.133 137.319 101.172 140.901C95.5162 143.809 83.0501 154.417 94.5403 157.552C101.193 159.367 110.855 157.319 117.363 155.373C128.523 152.032 138.364 147.068 147.47 140.001" fill="#F3D21F"/>
<path d="M121.569 127.88C117.913 129.386 114.326 131.386 110.793 133.449C107.261 135.504 103.784 137.622 100.382 139.375C98.1967 140.503 95.2967 142.538 92.809 144.944C91.572 146.147 90.4449 147.439 89.5859 148.801C89.1598 149.481 88.7956 150.182 88.5345 150.911C88.2733 151.64 88.1084 152.403 88.1084 153.194C88.1084 153.854 88.2252 154.534 88.4932 155.18C88.8918 156.15 89.6134 156.995 90.5549 157.655C91.4964 158.315 92.6646 158.817 94.0734 159.209C96.087 159.759 98.2723 159.972 100.526 159.972C106.512 159.972 113.013 158.453 117.837 157.016C129.183 153.62 139.237 148.553 148.508 141.355C149.257 140.771 149.394 139.691 148.81 138.942C148.226 138.193 147.147 138.055 146.398 138.639C137.457 145.576 127.829 150.437 116.848 153.723C112.216 155.112 105.928 156.542 100.52 156.535C98.4922 156.535 96.5886 156.335 94.9737 155.889C93.4549 155.476 92.5478 154.94 92.1011 154.493C91.8743 154.266 91.7438 154.067 91.6613 153.86C91.5788 153.661 91.5376 153.448 91.5376 153.194C91.5376 152.884 91.6063 152.506 91.7644 152.073C92.0324 151.303 92.589 150.382 93.3381 149.433C94.4651 148.01 96.0182 146.552 97.592 145.308C99.1657 144.064 100.767 143.026 101.942 142.428C105.502 140.599 109.02 138.447 112.511 136.412C116.002 134.377 119.466 132.452 122.861 131.056C123.741 130.699 124.16 129.688 123.796 128.815C123.438 127.935 122.428 127.516 121.555 127.88H121.569Z" fill="#1E1007"/>
<path d="M117.741 104.897C114.895 105.922 82.6513 121.528 72.8378 131.565C66.3917 138.158 67.2027 147.838 75.9303 150.003C88.7263 153.187 102.979 148.326 114.971 143.692C125.513 139.615 139.134 133.194 145.758 124.023C146.727 123.693 145.703 124.408 145.882 124.731" fill="#F3D21F"/>
<path d="M117.163 103.282C116.909 103.371 116.607 103.502 116.188 103.68C114.655 104.354 111.728 105.736 108.023 107.599C102.464 110.39 95.1725 114.254 88.376 118.31C84.9742 120.338 81.7031 122.421 78.8237 124.456C75.9442 126.491 73.4565 128.471 71.6148 130.362C68.536 133.517 66.8936 137.374 66.8867 141.059C66.8867 143.445 67.5945 145.769 69.0652 147.666C70.529 149.564 72.7418 150.987 75.525 151.674C78.5419 152.423 81.6138 152.747 84.6994 152.747C95.4131 152.733 106.244 148.904 115.597 145.301C120.916 143.239 127.039 140.585 132.708 137.257C138.378 133.923 143.621 129.922 147.16 125.041L145.765 124.037L146.315 125.666L146.377 125.646H146.391L146.116 124.58V125.673C146.329 125.673 146.377 125.646 146.391 125.646L146.116 124.58V124.113L145.772 125.639C145.923 125.673 146.033 125.68 146.116 125.68V124.113L145.772 125.639L146.136 124.03L145.36 125.481C145.518 125.563 145.655 125.611 145.772 125.632L146.136 124.023L145.36 125.474L146.15 123.996L144.686 124.814C144.851 125.116 145.126 125.357 145.36 125.481L146.15 124.003L144.686 124.821L146.15 124.009H144.48C144.48 124.223 144.522 124.525 144.693 124.821L146.157 124.009H146.068L144.611 123.384C144.576 123.48 144.494 123.638 144.487 124.009H146.068L144.611 123.384L145.71 123.858L144.68 123.246C144.68 123.246 144.645 123.301 144.611 123.384L145.71 123.858L144.68 123.246L145.133 123.514L144.686 123.233V123.246L145.133 123.514L144.686 123.233L144.673 123.253C144.638 123.308 144.556 123.418 144.453 123.611C144.398 123.707 144.343 123.824 144.281 123.989C144.226 124.154 144.164 124.367 144.164 124.663C144.164 124.931 144.226 125.281 144.405 125.591C144.865 126.423 145.917 126.718 146.741 126.251C147.573 125.79 147.868 124.738 147.401 123.913L146.061 124.663H147.593C147.593 124.456 147.545 124.168 147.394 123.913L146.054 124.663H146.295L147.47 125.226C147.497 125.164 147.58 125.02 147.586 124.663H146.295L147.47 125.226L146.892 124.951L147.449 125.268L147.47 125.226L146.892 124.951L147.449 125.268C147.449 125.268 147.504 125.185 147.58 125.068C147.621 125.006 147.669 124.931 147.731 124.793C147.765 124.724 147.8 124.642 147.834 124.518C147.868 124.394 147.909 124.236 147.909 124.009C147.909 123.803 147.875 123.535 147.738 123.253C147.641 123.047 147.49 122.841 147.318 122.696C147.064 122.47 146.789 122.359 146.59 122.305C146.384 122.25 146.233 122.243 146.109 122.243C145.855 122.243 145.71 122.284 145.573 122.311C145.442 122.346 145.326 122.38 145.209 122.421C144.865 122.538 144.576 122.751 144.37 123.04C141.278 127.33 136.399 131.118 130.963 134.308C125.534 137.498 119.569 140.097 114.353 142.111C105.089 145.7 94.5746 149.337 84.6925 149.33C81.8474 149.33 79.0573 149.034 76.3497 148.36C74.2056 147.824 72.7487 146.827 71.7797 145.583C70.8176 144.339 70.3228 142.805 70.3228 141.087C70.3228 138.44 71.5392 135.381 74.075 132.796C76.3566 130.451 80.15 127.626 84.5413 124.779C91.1317 120.496 99.1034 116.096 105.673 112.693C108.958 110.988 111.892 109.531 114.133 108.458C115.253 107.922 116.201 107.475 116.923 107.152C117.287 106.987 117.59 106.85 117.83 106.747C118.071 106.643 118.249 106.575 118.325 106.547C119.218 106.224 119.679 105.241 119.363 104.347C119.04 103.454 118.057 102.993 117.163 103.309V103.282Z" fill="#1E1007"/>
<path d="M212.295 95.4032C210.57 125.481 184.8 149.866 154.734 149.866C124.668 149.866 101.695 125.481 103.413 95.4032C105.138 65.3255 130.908 40.9402 160.974 40.9402C191.04 40.9402 214.013 65.3186 212.295 95.4032Z" fill="#F3D21F"/>
<path d="M212.295 95.403L210.577 95.3067C209.746 109.875 203.08 123.088 192.964 132.665C182.841 142.242 169.303 148.147 154.741 148.147C140.687 148.147 128.29 142.661 119.377 133.731C110.464 124.793 105.055 112.418 105.048 98.5654C105.048 97.5548 105.076 96.5305 105.138 95.4992C105.969 80.9244 112.635 67.7177 122.758 58.141C132.881 48.5642 146.426 42.6587 160.988 42.6587C175.041 42.6587 187.439 48.1449 196.352 57.0754C205.265 66.0127 210.673 78.3876 210.68 92.2336C210.68 93.2511 210.653 94.2686 210.591 95.2998L212.309 95.3961L214.027 95.4923C214.089 94.3992 214.123 93.313 214.123 92.2336C214.123 77.4801 208.337 64.2046 198.791 54.6416C189.253 45.0787 175.948 39.2144 160.995 39.2144C145.491 39.2144 131.121 45.498 120.408 55.6316C109.694 65.7652 102.609 79.7832 101.722 95.293C101.66 96.3861 101.626 97.4723 101.626 98.5517C101.626 113.305 107.412 126.581 116.958 136.144C126.496 145.707 139.801 151.571 154.755 151.571C170.258 151.571 184.628 145.287 195.342 135.147C206.055 125.013 213.141 110.995 214.027 95.4855L212.309 95.3892L212.295 95.403Z" fill="#1E1007"/>
<path d="M184.971 99.3493C193.052 87.7651 201.601 87.3183 214.507 82.8358C228.451 77.989 240.58 72.5097 253.321 65.1261C256.262 63.4211 264.97 55.6249 265.952 62.6511C266.605 67.3123 261.176 73.9122 258.434 77.2946C254.414 82.2583 250.359 87.3389 246.621 92.4813C245.927 93.4301 244.965 94.1382 244.167 95.0044C241.425 97.9812 238.079 100.367 235.158 103.172C229.942 108.184 224.699 113.189 218.809 117.437C215.875 119.555 212.927 121.576 209.903 123.556C208.927 124.202 206.439 126.093 205.56 125.99" fill="#F3D21F"/>
<path d="M186.38 100.332C188.325 97.5481 190.256 95.4787 192.263 93.8494C195.273 91.4088 198.462 89.9169 202.193 88.6038C205.918 87.2907 210.158 86.1701 215.072 84.4651C229.105 79.5908 241.351 74.0565 254.181 66.6179C254.806 66.2535 255.507 65.7585 256.305 65.1948C257.493 64.356 258.882 63.3867 260.194 62.6511C260.847 62.2867 261.479 61.9773 262.029 61.778C262.579 61.5717 263.046 61.4892 263.335 61.4892C263.5 61.4892 263.603 61.5167 263.665 61.5373C263.754 61.5786 263.781 61.5855 263.898 61.7504C264.008 61.9154 264.159 62.2729 264.249 62.8986C264.276 63.0704 264.283 63.2561 264.283 63.4554C264.283 64.2873 264.043 65.3392 263.589 66.4666C262.909 68.1647 261.775 70.0278 260.565 71.7397C259.356 73.4584 258.078 75.0259 257.102 76.2221C253.075 81.1927 249.006 86.3007 245.233 91.4844C244.993 91.8144 244.656 92.1582 244.251 92.5363C243.845 92.9213 243.378 93.3406 242.904 93.8563C240.327 96.6612 237.014 99.0262 233.97 101.948C228.761 106.96 223.566 111.903 217.807 116.055C214.893 118.152 211.965 120.167 208.962 122.133C208.687 122.318 208.357 122.545 207.993 122.8C207.45 123.178 206.818 123.604 206.289 123.906C206.028 124.058 205.794 124.181 205.636 124.243C205.561 124.278 205.506 124.291 205.492 124.291L205.629 124.945V124.278C205.54 124.278 205.499 124.285 205.492 124.291L205.629 124.945V125.336L205.746 124.285H205.629V125.336L205.746 124.285C204.805 124.181 203.952 124.862 203.849 125.804C203.746 126.746 204.427 127.598 205.368 127.701C205.457 127.708 205.54 127.715 205.629 127.715C206.021 127.715 206.31 127.633 206.571 127.55C207.024 127.399 207.423 127.2 207.828 126.973C208.433 126.636 209.031 126.237 209.567 125.866C210.103 125.501 210.577 125.165 210.838 124.986C213.883 122.992 216.851 120.957 219.806 118.826C225.82 114.488 231.125 109.421 236.341 104.409C239.138 101.714 242.512 99.3149 245.426 96.1662C245.742 95.8156 246.154 95.4444 246.601 95.0181C247.048 94.5919 247.543 94.1106 247.996 93.4919C251.707 88.3907 255.734 83.3308 259.754 78.374C261.046 76.779 262.984 74.414 264.627 71.8084C265.451 70.5022 266.2 69.1341 266.764 67.7385C267.321 66.3429 267.705 64.906 267.705 63.4486C267.705 63.1048 267.685 62.7611 267.637 62.4104C267.547 61.7642 267.396 61.1798 267.169 60.6367C266.833 59.8323 266.29 59.1242 265.575 58.6705C264.86 58.2099 264.056 58.038 263.314 58.0449C262.153 58.0518 261.088 58.4024 260.043 58.863C258.476 59.5574 256.944 60.5611 255.59 61.4892C254.916 61.9567 254.284 62.4036 253.741 62.7817C253.198 63.1598 252.738 63.4692 252.435 63.641C239.784 70.9766 227.778 76.4009 213.924 81.2202C207.574 83.4339 202.193 84.6576 197.211 86.8714C194.723 87.9782 192.345 89.3395 190.078 91.1888C187.803 93.0382 185.638 95.3687 183.542 98.3731C182.999 99.1499 183.192 100.222 183.968 100.766C184.745 101.309 185.817 101.116 186.36 100.339L186.38 100.332Z" fill="#1E1007"/>
<path d="M302.664 14.0042C299.75 25.5815 291.977 39.6682 280.04 53.473C262.187 74.1183 240.113 88.2463 224.005 90.68C235.825 97.2386 261.135 86.2938 281.745 65.3872C301.207 45.6562 309.763 23.8696 302.67 14.0042H302.664Z" fill="#D9252C"/>
<path d="M302.664 14.0042L300.85 13.5504C299.448 19.1328 296.843 25.4096 293.111 31.9821C289.38 38.5545 284.521 45.4362 278.625 52.2493C269.808 62.4448 259.946 71.0315 250.339 77.3427C240.739 83.6607 231.379 87.6825 223.723 88.8238C222.933 88.9407 222.301 89.5525 222.163 90.3431C222.019 91.1338 222.397 91.9244 223.098 92.3094C225.757 93.7875 228.912 94.4406 232.355 94.4406C235.901 94.4406 239.77 93.7462 243.866 92.4743C250.002 90.5563 256.641 87.3044 263.334 82.9457C270.028 78.5802 276.769 73.1009 283.085 66.7003C290.637 59.0417 296.589 51.0668 300.678 43.5181C304.76 35.9626 307.007 28.8471 307.021 22.7559C307.021 20.886 306.801 19.1053 306.34 17.4485C305.88 15.7916 305.172 14.2654 304.196 12.9111C303.77 12.3198 303.042 12.0311 302.327 12.1686C301.612 12.3061 301.042 12.8423 300.863 13.5504L302.677 14.0042L301.159 15.0973C301.853 16.0666 302.382 17.1804 302.739 18.4591C303.097 19.7378 303.282 21.1747 303.282 22.7559C303.296 27.9052 301.289 34.5601 297.393 41.7375C293.503 48.9218 287.758 56.6423 280.425 64.0741C272.261 72.3584 263.341 79.0477 254.895 83.647C250.676 85.9432 246.573 87.7169 242.759 88.9063C238.945 90.0956 235.42 90.7075 232.368 90.7075C229.393 90.7075 226.891 90.1369 224.926 89.0438L224.019 90.68L224.301 92.5294C232.753 91.2437 242.491 86.9882 252.415 80.4708C262.338 73.9465 272.433 65.1466 281.477 54.6967C287.518 47.7118 292.514 40.6444 296.383 33.8314C300.252 27.0184 302.987 20.4597 304.499 14.4648L302.684 14.011L302.664 14.0042Z" fill="#1E1007"/>
<path d="M291.469 7.26685C290.802 18.2942 285.483 32.4428 275.697 47.0726C261.053 68.9485 240.594 85.6545 223.998 90.6801C237.9 94.5644 262.468 80.189 279.986 57.5912C296.513 36.2583 301.056 14.9805 291.469 7.26685Z" fill="#0083BD"/>
<path d="M291.469 7.26674L289.6 7.15674C289.284 12.416 287.841 18.5416 285.257 25.1415C282.68 31.7414 278.962 38.8226 274.138 46.0343C266.922 56.8211 258.249 66.3428 249.377 73.7608C240.505 81.1789 231.407 86.4863 223.455 88.8925C222.658 89.1331 222.115 89.8756 222.129 90.7006C222.136 91.5325 222.7 92.2612 223.497 92.4812C225.208 92.9624 227.036 93.1824 228.939 93.1824C232.802 93.1824 237.007 92.2681 241.399 90.625C247.989 88.15 255.019 84.0044 261.905 78.5733C268.791 73.1352 275.526 66.4047 281.47 58.7392C286.94 51.6786 291.133 44.6112 293.971 37.9701C296.809 31.3289 298.3 25.114 298.307 19.7103C298.307 16.816 297.874 14.1485 296.946 11.7836C296.019 9.42546 294.582 7.36986 292.638 5.81613C292.095 5.37614 291.346 5.27989 290.706 5.56176C290.067 5.84363 289.641 6.46237 289.593 7.15674L291.462 7.26674L290.287 8.72422C291.689 9.8517 292.734 11.3161 293.455 13.1448C294.177 14.9735 294.555 17.1804 294.555 19.7034C294.555 24.4128 293.215 30.1946 290.521 36.492C287.827 42.7894 283.8 49.6093 278.501 56.4429C270.832 66.3428 261.768 74.6408 252.93 80.4295C248.511 83.3238 244.154 85.5857 240.072 87.1188C235.99 88.6519 232.197 89.4425 228.926 89.4425C227.311 89.4425 225.833 89.25 224.493 88.8788L223.992 90.68L224.534 92.4675C233.173 89.8481 242.601 84.2863 251.769 76.6277C260.929 68.969 269.815 59.1998 277.244 48.1106C282.206 40.6925 286.047 33.3845 288.734 26.4959C291.428 19.6072 292.974 13.1379 293.325 7.37674L291.455 7.26674H291.469Z" fill="#1E1007"/>
<path d="M268.908 1.86987C271.897 11.2679 270.921 24.5983 265.258 39.5994C256.785 62.0184 240.264 81.7769 223.998 90.6799C240.361 89.9787 262.111 71.0039 273.457 47.1618C284.157 24.6602 281.896 5.59607 268.908 1.86987Z" fill="#D9252C"/>
<path d="M268.908 1.87008L267.128 2.4407C268.152 5.65128 268.695 9.41185 268.695 13.6124C268.695 20.9342 267.045 29.5828 263.513 38.9327C259.355 49.9394 253.205 60.3205 246.106 69.0242C239.014 77.7278 230.966 84.7402 223.105 89.037C222.342 89.4564 221.964 90.3433 222.198 91.182C222.431 92.0207 223.208 92.5845 224.081 92.5501C228.513 92.3576 233.179 90.9482 237.873 88.6108C244.91 85.1046 252.036 79.4947 258.517 72.496C264.99 65.4905 270.811 57.0893 275.154 47.9663C279.834 38.1215 282.123 28.8747 282.13 21.0579C282.13 15.8536 281.106 11.2612 278.989 7.60375C277.931 5.77503 276.591 4.18692 274.983 2.90819C273.381 1.62946 271.512 0.66697 269.43 0.0757276C268.763 -0.11677 268.055 0.0757275 267.574 0.570721C267.093 1.06571 266.922 1.7807 267.135 2.4407L268.914 1.87008L268.399 3.6713C270.028 4.1388 271.437 4.86754 272.653 5.8369C274.474 7.28751 275.89 9.29498 276.879 11.8593C277.862 14.4168 278.391 17.5242 278.384 21.0648C278.384 28.1391 276.268 36.9184 271.773 46.3645C266.221 58.0381 258.084 68.5704 249.384 76.2016C245.034 80.0171 240.553 83.1109 236.21 85.2696C231.867 87.4352 227.675 88.6589 223.929 88.817L224.012 90.687L224.912 92.3301C233.317 87.7239 241.666 80.409 249.013 71.4029C256.359 62.3968 262.709 51.6857 267.025 40.2733C270.687 30.5659 272.447 21.5117 272.454 13.6262C272.454 9.10248 271.87 4.96379 270.708 1.31321L268.928 1.88383L268.908 1.87008Z" fill="#1E1007"/>
<path d="M223.998 90.6801C233.921 83.7089 249.645 85.4483 274.522 67.4979C286.26 59.028 288.473 72.6059 282.343 82.1689C273.464 96.015 263.217 111.504 253.48 124.353C244.986 135.559 232.389 148.636 220.205 155.792C211.154 161.107 199.698 162.344 189.699 161.54C183.954 161.079 164.499 158.199 164.568 150.519L223.998 90.6801Z" fill="#F3D21F"/>
<path d="M224.988 92.0893C227.262 90.4874 229.943 89.3462 233.131 88.2737C237.907 86.6581 243.804 85.2212 250.841 82.4919C257.885 79.7557 266.076 75.7201 275.526 68.9002C276.735 68.0271 277.8 67.429 278.707 67.0646C279.615 66.6934 280.35 66.5559 280.913 66.5627C281.456 66.5627 281.841 66.6796 282.171 66.8584C282.418 66.9959 282.638 67.1815 282.844 67.4358C283.161 67.814 283.442 68.3571 283.635 69.0652C283.834 69.7664 283.944 70.6189 283.944 71.5677C283.944 72.9977 283.69 74.6408 283.181 76.3114C282.673 77.982 281.903 79.6869 280.893 81.2613C272.021 95.0936 261.795 110.548 252.105 123.336C247.913 128.87 242.69 134.879 237.028 140.379C231.365 145.872 225.256 150.856 219.332 154.335C212.288 158.48 203.547 160.075 195.238 160.068C193.403 160.068 191.596 159.993 189.83 159.848C187.081 159.635 180.855 158.803 175.488 157.126C172.807 156.294 170.34 155.242 168.677 154.053C167.846 153.462 167.22 152.85 166.835 152.272C166.451 151.688 166.286 151.165 166.279 150.574V150.553C166.293 149.605 165.537 148.821 164.581 148.814C163.633 148.8 162.85 149.557 162.843 150.512V150.574C162.843 151.901 163.276 153.138 163.977 154.177C164.588 155.091 165.385 155.868 166.293 156.562C167.887 157.772 169.832 158.728 171.948 159.532C175.116 160.735 178.656 161.595 181.837 162.193C185.019 162.791 187.837 163.128 189.555 163.265C191.41 163.416 193.307 163.492 195.238 163.492C203.973 163.492 213.284 161.849 221.071 157.284C227.331 153.606 233.612 148.464 239.419 142.833C245.226 137.202 250.545 131.07 254.84 125.398C264.626 112.48 274.886 96.9705 283.779 83.1038C284.968 81.2475 285.861 79.2744 286.459 77.3013C287.057 75.3351 287.373 73.3758 287.373 71.5539C287.373 70.4814 287.263 69.4502 287.03 68.4877C286.679 67.044 286.047 65.724 284.995 64.7134C284.473 64.2115 283.855 63.8059 283.154 63.5309C282.46 63.2559 281.697 63.1184 280.9 63.1184C279.786 63.1184 278.625 63.3797 277.402 63.8747C276.178 64.3696 274.886 65.1121 273.498 66.109C261.218 74.9639 251.294 78.9238 243.11 81.5775C239.014 82.9044 235.351 83.8944 232.018 85.0219C228.692 86.1425 225.682 87.4006 222.995 89.2843C222.218 89.8274 222.033 90.8999 222.576 91.6768C223.118 92.4536 224.191 92.6393 224.967 92.0961" fill="#1E1007"/>
<path d="M191.651 168.937C188.82 171.082 192.05 175.881 194.345 177.036C201.259 180.521 210.983 174.609 216.845 171.364C233.166 162.337 240.767 141.836 239.949 135.924L191.651 168.937Z" fill="#F3D21F"/>
<path d="M190.613 167.562C190.015 168.016 189.541 168.6 189.245 169.239C188.95 169.879 188.826 170.559 188.826 171.199C188.826 172.038 189.019 172.828 189.3 173.564C189.726 174.671 190.372 175.674 191.108 176.527C191.85 177.379 192.654 178.087 193.568 178.555C195.334 179.442 197.231 179.806 199.128 179.806C202.584 179.799 206.055 178.658 209.257 177.249C212.453 175.833 215.401 174.114 217.676 172.856C225.805 168.353 231.77 161.216 235.742 154.342C237.728 150.897 239.206 147.515 240.209 144.51C240.711 143.012 241.082 141.602 241.343 140.324C241.597 139.045 241.735 137.897 241.735 136.872C241.735 136.46 241.714 136.061 241.659 135.683C241.529 134.741 240.663 134.088 239.721 134.212C238.78 134.342 238.127 135.209 238.251 136.151C238.278 136.343 238.292 136.584 238.292 136.872C238.292 137.581 238.189 138.536 237.969 139.65C237.577 141.602 236.828 144.05 235.715 146.704C234.045 150.684 231.55 155.146 228.259 159.271C224.967 163.396 220.878 167.177 216.019 169.858C213.697 171.144 210.845 172.801 207.869 174.114C204.9 175.434 201.808 176.389 199.134 176.382C197.664 176.382 196.331 176.114 195.121 175.503C194.908 175.399 194.571 175.166 194.235 174.843C193.719 174.361 193.19 173.688 192.826 173.007C192.455 172.326 192.262 171.646 192.269 171.206C192.269 170.979 192.31 170.821 192.365 170.69C192.427 170.559 192.503 170.449 192.688 170.305C193.444 169.734 193.595 168.655 193.018 167.899C192.448 167.143 191.369 166.991 190.613 167.569" fill="#1E1007"/>
<path d="M165.976 168.834C155.358 184.392 173.089 184.791 179.693 183.216C186.922 181.491 196.351 179.538 202.735 175.709C213.421 169.308 225.716 156.947 225.716 145.294L165.969 168.827" fill="#F3D21F"/>
<path d="M164.554 167.865C163.324 169.673 162.431 171.316 161.833 172.835C161.242 174.354 160.94 175.764 160.94 177.077C160.933 178.713 161.427 180.198 162.286 181.353C162.926 182.226 163.743 182.921 164.637 183.464C165.984 184.282 167.523 184.784 169.111 185.1C170.698 185.416 172.347 185.54 173.935 185.54C176.258 185.54 178.429 185.272 180.085 184.88C183.679 184.021 187.872 183.099 192.002 181.896C196.132 180.686 200.207 179.215 203.609 177.18C209.12 173.88 214.982 169.088 219.545 163.561C221.827 160.797 223.779 157.841 225.18 154.768C226.576 151.702 227.421 148.505 227.421 145.287C227.421 144.339 226.651 143.569 225.703 143.569C224.754 143.569 223.985 144.339 223.985 145.287C223.985 147.893 223.291 150.615 222.054 153.338C220.191 157.428 217.099 161.505 213.477 165.115C209.862 168.731 205.725 171.893 201.843 174.217C198.86 176.004 195.025 177.428 191.04 178.583C187.054 179.744 182.917 180.659 179.281 181.525C177.948 181.848 175.969 182.096 173.921 182.089C171.433 182.096 168.808 181.711 167.035 180.844C166.142 180.418 165.475 179.896 165.049 179.304C164.623 178.706 164.376 178.039 164.362 177.056C164.362 176.273 164.547 175.276 165.022 174.059C165.496 172.842 166.259 171.412 167.379 169.776C167.915 168.992 167.709 167.92 166.925 167.39C166.142 166.854 165.07 167.06 164.541 167.844" fill="#1E1007"/>
<path d="M187.837 131.565C177.598 133.882 152.83 146.14 135.148 162.358C114.223 181.552 136.193 190.957 151.078 190.366C176.972 189.342 203.602 170.649 211.539 151.021L187.837 131.558" fill="#F3D21F"/>
<path d="M187.459 129.888C184.731 130.506 181.199 131.737 177.096 133.49C164.802 138.756 147.456 148.739 133.987 161.093C130.812 164.008 128.544 166.744 127.046 169.343C125.548 171.942 124.826 174.43 124.826 176.761C124.826 178.095 125.067 179.373 125.507 180.556C126.283 182.625 127.658 184.378 129.369 185.829C131.939 188.001 135.265 189.541 138.825 190.579C142.385 191.611 146.192 192.119 149.738 192.119C150.212 192.119 150.679 192.112 151.14 192.092C164.479 191.562 177.872 186.516 188.985 179.112C194.544 175.406 199.533 171.11 203.657 166.455C207.78 161.808 211.044 156.803 213.12 151.674C213.477 150.794 213.051 149.791 212.171 149.433C211.292 149.076 210.288 149.502 209.938 150.382C208.048 155.07 205.004 159.766 201.093 164.173C195.231 170.787 187.418 176.74 178.718 181.113C170.017 185.492 160.424 188.283 151.009 188.654C150.59 188.668 150.171 188.682 149.738 188.682C144.831 188.689 139.23 187.568 135.045 185.451C132.949 184.392 131.217 183.099 130.056 181.649C129.472 180.92 129.025 180.164 128.723 179.353C128.42 178.548 128.262 177.696 128.255 176.768C128.255 175.152 128.75 173.268 130.015 171.062C131.279 168.862 133.313 166.366 136.296 163.63C145.003 155.641 155.517 148.581 165.104 143.253C169.894 140.592 174.457 138.358 178.429 136.653C182.401 134.948 185.803 133.779 188.201 133.243C189.129 133.036 189.706 132.115 189.5 131.187C189.294 130.259 188.373 129.681 187.445 129.888" fill="#1E1007"/>
<path d="M170.257 120.503C166.203 122.208 160.08 121.816 156.472 119.073C154.678 117.719 154.383 115.134 156.623 114.068C159.997 112.466 165.509 112.411 168.732 114.185C171.316 115.608 174.085 118.888 170.264 120.496L170.257 120.503Z" fill="#EC9F2E"/>
<path d="M118.324 116.475C117.74 118.145 114.902 118.661 113.48 118.496C111.562 118.269 109.501 117.279 108.793 114.996C108.16 112.941 110.957 111.683 112.435 111.573C114.139 111.449 116.984 112.508 117.981 114.316C118.462 115.182 118.531 115.897 118.324 116.475Z" fill="#EC9F2E"/>
<path d="M219.043 88.3357C218.707 84.5064 214.123 73.7472 208.343 67.9722C203.217 43.6832 178.58 34.5808 159.077 34.5808C132.921 34.5808 110.023 53.0399 103.371 77.6452C104.553 76.5315 105.721 75.5003 107.027 74.579C108.347 73.6578 109.824 72.8465 111.645 72.1384C115.817 70.5091 120.613 69.0378 125.073 68.371C133.664 67.0854 146.425 67.4704 154.871 69.5741C161.022 71.1003 165.124 71.7534 170.189 75.8303C177.041 81.3439 174.931 90.6525 178.408 97.9675C181.26 103.969 187.349 119.053 204.399 112.962C215.442 109.015 219.999 99.3837 219.043 88.3357Z" fill="white"/>
<path d="M219.043 88.3358L220.905 88.1708C220.85 87.5452 220.72 86.8783 220.534 86.1427C219.888 83.5715 218.514 80.1065 216.638 76.5453C214.755 72.991 212.391 69.3885 209.662 66.6523L208.343 67.9792L210.171 67.5942C208.831 61.2486 206.199 55.845 202.694 51.3625C197.437 44.632 190.255 39.9777 182.552 37.0008C174.848 34.024 166.601 32.7178 159.069 32.7178C145.545 32.7178 132.88 37.489 122.75 45.4226C112.621 53.3562 104.999 64.4523 101.563 77.164C101.343 77.9684 101.694 78.8278 102.408 79.2609C103.123 79.694 104.044 79.5909 104.656 79.0203C105.817 77.9272 106.91 76.9647 108.099 76.1259C109.308 75.2872 110.641 74.5516 112.325 73.8985C116.4 72.3035 121.094 70.8735 125.348 70.2341C128.516 69.7598 132.337 69.5123 136.295 69.5123C142.672 69.5123 149.435 70.1516 154.417 71.396C157.53 72.166 160.045 72.7091 162.306 73.5135C164.574 74.3247 166.629 75.3834 169.013 77.2947C170.484 78.484 171.453 79.8315 172.175 81.3852C173.26 83.7021 173.741 86.5139 174.236 89.5183C174.738 92.5226 175.267 95.7194 176.71 98.7787C177.294 100.002 178.05 101.701 179.04 103.543C180.524 106.307 182.538 109.435 185.424 111.937C186.867 113.182 188.537 114.275 190.455 115.045C192.372 115.815 194.53 116.262 196.908 116.262C199.375 116.262 202.082 115.78 205.024 114.729C210.418 112.81 214.487 109.538 217.132 105.42C219.792 101.302 221.029 96.3794 221.029 91.1682C221.029 90.1782 220.988 89.1814 220.898 88.1776L219.036 88.3426L217.174 88.5076C217.249 89.4083 217.29 90.302 217.29 91.1751C217.29 95.8019 216.198 99.9819 213.992 103.399C211.779 106.816 208.467 109.524 203.766 111.209C201.161 112.137 198.894 112.522 196.908 112.522C194.351 112.522 192.255 111.896 190.42 110.892C187.678 109.387 185.527 106.946 183.857 104.361C183.019 103.069 182.304 101.756 181.693 100.518C181.074 99.2875 180.559 98.1394 180.098 97.17C179.329 95.5475 178.841 93.7463 178.456 91.8351C177.879 88.9683 177.556 85.8608 176.683 82.8152C176.243 81.289 175.659 79.7765 174.807 78.3397C173.955 76.9028 172.827 75.5484 171.364 74.3728C168.684 72.2072 166.155 70.901 163.564 69.9798C160.973 69.0585 158.355 68.5085 155.324 67.7523C149.881 66.4048 142.927 65.7586 136.295 65.7586C132.186 65.7586 128.207 66.0061 124.798 66.5217C120.139 67.2229 115.239 68.7354 110.971 70.3991C109.019 71.1554 107.391 72.0491 105.961 73.046C104.539 74.0428 103.309 75.1428 102.099 76.2841L103.384 77.6453L105.192 78.1334C108.401 66.2398 115.555 55.8106 125.073 48.3582C134.591 40.9058 146.452 36.4508 159.09 36.4508C168.553 36.4508 179.308 38.6783 188.18 43.7864C192.619 46.337 196.598 49.6025 199.766 53.6587C202.934 57.7149 205.305 62.5617 206.529 68.3573C206.604 68.7148 206.776 69.0379 207.037 69.2923C209.697 71.946 212.232 75.9472 214.074 79.7078C214.995 81.5846 215.758 83.4065 216.294 84.9602C216.562 85.7371 216.775 86.4452 216.926 87.0502C217.077 87.6552 217.167 88.1639 217.194 88.4939L219.057 88.3289L219.043 88.3358Z" fill="#1E1007"/>
<path d="M135.952 115.437C139.587 117.967 143.552 127.268 140.81 131.441C136.859 137.443 131.897 128.059 130.901 124.484C130.014 121.308 129.746 111.126 135.952 115.437Z" fill="#ED1C24"/>
<path d="M137.56 63.3935C128.496 63.7441 117.37 66.0953 109.845 72.0352C106.821 74.4208 104.374 76.9577 101.09 78.9583C98.9455 80.2576 92.9598 83.4407 95.317 87.1944C97.2755 90.3087 108.353 91.9312 111.501 92.2475C124.242 93.5262 133.396 94.1106 146.185 92.88C154.205 92.11 169.227 87.0844 173.811 79.9139C169.571 74.5927 157.393 62.6372 137.56 63.4004V63.3935Z" fill="white"/>
<path d="M137.56 63.3934L137.491 61.5234C132.825 61.7022 127.65 62.3965 122.62 63.8196C117.596 65.2428 112.71 67.3946 108.69 70.5708C107.116 71.8083 105.735 73.0595 104.36 74.2145C102.986 75.3695 101.639 76.4351 100.12 77.3563C99.7009 77.6107 99.0618 77.9751 98.347 78.4288C97.275 79.1094 96.0243 79.9688 94.9591 81.0688C94.423 81.6188 93.9351 82.2375 93.5503 82.9594C93.1723 83.6744 92.9043 84.52 92.9043 85.4412C92.9043 86.3693 93.1929 87.3387 93.729 88.1912C94.1688 88.8856 94.746 89.3943 95.3783 89.8343C96.4847 90.5974 97.8179 91.1612 99.2679 91.6561C101.446 92.3918 103.907 92.9418 106.099 93.3474C108.298 93.7461 110.215 94.0005 111.308 94.1036C119.17 94.8942 125.726 95.4236 132.632 95.4236C136.948 95.4236 141.387 95.2174 146.356 94.7361C148.5 94.5299 151.022 94.0555 153.709 93.3405C157.743 92.268 162.134 90.673 166.031 88.6106C167.976 87.5793 169.804 86.4312 171.398 85.1594C172.992 83.8875 174.36 82.485 175.37 80.9107C175.803 80.2369 175.755 79.3638 175.26 78.7382C173.089 76.0157 169.034 71.7327 163.042 68.0958C157.056 64.459 149.119 61.4822 139.353 61.4822C138.735 61.4822 138.109 61.4959 137.477 61.5166L137.546 63.3865L137.621 65.2565C138.206 65.2359 138.783 65.2221 139.353 65.2221C148.356 65.2221 155.585 67.9446 161.104 71.2927C166.615 74.6339 170.395 78.6282 172.34 81.0688L173.803 79.9001L172.23 78.8894C171.281 80.3744 169.673 81.9007 167.625 83.2963C164.567 85.4 160.574 87.2081 156.637 88.5418C152.706 89.8755 148.809 90.7349 145.999 91.003C141.133 91.4705 136.824 91.6699 132.632 91.6699C125.918 91.6699 119.506 91.1543 111.679 90.3705C110.195 90.2262 106.676 89.7449 103.398 88.9406C101.763 88.5418 100.175 88.0537 98.9655 87.5243C98.3608 87.2631 97.8591 86.9881 97.4949 86.7406C97.1307 86.4931 96.9383 86.2731 96.8902 86.1837C96.6771 85.8331 96.6427 85.6269 96.6359 85.4275C96.6359 85.2969 96.6565 85.1525 96.7252 84.9737C96.8352 84.6644 97.0826 84.2656 97.4674 83.8394C98.0378 83.2 98.8831 82.54 99.7283 81.9763C100.58 81.4057 101.419 80.9244 102.051 80.5463C103.817 79.4738 105.336 78.2707 106.765 77.0607C108.195 75.8507 109.549 74.6408 110.999 73.4926C114.503 70.7289 118.943 68.7283 123.63 67.4083C128.31 66.0815 133.223 65.4215 137.628 65.2496L137.553 63.3797L137.56 63.3934Z" fill="#1E1007"/>
<path d="M206.941 95.8224C206.941 100.834 204.556 104.897 201.615 104.897C198.674 104.897 196.289 100.834 196.289 95.8224C196.289 90.8106 198.674 86.7476 201.615 86.7476C204.556 86.7476 206.941 90.8106 206.941 95.8224Z" fill="white"/>
<path d="M206.941 95.8225H205.072C205.072 98.0294 204.529 100.009 203.773 101.295C203.395 101.941 202.976 102.402 202.598 102.67C202.22 102.938 201.917 103.027 201.615 103.027C201.32 103.027 201.017 102.938 200.639 102.67C200.076 102.271 199.416 101.419 198.942 100.209C198.461 99.0056 198.165 97.4794 198.165 95.8225C198.165 93.6157 198.708 91.6357 199.471 90.3501C199.849 89.7039 200.268 89.2433 200.646 88.9751C201.024 88.707 201.326 88.6176 201.622 88.6176C201.917 88.6176 202.22 88.707 202.605 88.9751C203.168 89.3739 203.828 90.2264 204.302 91.4363C204.783 92.6395 205.079 94.1657 205.079 95.8225H208.817C208.817 93.0176 208.164 90.4601 207.003 88.4595C206.412 87.4626 205.69 86.5964 204.79 85.9433C203.897 85.2971 202.797 84.8777 201.622 84.8777C200.447 84.8777 199.347 85.2971 198.454 85.9433C197.107 86.9264 196.138 88.3701 195.464 90.0614C194.791 91.7595 194.427 93.7257 194.42 95.8294C194.42 98.6344 195.073 101.192 196.241 103.192C196.825 104.189 197.554 105.056 198.454 105.709C199.347 106.355 200.447 106.781 201.622 106.774C202.797 106.774 203.897 106.355 204.79 105.709C206.137 104.726 207.106 103.282 207.779 101.591C208.446 99.8925 208.817 97.9263 208.817 95.8294H206.948L206.941 95.8225Z" fill="#1E1007"/>
<path d="M178.916 150.045C177.247 155.002 177.563 158.941 180.25 160.543C185.184 163.485 196.255 157.353 204.976 146.848C205.8 145.858 206.577 144.868 207.298 143.871C206.007 147.68 203.498 152.032 199.966 156.294C191.795 166.132 181.184 171.728 176.271 168.8C172.086 166.304 173.384 158.412 178.916 150.052V150.045Z" fill="#EC9F2E"/>
<path d="M222.726 141.871C222.568 142.764 222.376 143.658 222.149 144.566C221.95 145.384 221.73 146.181 221.496 146.958L222.657 146.497C222.802 144.847 222.822 143.287 222.726 141.864" fill="#CD902D"/>
<path d="M222.658 146.504L221.497 146.965C219.181 154.679 215.36 160.144 212.247 160.144C211.993 160.144 211.752 160.11 211.512 160.034C210.783 159.814 210.165 159.271 209.663 158.467C209.134 159.319 208.577 160.165 207.993 161.004C208.44 164.2 209.574 166.428 211.299 166.95C211.374 166.971 211.457 166.992 211.532 167.012C212.199 166.4 212.852 165.775 213.498 165.135C216.281 162.358 218.748 159.312 220.59 156.191C220.982 155.05 221.339 153.84 221.648 152.582C222.164 150.485 222.5 148.436 222.665 146.511" fill="#CD902D"/>
<path d="M220.583 156.191C218.741 159.305 216.274 162.358 213.491 165.135C212.852 165.775 212.199 166.4 211.525 167.012C211.704 167.046 211.89 167.067 212.068 167.067C214.948 167.067 218.363 162.646 220.576 156.198" fill="#170803"/>
<path d="M208.158 152.644C208.061 153.317 207.979 153.977 207.917 154.63C208.041 154.404 208.164 154.177 208.281 153.95C208.226 153.53 208.185 153.097 208.151 152.644" fill="#CD902D"/>
<path d="M208.288 153.95C208.172 154.177 208.048 154.403 207.924 154.63C207.704 156.982 207.732 159.154 207.993 160.996C208.577 160.158 209.134 159.312 209.663 158.46C208.989 157.38 208.529 155.833 208.288 153.95Z" fill="#170803"/>
<path d="M233.282 144.751C233.179 145.322 233.062 145.899 232.911 146.484C231.502 152.231 228.753 156.48 226.554 156.48C226.396 156.48 226.231 156.459 226.08 156.411C225.613 156.274 225.221 155.923 224.898 155.407C224.582 156.067 224.238 156.72 223.874 157.36C224.19 159.237 224.898 160.529 225.949 160.852C226.114 160.9 226.279 160.928 226.451 160.928C226.609 160.928 226.767 160.907 226.932 160.866C227.393 160.344 227.832 159.807 228.265 159.271C229.578 157.628 230.76 155.93 231.818 154.232C232.114 153.414 232.375 152.54 232.595 151.626C233.213 149.124 233.426 146.724 233.296 144.751" fill="#CD902D"/>
<path d="M231.805 154.232C230.747 155.93 229.565 157.628 228.252 159.271C227.819 159.807 227.379 160.343 226.919 160.866C228.609 160.447 230.506 157.869 231.805 154.232Z" fill="#170803"/>
<path d="M223.922 151.667C223.613 153.812 223.599 155.792 223.867 157.36C224.232 156.713 224.575 156.06 224.891 155.407C224.362 154.562 224.032 153.262 223.922 151.667Z" fill="#170803"/>
<path d="M165.393 104.615C165.393 108.63 163.647 111.882 161.496 111.882C159.345 111.882 157.6 108.63 157.6 104.615C157.6 100.6 159.345 97.3486 161.496 97.3486C163.647 97.3486 165.393 100.6 165.393 104.615Z" fill="#1E1007"/>
<path d="M118.352 102.429C117.961 105.647 116.25 108.087 114.525 107.874C112.8 107.668 111.721 104.884 112.113 101.666C112.504 98.4418 114.222 96.0081 115.94 96.2143C117.665 96.4275 118.744 99.2049 118.352 102.422V102.429Z" fill="#1E1007"/>
</g>
<path d="M98.5895 222.909C98.5895 222.385 98.7171 221.908 98.9723 221.477C99.2308 221.043 99.5755 220.698 100.006 220.443C100.441 220.185 100.92 220.055 101.443 220.055C101.904 220.055 102.328 220.155 102.716 220.354C103.104 220.553 103.424 220.824 103.675 221.169C103.931 221.514 104.086 221.903 104.143 222.337H102.756C102.699 222.056 102.547 221.827 102.298 221.651C102.05 221.472 101.765 221.383 101.443 221.383C101.165 221.383 100.91 221.452 100.678 221.592C100.449 221.728 100.265 221.911 100.126 222.143C99.9898 222.372 99.9219 222.626 99.9219 222.904C99.9219 223.186 99.9898 223.443 100.126 223.675C100.265 223.903 100.449 224.087 100.678 224.227C100.91 224.366 101.165 224.435 101.443 224.435C101.765 224.435 102.04 224.348 102.268 224.172C102.497 223.993 102.64 223.763 102.696 223.481H104.083C104.027 223.915 103.876 224.304 103.631 224.649C103.389 224.994 103.079 225.266 102.701 225.464C102.323 225.663 101.904 225.763 101.443 225.763C100.92 225.763 100.441 225.635 100.006 225.38C99.5755 225.121 99.2308 224.777 98.9723 224.346C98.7171 223.912 98.5895 223.433 98.5895 222.909ZM101.403 228.159C100.681 228.159 100.001 228.023 99.3651 227.751C98.732 227.48 98.1735 227.103 97.6896 226.623C97.209 226.139 96.8312 225.58 96.5561 224.947C96.2843 224.314 96.1501 223.635 96.1534 222.909C96.1567 222.183 96.2943 221.504 96.5661 220.871C96.8411 220.238 97.219 219.681 97.6996 219.2C98.1802 218.716 98.737 218.339 99.37 218.067C100.003 217.795 100.681 217.659 101.403 217.659C102.129 217.659 102.809 217.795 103.442 218.067C104.078 218.339 104.635 218.716 105.112 219.2C105.593 219.681 105.969 220.238 106.241 220.871C106.513 221.504 106.65 222.183 106.653 222.909C106.657 223.635 106.522 224.314 106.251 224.947C105.979 225.58 105.603 226.139 105.122 226.623C104.642 227.103 104.083 227.48 103.447 227.751C102.81 228.023 102.129 228.159 101.403 228.159ZM101.403 226.673C101.924 226.673 102.413 226.575 102.87 226.379C103.327 226.184 103.727 225.915 104.068 225.574C104.413 225.229 104.681 224.83 104.874 224.376C105.069 223.918 105.167 223.431 105.167 222.914C105.164 222.394 105.064 221.905 104.869 221.447C104.676 220.99 104.408 220.591 104.063 220.249C103.719 219.905 103.319 219.634 102.865 219.439C102.411 219.243 101.924 219.146 101.403 219.146C100.886 219.146 100.401 219.243 99.9467 219.439C99.4927 219.634 99.0933 219.905 98.7486 220.249C98.4039 220.594 98.1338 220.995 97.9382 221.452C97.7427 221.906 97.6432 222.394 97.6399 222.914C97.6399 223.428 97.736 223.913 97.9283 224.371C98.1238 224.825 98.3939 225.224 98.7386 225.569C99.0833 225.914 99.4827 226.184 99.9368 226.379C100.394 226.575 100.883 226.673 101.403 226.673ZM111.84 219.364V217.818H119.964V219.364H116.817V228H114.987V219.364H111.84ZM121.45 228V220.364H123.25V228H121.45ZM123.046 219.29H121.674L121.604 218.335C121.956 218.322 122.204 218.277 122.35 218.201C122.496 218.121 122.567 218.012 122.564 217.873C122.567 217.694 122.471 217.57 122.275 217.5C122.08 217.43 121.838 217.396 121.55 217.396L121.594 216.506C122.416 216.506 123.039 216.625 123.464 216.864C123.888 217.102 124.098 217.427 124.095 217.838C124.098 218.153 123.991 218.388 123.772 218.544C123.553 218.696 123.311 218.793 123.046 218.832V219.29ZM126.9 223.526V228H125.1V220.364H126.821V221.661H126.91C127.086 221.234 127.366 220.894 127.75 220.642C128.138 220.39 128.617 220.264 129.187 220.264C129.714 220.264 130.173 220.377 130.564 220.602C130.959 220.828 131.264 221.154 131.479 221.582C131.698 222.009 131.806 222.528 131.802 223.138V228H130.002V223.416C130.002 222.906 129.87 222.506 129.605 222.218C129.343 221.93 128.98 221.786 128.516 221.786C128.201 221.786 127.921 221.855 127.676 221.994C127.434 222.13 127.243 222.327 127.104 222.586C126.968 222.844 126.9 223.158 126.9 223.526ZM135.431 223.526V228H133.632V217.818H135.392V221.661H135.481C135.66 221.23 135.937 220.891 136.311 220.642C136.689 220.39 137.17 220.264 137.753 220.264C138.283 220.264 138.746 220.375 139.14 220.597C139.535 220.819 139.84 221.144 140.055 221.572C140.274 221.999 140.383 222.521 140.383 223.138V228H138.583V223.416C138.583 222.902 138.451 222.503 138.186 222.218C137.924 221.93 137.556 221.786 137.082 221.786C136.764 221.786 136.479 221.855 136.227 221.994C135.978 222.13 135.783 222.327 135.64 222.586C135.501 222.844 135.431 223.158 135.431 223.526ZM145.77 228V217.818H147.614V222.129H152.332V217.818H154.182V228H152.332V223.675H147.614V228H145.77ZM157.227 230.864C156.982 230.864 156.755 230.844 156.546 230.804C156.34 230.768 156.176 230.724 156.054 230.675L156.471 229.273C156.733 229.349 156.967 229.385 157.172 229.382C157.378 229.379 157.558 229.314 157.714 229.188C157.873 229.066 158.007 228.86 158.117 228.572L158.271 228.159L155.502 220.364H157.411L159.171 226.131H159.25L161.015 220.364H162.929L159.872 228.925C159.729 229.329 159.54 229.675 159.305 229.964C159.07 230.255 158.781 230.478 158.44 230.63C158.102 230.786 157.698 230.864 157.227 230.864ZM167.246 228.149C166.5 228.149 165.854 227.985 165.307 227.657C164.76 227.329 164.336 226.87 164.034 226.28C163.736 225.69 163.587 225 163.587 224.212C163.587 223.423 163.736 222.732 164.034 222.138C164.336 221.545 164.76 221.085 165.307 220.756C165.854 220.428 166.5 220.264 167.246 220.264C167.992 220.264 168.638 220.428 169.185 220.756C169.732 221.085 170.154 221.545 170.453 222.138C170.754 222.732 170.905 223.423 170.905 224.212C170.905 225 170.754 225.69 170.453 226.28C170.154 226.87 169.732 227.329 169.185 227.657C168.638 227.985 167.992 228.149 167.246 228.149ZM167.256 226.707C167.66 226.707 167.998 226.596 168.27 226.374C168.542 226.149 168.744 225.847 168.877 225.469C169.012 225.092 169.08 224.671 169.08 224.207C169.08 223.739 169.012 223.317 168.877 222.939C168.744 222.558 168.542 222.254 168.27 222.029C167.998 221.804 167.66 221.691 167.256 221.691C166.842 221.691 166.497 221.804 166.222 222.029C165.95 222.254 165.746 222.558 165.61 222.939C165.478 223.317 165.411 223.739 165.411 224.207C165.411 224.671 165.478 225.092 165.61 225.469C165.746 225.847 165.95 226.149 166.222 226.374C166.497 226.596 166.842 226.707 167.256 226.707ZM175.754 231.023C175.107 231.023 174.552 230.935 174.088 230.759C173.624 230.587 173.251 230.355 172.969 230.063C172.688 229.772 172.492 229.448 172.383 229.094L174.004 228.701C174.076 228.85 174.183 228.998 174.322 229.143C174.461 229.293 174.648 229.415 174.884 229.511C175.122 229.611 175.422 229.661 175.783 229.661C176.294 229.661 176.716 229.536 177.051 229.288C177.386 229.042 177.553 228.638 177.553 228.075V226.628H177.464C177.371 226.813 177.235 227.004 177.056 227.2C176.88 227.395 176.647 227.559 176.355 227.692C176.067 227.824 175.704 227.891 175.266 227.891C174.68 227.891 174.148 227.753 173.67 227.478C173.196 227.2 172.819 226.785 172.537 226.235C172.259 225.682 172.119 224.989 172.119 224.157C172.119 223.318 172.259 222.611 172.537 222.034C172.819 221.454 173.198 221.015 173.675 220.717C174.153 220.415 174.685 220.264 175.271 220.264C175.719 220.264 176.087 220.34 176.375 220.493C176.667 220.642 176.899 220.823 177.071 221.035C177.243 221.244 177.374 221.441 177.464 221.626H177.563V220.364H179.338V228.124C179.338 228.777 179.182 229.317 178.871 229.745C178.559 230.173 178.133 230.492 177.593 230.705C177.053 230.917 176.44 231.023 175.754 231.023ZM175.768 226.479C176.15 226.479 176.474 226.386 176.743 226.2C177.011 226.015 177.215 225.748 177.354 225.4C177.494 225.052 177.563 224.634 177.563 224.147C177.563 223.666 177.494 223.246 177.354 222.884C177.219 222.523 177.016 222.243 176.748 222.044C176.483 221.842 176.156 221.741 175.768 221.741C175.367 221.741 175.033 221.845 174.764 222.054C174.496 222.263 174.294 222.549 174.158 222.914C174.022 223.275 173.954 223.686 173.954 224.147C173.954 224.614 174.022 225.024 174.158 225.375C174.297 225.723 174.501 225.995 174.769 226.19C175.041 226.383 175.374 226.479 175.768 226.479ZM184.513 228.149C183.768 228.149 183.121 227.985 182.575 227.657C182.028 227.329 181.603 226.87 181.302 226.28C181.004 225.69 180.854 225 180.854 224.212C180.854 223.423 181.004 222.732 181.302 222.138C181.603 221.545 182.028 221.085 182.575 220.756C183.121 220.428 183.768 220.264 184.513 220.264C185.259 220.264 185.906 220.428 186.452 220.756C186.999 221.085 187.422 221.545 187.72 222.138C188.022 222.732 188.173 223.423 188.173 224.212C188.173 225 188.022 225.69 187.72 226.28C187.422 226.87 186.999 227.329 186.452 227.657C185.906 227.985 185.259 228.149 184.513 228.149ZM184.523 226.707C184.928 226.707 185.266 226.596 185.538 226.374C185.809 226.149 186.012 225.847 186.144 225.469C186.28 225.092 186.348 224.671 186.348 224.207C186.348 223.739 186.28 223.317 186.144 222.939C186.012 222.558 185.809 222.254 185.538 222.029C185.266 221.804 184.928 221.691 184.523 221.691C184.109 221.691 183.764 221.804 183.489 222.029C183.218 222.254 183.014 222.558 182.878 222.939C182.745 223.317 182.679 223.739 182.679 224.207C182.679 224.671 182.745 225.092 182.878 225.469C183.014 225.847 183.218 226.149 183.489 226.374C183.764 226.596 184.109 226.707 184.523 226.707ZM193.153 228V226.668L196.688 223.202C197.026 222.861 197.307 222.558 197.533 222.293C197.758 222.027 197.927 221.771 198.04 221.522C198.153 221.273 198.209 221.008 198.209 220.727C198.209 220.405 198.136 220.13 197.99 219.901C197.844 219.669 197.644 219.49 197.389 219.364C197.133 219.238 196.843 219.175 196.519 219.175C196.184 219.175 195.891 219.245 195.639 219.384C195.387 219.52 195.191 219.714 195.052 219.966C194.916 220.218 194.848 220.518 194.848 220.866H193.093C193.093 220.219 193.241 219.658 193.536 219.18C193.831 218.703 194.237 218.334 194.754 218.072C195.274 217.81 195.871 217.679 196.544 217.679C197.226 217.679 197.826 217.807 198.343 218.062C198.86 218.317 199.261 218.667 199.546 219.111C199.835 219.555 199.979 220.062 199.979 220.632C199.979 221.013 199.906 221.388 199.76 221.756C199.614 222.124 199.357 222.531 198.99 222.979C198.625 223.426 198.113 223.968 197.453 224.604L195.698 226.389V226.459H200.133V228H193.153ZM205.612 228.194C204.793 228.194 204.09 227.987 203.504 227.572C202.92 227.155 202.471 226.553 202.156 225.768C201.845 224.979 201.689 224.029 201.689 222.919C201.692 221.809 201.85 220.864 202.161 220.085C202.476 219.303 202.925 218.706 203.509 218.295C204.095 217.884 204.796 217.679 205.612 217.679C206.427 217.679 207.128 217.884 207.715 218.295C208.301 218.706 208.75 219.303 209.062 220.085C209.377 220.867 209.534 221.812 209.534 222.919C209.534 224.033 209.377 224.984 209.062 225.773C208.75 226.558 208.301 227.158 207.715 227.572C207.131 227.987 206.43 228.194 205.612 228.194ZM205.612 226.638C206.248 226.638 206.75 226.325 207.118 225.698C207.489 225.068 207.675 224.142 207.675 222.919C207.675 222.11 207.59 221.431 207.421 220.881C207.252 220.33 207.014 219.916 206.705 219.638C206.397 219.356 206.033 219.215 205.612 219.215C204.979 219.215 204.478 219.53 204.11 220.16C203.742 220.786 203.557 221.706 203.553 222.919C203.55 223.731 203.631 224.414 203.797 224.967C203.966 225.521 204.205 225.938 204.513 226.22C204.821 226.499 205.187 226.638 205.612 226.638ZM214.95 228.194C214.131 228.194 213.428 227.987 212.842 227.572C212.258 227.155 211.809 226.553 211.494 225.768C211.183 224.979 211.027 224.029 211.027 222.919C211.03 221.809 211.188 220.864 211.499 220.085C211.814 219.303 212.263 218.706 212.847 218.295C213.433 217.884 214.134 217.679 214.95 217.679C215.765 217.679 216.466 217.884 217.053 218.295C217.639 218.706 218.088 219.303 218.4 220.085C218.715 220.867 218.872 221.812 218.872 222.919C218.872 224.033 218.715 224.984 218.4 225.773C218.088 226.558 217.639 227.158 217.053 227.572C216.469 227.987 215.768 228.194 214.95 228.194ZM214.95 226.638C215.586 226.638 216.088 226.325 216.456 225.698C216.827 225.068 217.013 224.142 217.013 222.919C217.013 222.11 216.928 221.431 216.759 220.881C216.59 220.33 216.352 219.916 216.043 219.638C215.735 219.356 215.371 219.215 214.95 219.215C214.317 219.215 213.816 219.53 213.448 220.16C213.08 220.786 212.895 221.706 212.891 222.919C212.888 223.731 212.969 224.414 213.135 224.967C213.304 225.521 213.543 225.938 213.851 226.22C214.159 226.499 214.525 226.638 214.95 226.638ZM220.623 228L224.954 219.429V219.359H219.927V217.818H226.863V219.394L222.537 228H220.623Z" fill="#34414D"/>
<defs>
<clipPath id="clip0_291_398">
<rect width="307" height="230" fill="white"/>
</clipPath>
</defs>
</svg>
