<svg width="40" height="40" viewBox="0 0 40 40" fill="none" xmlns="http://www.w3.org/2000/svg">
<g id="house">
<mask id="mask0_650_881" style="mask-type:alpha" maskUnits="userSpaceOnUse" x="0" y="0" width="40" height="40">
<rect id="Bounding box" width="40" height="40" fill="#D9D9D9"/>
</mask>
<g mask="url(#mask0_650_881)">
<path id="house_2" d="M8.36127 29.0709V14.6698L3.33335 18.1261L1.66669 16.1474L20 3.52441L27.1667 8.45826V5.02715H31.6113V11.5141L38.3334 16.1474L36.6388 18.1261L31.6113 14.6446V29.0709H21.9446V20.0545H18.0554V29.0709H8.36127ZM11.1388 26.5662H15.2779V17.5498H24.7221V26.5662H28.8334V12.7538L20 6.66775L11.1388 12.7538V26.5662ZM16.5279 13.8057H23.4721C23.4721 12.9875 23.1249 12.3133 22.4304 11.7831C21.736 11.2531 20.9259 10.9881 20 10.9881C19.0742 10.9881 18.264 11.2518 17.5696 11.7793C16.8752 12.3068 16.5279 12.9822 16.5279 13.8057Z" fill="white"/>
</g>
</g>
</svg>
