<svg width="40" height="41" viewBox="0 0 40 41" fill="none" xmlns="http://www.w3.org/2000/svg">
<g id="location_city">
<mask id="mask0_493_535" style="mask-type:alpha" maskUnits="userSpaceOnUse" x="0" y="0" width="40" height="41">
<rect id="Bounding box" y="0.5" width="40" height="40" fill="#D9D9D9"/>
</mask>
<g mask="url(#mask0_493_535)">
<path id="location_city_2" d="M4.5 36V9.53668H16.0539V5.36826L21.5 0L26.9461 5.36826V17.3051H38.5V36H4.5ZM7.64831 32.8419H12.2444V28.2316H7.64831V32.8419ZM7.64831 25.0735H12.2444V20.4632H7.64831V25.0735ZM7.64831 17.3051H12.2444V12.6947H7.64831V17.3051ZM19.2017 32.8419H23.7983V28.2316H19.2017V32.8419ZM19.2017 25.0735H23.7983V20.4632H19.2017V25.0735ZM19.2017 17.3051H23.7983V12.6947H19.2017V17.3051ZM19.2017 9.53668H23.7983V4.92632H19.2017V9.53668ZM30.7556 32.8419H35.3517V28.2316H30.7556V32.8419ZM30.7556 25.0735H35.3517V20.4632H30.7556V25.0735Z" fill="#029FC8"/>
</g>
</g>
</svg>
