<svg width="50" height="49" viewBox="0 0 50 49" fill="none" xmlns="http://www.w3.org/2000/svg">
<g id="Group">
<path id="Vector" d="M14.8541 42.5174C13.5446 41.9928 12.4845 41.4567 11.8359 41.0918C11.4867 40.8979 11.2124 40.7268 11.0253 40.6128C10.938 40.5558 10.8632 40.5102 10.8008 40.4759L10.7634 40.4531C10.1897 40.0539 9.39155 40.1566 8.94257 40.6698C8.50606 41.1716 8.59332 41.9243 9.1296 42.3349C14.031 46.0529 18.5083 48.1515 22.8111 48.7446C23.6966 48.87 24.5696 48.927 25.4426 48.927C26.6897 48.927 27.9244 48.8016 29.1966 48.5621C30.8927 48.2427 32.6138 47.7067 34.4471 46.9197L35.4823 48.2884C35.7566 48.6533 36.2305 48.8472 36.7045 48.8016C37.1909 48.756 37.6025 48.4594 37.7771 48.0488L40.6206 41.4339C40.7702 41.0918 40.7328 40.6926 40.5208 40.3733C40.3088 40.0539 39.9471 39.8372 39.548 39.803L31.7906 39.0046C31.2917 38.9476 30.8178 39.1644 30.5434 39.5407C30.2691 39.9171 30.2691 40.4189 30.5186 40.8067L31.3292 42.0384C29.2339 43.1903 26.9766 43.886 24.607 44.0913C20.7034 44.4449 17.1364 43.4298 14.8416 42.5174H14.8541ZM33.0004 42.9508C33.387 42.7227 33.4993 42.2437 33.2623 41.8902L32.4516 40.6584L38.8371 41.3199L36.48 46.8057L35.4698 45.4713C35.2203 45.1519 34.7589 45.0379 34.3723 45.209C32.4142 46.0872 30.6183 46.6802 28.8598 47.011C26.8893 47.3874 25.006 47.4443 23.0854 47.182C20.5162 46.8285 17.8723 45.8819 15.0661 44.3194C17.5355 45.1976 21.0151 46.0188 24.794 45.6766C27.7124 45.4143 30.4687 44.5019 33.0004 42.9622V42.9508Z" fill="#029FC8"/>
<path id="Vector_2" d="M37.4895 7.82365C37.8387 8.01753 38.1131 8.18859 38.3002 8.30264C38.3875 8.35966 38.4623 8.40528 38.5122 8.43949L38.5621 8.47374C39.1358 8.87292 39.9339 8.77027 40.3829 8.25704C40.8319 7.74382 40.7446 7.01387 40.1959 6.59188C35.2945 2.87385 30.8171 0.77533 26.5144 0.182269C24.3817 -0.114262 22.299 -0.0458623 20.1289 0.364719C18.4328 0.684059 16.7116 1.2201 14.8783 2.00704L13.8432 0.638428C13.5688 0.273467 13.0949 0.0796376 12.6209 0.125258C12.1345 0.170878 11.723 0.467378 11.5484 0.877958L8.70489 7.49286C8.55523 7.83501 8.59259 8.23417 8.80461 8.55352C9.01663 8.87286 9.37834 9.08955 9.77743 9.12377L17.5348 9.92213C17.5348 9.92213 17.6345 9.92213 17.6844 9.92213C18.1334 9.92213 18.545 9.71686 18.7819 9.37471C19.0563 8.99835 19.0564 8.49654 18.8069 8.10877L17.9962 6.87701C20.0915 5.7251 22.3489 5.02941 24.7185 4.82412C28.6221 4.47056 32.189 5.48562 34.4838 6.39802C35.7934 6.92265 36.8534 7.45869 37.5019 7.82365H37.4895ZM24.5315 3.25022C21.6131 3.51254 18.8568 4.42494 16.3251 5.96462C15.9384 6.20413 15.8262 6.67173 16.0631 7.02528L16.8738 8.25704L10.4883 7.59553L12.8454 2.10972L13.8557 3.44409C14.1051 3.76343 14.5665 3.87746 14.9531 3.70638C16.9112 2.82819 18.7072 2.23518 20.4657 1.90444C22.4362 1.52807 24.3194 1.47102 26.2401 1.73334C28.8092 2.08689 31.4532 3.03352 34.2593 4.59601C31.79 3.71782 28.3104 2.89666 24.5315 3.23881V3.25022Z" fill="#029FC8"/>
<path id="Vector_3" d="M9.10431 26.4708C11.0249 26.4708 12.8209 25.7865 14.1803 24.5433C15.5397 23.3002 16.288 21.6464 16.288 19.89C16.288 16.2632 13.0578 13.3208 9.10431 13.3208C7.18367 13.3208 5.37533 14.005 4.01592 15.2482C2.65651 16.4913 1.9082 18.1451 1.9082 19.9015C1.9082 23.5282 5.13838 26.4708 9.0919 26.4708H9.10431ZM5.36281 16.4799C6.36054 15.5675 7.69501 15.0657 9.10431 15.0657C12.0227 15.0657 14.3924 17.2327 14.3924 19.9015C14.3924 21.1902 13.8435 22.3992 12.8458 23.323C11.8481 24.2354 10.5261 24.7372 9.11679 24.7372C6.19842 24.7372 3.82881 22.5702 3.82881 19.9015C3.82881 18.6127 4.37756 17.3923 5.37529 16.4799H5.36281Z" fill="#029FC8"/>
<path id="Vector_4" d="M18.2087 35.686C18.2087 35.4465 18.3708 29.9037 14.5545 26.6989C14.2178 26.4137 13.6939 26.3909 13.3322 26.6532C13.2948 26.6874 9.0669 29.5843 5.13832 26.6532C4.77665 26.3909 4.26533 26.3909 3.91612 26.676C3.76646 26.8015 0.0873017 29.7896 0 35.6404C0 35.8685 0.099813 36.0966 0.274416 36.2677C0.44902 36.4388 0.698426 36.53 0.94786 36.53H17.2608C17.7722 36.53 18.1962 36.1536 18.2087 35.686ZM1.94558 34.785C2.23243 31.4661 3.81639 29.379 4.65199 28.478C8.0817 30.5652 11.7608 29.5729 13.7937 28.4552C15.7268 30.4625 16.1758 33.3594 16.288 34.7736H1.95806L1.94558 34.785Z" fill="#029FC8"/>
<path id="Vector_5" d="M35.8313 15.2482C34.4719 16.4913 33.7236 18.1451 33.7236 19.9015C33.7236 23.5282 36.9537 26.4708 40.9073 26.4708C42.8279 26.4708 44.6238 25.7865 45.9832 24.5433C47.3427 23.3002 48.091 21.6464 48.091 19.89C48.091 16.2632 44.8608 13.3208 40.8948 13.3208C38.9742 13.3208 37.1658 14.005 35.8064 15.2482H35.8313ZM46.1953 19.89C46.1953 21.1788 45.6465 22.3877 44.6488 23.3115C43.651 24.2239 42.329 24.7258 40.9197 24.7258C38.0014 24.7258 35.6318 22.5588 35.6318 19.89C35.6318 18.6013 36.1805 17.3809 37.1782 16.4685C38.176 15.5561 39.5104 15.0543 40.9197 15.0543C43.8381 15.0543 46.2077 17.2213 46.2077 19.89H46.1953Z" fill="#029FC8"/>
<path id="Vector_6" d="M46.357 26.6989C46.0203 26.4137 45.4964 26.3909 45.1347 26.6532C45.0973 26.6874 40.8694 29.5843 36.9408 26.6532C36.5792 26.3909 36.0679 26.3909 35.7186 26.676C35.569 26.8015 31.8898 29.7896 31.79 35.6404C31.79 35.8685 31.8899 36.0966 32.0645 36.2677C32.2391 36.4388 32.4885 36.53 32.7379 36.53H49.0509C49.5622 36.53 49.9863 36.1536 49.9987 35.686C49.9987 35.4465 50.1609 29.9037 46.3445 26.6989H46.357ZM33.7481 34.785C34.035 31.4661 35.6189 29.379 36.4545 28.478C39.8842 30.5652 43.5633 29.5729 45.5962 28.4552C47.5293 30.4625 47.9783 33.3594 48.0905 34.7736H33.7606L33.7481 34.785Z" fill="#029FC8"/>
</g>
</svg>
