<svg width="149" height="188" viewBox="0 0 149 188" fill="none" xmlns="http://www.w3.org/2000/svg">
<g clip-path="url(#clip0_291_392)">
<path d="M124.379 142.905C125.636 141.1 126.128 138.909 126.157 136.739C126.183 134.921 126.119 131.814 125.068 130.249C124.618 129.577 123.866 129.359 123.496 128.574C123.142 127.831 123.248 127.016 123.306 126.219C123.428 124.531 123.916 122.646 122.138 121.63C120.233 120.543 121.002 122.936 120.779 124.128C120.557 125.32 119.884 127.608 118.45 125.816C117.954 125.199 118.248 124.497 117.962 123.838C117.664 123.146 117.067 123.028 116.621 122.491C115.658 121.328 115.978 119.624 115.662 118.205C115.494 117.445 114.935 115.745 113.863 116.253C112.971 116.677 113.181 118.688 112.189 119.271C111.714 119.548 110.49 119.452 110.011 119.175C107.698 117.827 108.506 114.75 108.771 112.622C108.918 111.434 107.799 106.56 105.785 107.79C103.885 108.948 107.076 111.698 106.605 113.167C105.697 115.988 102.505 113.411 101.631 112.093C100.668 110.636 101.16 108.789 100.306 107.194C99.4863 105.653 99.192 103.965 98.4477 102.37C98.124 101.673 98.0567 100.918 97.1737 100.741C96.1645 100.54 95.7903 101.228 95.8155 102.064C95.8408 102.954 96.6187 103.902 96.8079 104.792C97.0517 105.947 96.8079 106.862 96.2612 107.903C93.915 108.772 93.8393 105.225 92.7881 104.125C91.2365 102.505 88.8902 102.547 86.9981 102.979C86.8635 103.008 91.3374 112.42 91.7243 113.276C93.3894 116.966 97.0223 118.742 99.007 122.474C100.58 125.429 102.245 124.682 104.532 126.777C105.957 128.087 106.281 130.438 107.248 132.071C108.829 134.732 111.134 136.965 112.475 139.786C113.366 141.667 113.808 144.996 115.969 145.911C118.193 146.847 123.092 144.757 124.383 142.91L124.379 142.905Z" fill="#008DD1"/>
<path d="M93.209 142.754C81.629 139.568 71.2936 133.393 62.1608 125.711C53.9447 118.801 44.6563 110.174 39.9301 100.334C37.7646 95.83 36.5579 91.4516 35.4898 86.5484C34.4555 81.7837 33.9971 76.5741 34.8801 71.7423C35.5487 68.0943 36.8858 62.3473 40.1277 60.0427C48.7181 59.2409 55.1935 66.4739 60.4915 72.2628C72.6434 85.5535 82.5372 100.788 95.5511 113.314C101.98 119.502 105.63 121.996 112.017 126.592C115.196 128.88 120.279 131.785 121.457 135.84C125.056 148.241 98.0782 144.089 93.2132 142.75L93.209 142.754Z" fill="#ED1B2F" stroke="#19100E" stroke-width="3" stroke-linecap="round" stroke-linejoin="round"/>
<path d="M108.225 139.749C102.111 139.749 96.0096 138.59 94.4748 138.166C84.5011 135.421 74.6619 130.01 65.2305 122.071C57.7502 115.779 48.6006 107.387 44.2276 98.2776C42.121 93.8991 41.0235 89.5669 40.1489 85.5411C39.0893 80.6589 38.8959 76.3056 39.5729 72.6031C40.4054 68.0525 41.3978 65.8402 42.1252 64.7739C47.5704 65.1937 52.4353 70.5125 56.7453 75.231L56.9723 75.4786C61.955 80.9275 66.677 86.8718 71.2434 92.623C77.7398 100.801 84.4548 109.251 92.2421 116.748C97.3173 121.639 102.704 125.766 109.229 130.459C109.742 130.828 110.302 131.214 110.89 131.617C113.064 133.112 116.357 135.37 116.878 137.171C117.067 137.826 117.008 138.095 117.008 138.095C116.996 138.095 115.499 139.749 108.229 139.749H108.225Z" fill="#ED1C29" stroke="white" stroke-width="5" stroke-linecap="round" stroke-linejoin="round"/>
<path d="M47.0738 125.975C45.8838 125.702 44.4668 124.619 43.4493 124.258C41.9439 123.725 40.5143 123.15 38.9501 122.806C36.8435 122.34 33.3872 122.067 34.0936 125.27C34.5477 127.331 39.2192 128.654 40.8255 129.695C42.6377 130.866 43.4997 133.666 45.3961 134.501C47.0149 135.211 48.1544 134.174 49.748 135.303C51.0683 136.239 50.5427 137.129 52.2835 137.658C53.2086 137.939 54.9115 137.528 55.908 137.507C57.6867 137.473 58.0104 137.536 59.6461 138.128C61.5046 138.808 61.6392 138.72 63.7163 138.901C65.6085 139.064 66.7943 140.236 68.5981 140.618C70.9023 141.105 71.9367 140.907 74.0055 141.919C74.5689 142.196 74.5647 143.166 75.3047 143.338C75.9144 143.481 76.5704 142.515 76.9867 142.628C78.8284 143.132 78.0757 143.447 79.7156 144.723C82.7977 147.12 85.6864 145.945 89.0796 145.387C93.5115 144.656 95.7316 149.211 100.441 149.299C103.052 149.349 105.853 147.242 108.241 147.536C110.095 147.767 109.948 149.16 112.092 148.703C114.662 148.153 121.137 144.396 117.723 141.336C117.298 140.958 117.071 141.142 116.76 140.572C116.566 140.223 116.848 139.816 116.638 139.417C116.625 139.396 116.613 139.371 116.596 139.35C116.394 139.048 115.212 138.187 114.847 137.897C114.119 137.327 113.32 137.054 112.551 137.528C111.807 137.986 111.596 138.989 110.747 139.438C109.797 139.946 108.943 139.77 107.955 139.556C106.361 139.207 106.323 139.161 106.26 137.658C106.218 136.525 105.676 134.913 104.494 134.375C103.031 133.708 100.777 134.93 101.602 136.407C102.194 137.465 102.964 137.792 102.068 139.098C99.9154 142.238 96.4296 137.52 94.3735 136.579C92.1491 135.563 92.8892 132.889 90.9045 131.357C90.3831 130.954 89.2016 129.77 88.4657 129.938C87.2506 130.215 87.7509 131.609 88.0705 132.36C88.676 133.771 88.5414 133.876 88.3774 135.307C88.2429 136.5 89.437 137.419 89.2773 138.477C88.8694 141.151 85.6611 139.396 84.9001 138.053C84.3366 137.058 83.1088 132.537 81.5194 133.741C80.8256 134.27 81.4774 135.622 80.3042 135.929C79.0302 136.264 78.4415 134.589 77.9748 133.771C77.075 132.188 75.8388 129.548 73.9382 129.195C71.9998 128.83 71.697 131.03 70.0782 130.975C68.6948 130.929 66.5966 128.834 65.7641 127.831C64.9021 126.794 64.5783 125.245 63.6785 124.376C62.0092 122.764 61.9629 124.275 61.6854 125.417C61.1094 127.793 60.4282 124.796 60.3105 124.069C60.0287 122.315 59.0658 120.308 57.447 119.448C56.1309 118.747 53.5408 118.809 53.3053 120.703C52.9563 123.562 57.2241 125.77 56.1183 129.002C54.6088 133.397 51.0894 126.731 49.9162 126.093C48.9996 125.598 48.6464 125.938 47.7297 126.026C47.5195 126.047 47.2924 126.026 47.0612 125.971L47.0738 125.975Z" fill="#008DD1"/>
<path d="M44.513 136.248C42.4821 135.463 40.5816 134.426 38.5128 133.649C35.3382 132.457 32.7144 131.214 32.4285 127.47C32.1636 124.028 34.5351 123.28 37.2514 125.249C39.3369 126.76 41.0945 128.444 42.8942 130.257C44.8074 132.184 48.9743 133.914 51.6191 134.602C53.4861 135.085 55.4076 134.602 57.2956 134.879C59.07 135.135 60.6552 136.168 62.4128 135.211C63.9938 134.35 64.3092 132.948 66.3191 133.284C67.9463 133.553 69.6241 135.509 70.772 136.579C71.5835 137.331 72.3025 138.59 73.3705 138.993C74.5479 139.434 75.7126 138.708 76.8689 139.174C78.0042 139.631 78.7779 141.117 79.9258 141.722C81.204 142.393 83.2265 143.145 84.6057 143.598C85.5434 143.909 88.6339 144.656 89.5463 144.056C90.8204 143.212 90.2275 141.042 90.3242 139.631C94.9495 138.418 94.9033 144.001 98.9903 144.421C101.059 144.635 102.766 144.228 104.885 144.669C107.745 145.261 109.158 144.694 111.87 143.85C115.225 142.809 115.494 145.307 118.631 145.513C121.612 145.706 122.117 142.217 123.059 140.16C124.661 136.655 124.804 135.127 124.076 131.286C123.769 129.657 123.454 127.839 125.829 129.073C127.957 130.182 128.172 133.977 128.268 135.971C128.39 138.477 129.025 140.32 129.614 142.725C130.383 145.89 128.815 148.993 126.002 150.416C123.08 151.898 119.388 154.08 116.205 154.891C114.245 155.39 114.073 153.913 112.315 153.677C111.033 153.505 109.679 154.563 108.388 154.605C106.193 154.681 102.985 153.224 100.84 152.594C98.3806 151.868 96.6693 150.655 94.0833 150.013C92.5191 149.626 91.1021 148.485 89.5253 148.279C88.1209 148.094 86.6114 148.762 85.1776 148.745C81.6161 148.695 78.4793 146.789 74.9725 146.533C71.3816 146.272 68.8672 145.273 65.5706 143.728C62.6945 142.381 59.7596 141.995 57.0265 140.399C53.8477 138.544 51.1188 137.834 47.5279 137.138C46.4683 136.932 45.4759 136.613 44.5088 136.239L44.513 136.248Z" fill="#ABE1FA"/>
<path d="M131.792 128.251C132.414 125.493 136.442 127.004 135.383 129.649C134.445 131.991 131.241 130.711 131.792 128.251Z" fill="#ABE1FA"/>
<path d="M118.005 101.695C122.596 100.637 122.882 108.017 119.232 108.134C115.751 108.248 114.288 102.551 118.005 101.695Z" fill="#ABE1FA"/>
<path d="M105.171 96.548C109.233 95.255 109.422 102.509 105.394 101.497C103.018 100.901 102.833 97.291 105.171 96.548Z" fill="#ABE1FA"/>
<path d="M76.7849 118.083C76.6125 122.214 73.152 128.032 80.2497 126.941C83.9331 126.374 89.7105 122.995 89.517 118.688C89.3993 116.123 87.3852 114.662 84.917 114.72" fill="#FFDB00"/>
<path d="M76.7849 118.083C76.6125 122.214 73.152 128.032 80.2497 126.941C83.9331 126.374 89.7105 122.995 89.517 118.688C89.3993 116.123 87.3852 114.662 84.917 114.72" stroke="#19100E" stroke-width="3" stroke-linecap="round" stroke-linejoin="round"/>
<path d="M97.292 101.292C94.4832 104.096 86.8767 108.399 82.9789 108.625C84.5514 110.548 87.1542 114.679 90.1396 114.154C86.4226 118.717 78.2274 125.719 71.8362 122.563C73.2952 120.518 71.4493 117.202 71.1003 115.019C70.6588 112.24 70.9279 109.457 71.4199 106.665C72.4501 100.813 75.1243 94.2727 77.9499 89.0421C80.5569 84.2271 88.6595 75.4072 94.5462 79.6471C101.358 84.5503 104.133 94.4616 97.2878 101.296L97.292 101.292Z" fill="white" stroke="#19100E" stroke-width="3" stroke-linecap="round" stroke-linejoin="round"/>
<path d="M114.065 62.0831C118.425 53.1499 119.842 43.5661 118.505 35.8545C123.639 44.1244 125.91 57.6753 120.948 67.8385C115.654 78.6775 103.956 82.6026 94.668 80.8101C101.803 78.8287 109.187 72.0742 114.065 62.0831Z" fill="#ED1B2F" stroke="#19100E" stroke-width="3" stroke-linecap="round" stroke-linejoin="round"/>
<path d="M138.339 52.7178C135.745 86.7587 103.398 84.9914 96.6826 80.9992C114.09 81.9731 132.171 67.0285 138.339 52.7178Z" fill="#008DD1" stroke="#19100E" stroke-width="3" stroke-linecap="round" stroke-linejoin="round"/>
<path d="M144.949 71.8267C132.709 93.1773 103.73 92.09 93.8398 82.1074C101.358 85.5287 132.301 84.454 144.949 71.8267Z" fill="#ED1B2F" stroke="#19100E" stroke-width="3" stroke-linecap="round" stroke-linejoin="round"/>
<path d="M90.9217 71.7507C92.8223 74.7312 94.5505 78.778 98.2549 77.5774C99.5836 103.579 71.2896 102.186 65.8948 101.527C65.3398 101.459 62.224 88.2401 61.9591 87.0101C60.9416 82.2875 60.9878 77.506 63.6999 73.3501C66.6601 68.8163 76.4699 60.24 81.297 57.7296C86.2544 55.1563 89.0338 68.7911 90.9217 71.7465V71.7507Z" fill="white" stroke="#19100E" stroke-width="3" stroke-linecap="round" stroke-linejoin="round"/>
<path d="M76.3692 95.83C85.2497 93.5463 92.1245 86.8213 96.1948 77.6908C94.6811 77.334 93.5584 75.9654 92.5534 74.4038C88.4327 82.9508 81.7682 89.2141 73.2577 91.4054C69.9106 92.266 66.509 92.4339 63.1367 91.9889C63.4605 93.3071 63.8137 94.726 64.1627 96.0609C68.2077 96.8963 72.3242 96.8669 76.365 95.8258L76.3692 95.83Z" fill="#17479E"/>
<path d="M76.3692 95.83C85.2497 93.5463 92.1245 86.8213 96.1948 77.6908C94.6811 77.334 93.5584 75.9654 92.5534 74.4038C88.4327 82.9508 81.7682 89.2141 73.2577 91.4054C69.9106 92.266 66.509 92.4339 63.1367 91.9889C63.4605 93.3071 63.8137 94.726 64.1627 96.0609C68.2077 96.8963 72.3242 96.8669 76.365 95.8258L76.3692 95.83Z" stroke="#19100E" stroke-width="2" stroke-linecap="round" stroke-linejoin="round"/>
<path d="M70.7643 86.8044C79.2538 84.6215 85.91 78.375 90.0349 69.8532C89.4041 68.258 88.6809 66.096 87.8358 64.0181C83.7529 73.0142 76.9201 79.626 68.1279 81.8886C65.8909 82.4638 63.633 82.7282 61.375 82.7114C61.4423 84.1387 61.6525 85.5744 61.9595 87.0101C61.9805 87.1109 62.0225 87.2956 62.0772 87.539C64.9743 87.7657 67.8882 87.539 70.7601 86.8002L70.7643 86.8044Z" fill="#17479E"/>
<path d="M70.7643 86.8044C79.2538 84.6215 85.91 78.375 90.0349 69.8532C89.4041 68.258 88.6809 66.096 87.8358 64.0181C83.7529 73.0142 76.9201 79.626 68.1279 81.8886C65.8909 82.4638 63.633 82.7282 61.375 82.7114C61.4423 84.1387 61.6525 85.5744 61.9595 87.0101C61.9805 87.1109 62.0225 87.2956 62.0772 87.539C64.9743 87.7657 67.8882 87.539 70.7601 86.8002L70.7643 86.8044Z" stroke="#19100E" stroke-width="4" stroke-linecap="round" stroke-linejoin="round"/>
<path d="M81.0783 52.6501C73.5475 50.4504 67.7449 51.3781 58.877 55.0429C60.4159 59.5179 61.3998 63.6697 60.1384 68.3084C60.4495 67.1707 69.9734 73.1024 70.7891 73.7405C74.8089 76.8973 76.3605 78.6479 80.8091 81.0449C80.477 80.8644 84.9172 74.8529 85.3167 74.3702C86.5529 72.8841 87.4443 71.3561 88.5922 69.8574C90.1101 67.876 92.2546 66.4025 93.8482 64.4673C96.5056 61.2475 99.4742 57.0076 98.5407 52.5913C93.7136 57.398 86.4898 54.2285 81.074 52.6459L81.0783 52.6501Z" fill="white" stroke="#19100E" stroke-width="3" stroke-linecap="round" stroke-linejoin="round"/>
<path d="M78.4666 75.6841C78.5759 72.5735 84.1977 68.4973 86.4262 66.8181C88.8062 65.0256 93.1119 61.6211 95.0755 57.7044C91.0095 60.2232 88.8356 59.0351 85.7451 58.0067C82.6924 56.995 79.6313 57.1167 76.5029 56.7935" stroke="#333376" stroke-width="2" stroke-linecap="round" stroke-linejoin="round"/>
<path d="M65.8607 23.1135C67.4795 20.6913 68.8755 18.3867 69.9645 15.6664C71.6591 11.4391 72.088 4.21029 74.8337 0.839355C76.8099 3.34132 80.035 8.02201 83.4703 8.55094C81.6539 10.3351 80.9264 13.2652 79.6608 15.4062C78.2312 17.8284 76.7048 19.8769 74.7075 21.8584C70.5742 25.9471 66.2097 29.7505 62.089 33.8392C62.1394 33.7889 58.0902 30.1996 58.1491 29.6581C58.3425 27.8152 64.6245 24.9606 65.8607 23.1135Z" fill="#17479E"/>
<path d="M65.8607 23.1135C67.4795 20.6913 68.8755 18.3867 69.9645 15.6664C71.6591 11.4391 72.088 4.21029 74.8337 0.839355C76.8099 3.34132 80.035 8.02201 83.4703 8.55094C81.6539 10.3351 80.9264 13.2652 79.6608 15.4062C78.2312 17.8284 76.7048 19.8769 74.7075 21.8584C70.5742 25.9471 66.2097 29.7505 62.089 33.8392C62.1394 33.7889 58.0902 30.1996 58.1491 29.6581C58.3425 27.8152 64.6245 24.9606 65.8607 23.1135Z" stroke="#19100E" stroke-width="3" stroke-linecap="round" stroke-linejoin="round"/>
<path d="M41.8222 88.8152C47.7299 86.6659 53.3728 79.7225 52.33 73.0772C51.4638 67.5611 45.5308 64.6688 40.8088 63.4136C34.4806 61.726 19.335 53.2798 8.7473 57.0579C4.71911 58.4936 1.67905 65.1389 12.4896 72.2964C16.0258 74.6346 21.3953 75.6505 24.9694 75.9948C14.9578 76.3978 17.6615 83.2824 22.2741 84.3696C26.0122 85.247 29.7755 84.8524 32.3824 83.7063C29.191 87.7909 33.9004 91.7034 41.8264 88.8194L41.8222 88.8152Z" fill="#FFDB00" stroke="#19100E" stroke-width="3" stroke-linecap="round" stroke-linejoin="round"/>
<path d="M28.7245 62.6664C25.882 62.9686 23.8133 64.0517 23.2751 65.8064C22.2911 69.0304 26.8744 73.2871 33.5137 75.3105C34.1444 75.5036 34.7668 75.6674 35.3849 75.8059C33.1984 76.0284 30.5746 75.7639 27.8793 74.9411C21.6604 73.0479 17.4136 68.9087 18.3975 65.6931C19.2343 62.956 23.603 61.7764 28.7245 62.6622V62.6664Z" fill="#FAA427"/>
<path d="M32.5887 75.2603C31.0581 76.0327 30.1247 77.0822 30.1961 78.1778C30.3265 80.197 33.8038 81.6159 37.9624 81.3472C38.3576 81.3221 38.7403 81.2801 39.1187 81.2297C37.9372 81.8174 36.4108 82.2246 34.7205 82.3338C30.8227 82.5856 27.5597 81.1583 27.4336 79.1475C27.3243 77.4306 29.5234 75.848 32.5887 75.2603Z" fill="#FAA427"/>
<path d="M74.792 40.4676C80.2834 40.455 86.0146 37.6298 91.3084 35.4385C91.8676 39.3677 83.2688 48.0071 80.3802 50.7945" fill="#008DD1"/>
<path d="M74.792 40.4676C80.2834 40.455 86.0146 37.6298 91.3084 35.4385C91.8676 39.3677 83.2688 48.0071 80.3802 50.7945" stroke="#19100E" stroke-width="3" stroke-linecap="round" stroke-linejoin="round"/>
<path d="M65.6172 35.6023C68.2788 34.834 71.8403 34.133 74.8761 33.2052C78.8244 32.0004 82.5667 30.1995 86.3762 28.9863C84.4547 34.3261 79.2323 42.7765 74.1908 46.1055" fill="#E0333E"/>
<path d="M65.6172 35.6023C68.2788 34.834 71.8403 34.133 74.8761 33.2052C78.8244 32.0004 82.5667 30.1995 86.3762 28.9863C84.4547 34.3261 79.2323 42.7765 74.1908 46.1055" stroke="#19100E" stroke-width="3" stroke-linecap="round" stroke-linejoin="round"/>
<path d="M26.7392 58.8674C25.894 75.3064 38.8952 88.5467 55.7312 89.4073C72.5672 90.2678 86.8551 78.4297 87.7002 61.9906C88.5454 45.5473 75.704 29.1334 58.8722 28.2687C42.0362 27.4081 27.5843 42.4241 26.7392 58.8674Z" fill="#FFDB00" stroke="#19100E" stroke-width="3" stroke-linecap="round" stroke-linejoin="round"/>
<path d="M34.1024 69.232C34.0729 71.3309 34.8592 73.0982 35.8516 73.1822C36.8481 73.2662 37.6764 71.629 37.7059 69.53C37.7353 67.431 36.9532 65.6637 35.9567 65.5798C34.9643 65.4958 34.136 67.1288 34.1024 69.232Z" fill="#000100"/>
<path d="M70.4446 65.3449C70.9618 67.3892 70.3857 69.2951 69.1621 69.6057C67.9343 69.9164 66.5257 68.5059 66.0043 66.4657C65.4871 64.4213 66.0632 62.5155 67.2868 62.209C68.5104 61.8984 69.9232 63.3047 70.4404 65.3491L70.4446 65.3449Z" fill="#000100"/>
<path d="M33.7028 76.7422C33.7154 76.8598 33.7364 76.9857 33.7616 77.1158C34.1611 79.0049 36.3013 78.4382 37.218 77.9386C37.7394 77.6532 38.2566 77.204 38.2229 76.0874C38.1767 74.3746 36.8311 74.1731 36.1205 74.0766C35.3637 73.9716 33.4799 74.6685 33.7028 76.7422Z" fill="#FAA427"/>
<path d="M78.4127 72.3091C78.3748 72.4518 78.3244 72.5987 78.2529 72.7499C77.2269 74.9957 72.6773 74.6935 70.7431 74.2737C69.6415 74.0344 68.5735 73.5978 68.7374 72.3049C68.9897 70.3235 71.8952 69.8701 73.4342 69.6392C75.0699 69.3957 79.0644 69.8827 78.4127 72.3091Z" fill="#FAA427"/>
<path d="M97.792 48.4562C101.417 47.751 103.914 50.6434 103.632 53.7456" stroke="#19100E" stroke-width="3" stroke-linecap="round" stroke-linejoin="round"/>
<path d="M100.218 44.3466C103.8 43.6917 108.421 47.5832 107.404 52.2975" stroke="#19100E" stroke-width="3" stroke-linecap="round" stroke-linejoin="round"/>
<path d="M55.7274 83.0097C54.3146 82.2373 48.2303 77.3845 46.7334 76.8178C49.1301 76.3602 51.3461 75.6172 53.3686 74.2445C55.0168 73.1194 57.5649 71.1212 58.7002 69.2363C60.5209 72.4142 61.1306 79.1099 59.8313 81.8931C59.2384 83.1609 57.5019 83.9752 55.7274 83.0139V83.0097Z" fill="#ED1C29"/>
<path d="M79.1737 25.5524C78.1098 21.1068 64.4148 19.7635 48.588 22.5551C32.757 25.3467 20.7859 31.2154 21.8455 35.6652C22.9093 40.1108 36.6043 41.4542 52.4312 38.6626C68.2622 35.8709 80.2333 30.0022 79.1737 25.5524Z" fill="white" stroke="#19100E" stroke-width="3" stroke-linecap="round" stroke-linejoin="round"/>
<path d="M73.371 31.0939C75.1202 39.9515 66.7737 49.0568 54.727 51.4244C42.6802 53.7963 31.4955 48.5363 29.7463 39.6786C27.9971 30.821 36.3436 21.7157 48.3903 19.3439C60.4371 16.9721 71.6218 22.2321 73.371 31.0897V31.0939Z" fill="white" stroke="#19100E" stroke-width="3" stroke-linecap="round" stroke-linejoin="round"/>
<path d="M79.2324 26.1152C79.224 30.4853 67.6062 35.9846 52.4353 38.6586C37.2896 41.3285 24.1076 40.2119 22.0641 36.2196H22.0557L27.9634 48.8806C27.9634 48.8806 33.438 53.3472 50.6777 51.9031C67.9173 50.459 74.9351 43.9942 79.0768 40.4344C79.8884 33.6463 79.3207 27.0388 79.2324 26.1194V26.1152Z" fill="white" stroke="#19100E" stroke-width="3" stroke-linecap="round" stroke-linejoin="round"/>
<path d="M39.5596 48.6201C32.4661 48.6201 29.9895 47.8267 27.0167 46.8612L25.4609 43.5323C29.0939 44.7161 36.0108 45.8663 46.8801 44.9302C65.4191 43.335 75.3634 36.9877 79.5009 32.5547V36.6477C75.3634 40.2831 66.8109 46.5842 47.1703 48.2759C44.3783 48.5152 41.847 48.6201 39.5596 48.6201Z" fill="#17479E"/>
<path d="M39.5596 48.6201C32.4661 48.6201 29.9895 47.8267 27.0167 46.8612L25.4609 43.5323C29.0939 44.7161 36.0108 45.8663 46.8801 44.9302C65.4191 43.335 75.3634 36.9877 79.5009 32.5547V36.6477C75.3634 40.2831 66.8109 46.5842 47.1703 48.2759C44.3783 48.5152 41.847 48.6201 39.5596 48.6201Z" stroke="#19100E" stroke-linecap="round" stroke-linejoin="round"/>
<path d="M87.5913 106.392C89.9964 98.9322 88.3818 86.8128 81.2588 81.4899C72.8661 75.214 61.4669 83.6224 55.4877 89.1805C51.0726 93.2818 47.7929 98.0045 44.5636 103.042C41.0274 108.562 31.4321 122.533 39.7155 126.668C46.2161 129.913 57.691 119.334 62.5055 113.436C59.0912 118.86 57.1906 123.406 59.764 125.929C63.4978 129.59 70.4946 121.933 72.3237 118.814C70.8226 123.469 73.1646 127.293 79.3793 121.559C83.315 117.928 86.3256 110.33 87.5955 106.396L87.5913 106.392Z" fill="#FFDB00" stroke="#19100E" stroke-width="3" stroke-linecap="round" stroke-linejoin="round"/>
<path d="M51.1355 101.9C50.4754 104.885 50.8748 107.349 52.4769 108.487C55.416 110.582 61.3027 107.387 65.6168 101.35C66.0247 100.779 66.4031 100.204 66.7563 99.625C66.2391 101.917 65.0786 104.482 63.3294 106.929C59.2886 112.584 53.6374 115.476 50.7066 113.39C48.209 111.61 48.4949 106.787 51.1397 101.9H51.1355Z" fill="#FAA427"/>
<path d="M66.5463 109.129C66.0838 111.01 66.2772 112.542 67.2275 113.222C68.9809 114.469 72.6432 112.353 75.4058 108.487C75.6665 108.121 75.9104 107.756 76.1374 107.387C75.7758 108.831 75.0105 110.455 73.8921 112.025C71.3061 115.644 67.7951 117.567 66.0459 116.324C64.5574 115.262 64.8307 112.24 66.5463 109.129Z" fill="#FAA427"/>
<path d="M75.1865 112.836C75.3127 114.326 75.8551 115.413 76.7507 115.699C78.4032 116.223 80.6444 113.839 81.7544 110.367C81.8595 110.036 81.9478 109.712 82.0277 109.389C82.1202 110.535 81.9605 111.908 81.5063 113.314C80.4678 116.563 78.2897 118.772 76.6414 118.247C75.237 117.798 74.6735 115.51 75.1823 112.831L75.1865 112.836Z" fill="#FAA427"/>
</g>
<path d="M11.5895 168.909C11.5895 168.385 11.7171 167.908 11.9723 167.477C12.2308 167.043 12.5755 166.698 13.0064 166.443C13.4406 166.185 13.9195 166.055 14.4432 166.055C14.9039 166.055 15.3281 166.155 15.7159 166.354C16.1037 166.553 16.4235 166.824 16.6754 167.169C16.9306 167.514 17.0864 167.903 17.1428 168.337H15.7557C15.6993 168.056 15.5469 167.827 15.2983 167.651C15.0497 167.472 14.7647 167.383 14.4432 167.383C14.1648 167.383 13.9096 167.452 13.6776 167.592C13.4489 167.728 13.2649 167.911 13.1257 168.143C12.9898 168.372 12.9219 168.626 12.9219 168.904C12.9219 169.186 12.9898 169.443 13.1257 169.675C13.2649 169.903 13.4489 170.087 13.6776 170.227C13.9096 170.366 14.1648 170.435 14.4432 170.435C14.7647 170.435 15.0398 170.348 15.2685 170.172C15.4972 169.993 15.6397 169.763 15.696 169.481H17.0831C17.0268 169.915 16.8759 170.304 16.6307 170.649C16.3887 170.994 16.0788 171.266 15.701 171.464C15.3232 171.663 14.9039 171.763 14.4432 171.763C13.9195 171.763 13.4406 171.635 13.0064 171.38C12.5755 171.121 12.2308 170.777 11.9723 170.346C11.7171 169.912 11.5895 169.433 11.5895 168.909ZM14.4034 174.159C13.6809 174.159 13.0014 174.023 12.3651 173.751C11.732 173.48 11.1735 173.103 10.6896 172.623C10.209 172.139 9.8312 171.58 9.55611 170.947C9.28433 170.314 9.15009 169.635 9.15341 168.909C9.15672 168.183 9.29427 167.504 9.56605 166.871C9.84115 166.238 10.219 165.681 10.6996 165.2C11.1802 164.716 11.737 164.339 12.37 164.067C13.0031 163.795 13.6809 163.659 14.4034 163.659C15.1293 163.659 15.8087 163.795 16.4418 164.067C17.0781 164.339 17.6349 164.716 18.1122 165.2C18.5928 165.681 18.969 166.238 19.2408 166.871C19.5125 167.504 19.6501 168.183 19.6534 168.909C19.6567 169.635 19.5225 170.314 19.2507 170.947C18.9789 171.58 18.6027 172.139 18.1222 172.623C17.6416 173.103 17.0831 173.48 16.4467 173.751C15.8104 174.023 15.1293 174.159 14.4034 174.159ZM14.4034 172.673C14.9238 172.673 15.4126 172.575 15.87 172.379C16.3274 172.184 16.7268 171.915 17.0682 171.574C17.4129 171.229 17.6813 170.83 17.8736 170.376C18.0691 169.918 18.1669 169.431 18.1669 168.914C18.1636 168.394 18.0642 167.905 17.8686 167.447C17.6764 166.99 17.4079 166.591 17.0632 166.249C16.7185 165.905 16.3191 165.634 15.8651 165.439C15.411 165.243 14.9238 165.146 14.4034 165.146C13.8864 165.146 13.4008 165.243 12.9467 165.439C12.4927 165.634 12.0933 165.905 11.7486 166.249C11.4039 166.594 11.1338 166.995 10.9382 167.452C10.7427 167.906 10.6432 168.394 10.6399 168.914C10.6399 169.428 10.736 169.913 10.9283 170.371C11.1238 170.825 11.3939 171.224 11.7386 171.569C12.0833 171.914 12.4827 172.184 12.9368 172.379C13.3942 172.575 13.883 172.673 14.4034 172.673ZM24.84 165.364V163.818H32.9636V165.364H29.8166V174H27.987V165.364H24.84ZM34.4501 174V166.364H36.2498V174H34.4501ZM36.046 165.29H34.6738L34.6042 164.335C34.9556 164.322 35.2041 164.277 35.35 164.201C35.4958 164.121 35.5671 164.012 35.5637 163.873C35.5671 163.694 35.4709 163.57 35.2754 163.5C35.0798 163.43 34.8379 163.396 34.5495 163.396L34.5943 162.506C35.4163 162.506 36.0394 162.625 36.4636 162.864C36.8878 163.102 37.0983 163.427 37.095 163.838C37.0983 164.153 36.9906 164.388 36.7718 164.544C36.5531 164.696 36.3111 164.793 36.046 164.832V165.29ZM39.9002 169.526V174H38.1005V166.364H39.8207V167.661H39.9102C40.0858 167.234 40.3659 166.894 40.7504 166.642C41.1381 166.39 41.6171 166.264 42.1871 166.264C42.7141 166.264 43.1732 166.377 43.5643 166.602C43.9587 166.828 44.2636 167.154 44.479 167.582C44.6978 168.009 44.8055 168.528 44.8022 169.138V174H43.0025V169.416C43.0025 168.906 42.8699 168.506 42.6048 168.218C42.3429 167.93 41.98 167.786 41.516 167.786C41.2011 167.786 40.921 167.855 40.6758 167.994C40.4338 168.13 40.2433 168.327 40.104 168.586C39.9682 168.844 39.9002 169.158 39.9002 169.526ZM48.4315 169.526V174H46.6317V163.818H48.3917V167.661H48.4812C48.6602 167.23 48.9369 166.891 49.3114 166.642C49.6893 166.39 50.1699 166.264 50.7532 166.264C51.2835 166.264 51.7459 166.375 52.1403 166.597C52.5347 166.819 52.8396 167.144 53.055 167.572C53.2738 167.999 53.3832 168.521 53.3832 169.138V174H51.5835V169.416C51.5835 168.902 51.4509 168.503 51.1857 168.218C50.9239 167.93 50.556 167.786 50.082 167.786C49.7638 167.786 49.4788 167.855 49.2269 167.994C48.9783 168.13 48.7828 168.327 48.6403 168.586C48.5011 168.844 48.4315 169.158 48.4315 169.526ZM58.7699 174V163.818H60.6143V168.129H65.3324V163.818H67.1818V174H65.3324V169.675H60.6143V174H58.7699ZM70.2269 176.864C69.9817 176.864 69.7546 176.844 69.5458 176.804C69.3403 176.768 69.1763 176.724 69.0536 176.675L69.4712 175.273C69.7331 175.349 69.9667 175.385 70.1722 175.382C70.3777 175.379 70.5584 175.314 70.7141 175.188C70.8732 175.066 71.0075 174.86 71.1168 174.572L71.271 174.159L68.5018 166.364H70.4109L72.1708 172.131H72.2504L74.0153 166.364H75.9293L72.8718 174.925C72.7293 175.329 72.5404 175.675 72.305 175.964C72.0697 176.255 71.7814 176.478 71.44 176.63C71.1019 176.786 70.6976 176.864 70.2269 176.864ZM80.2459 174.149C79.5002 174.149 78.8539 173.985 78.307 173.657C77.7601 173.329 77.3359 172.87 77.0343 172.28C76.736 171.69 76.5868 171 76.5868 170.212C76.5868 169.423 76.736 168.732 77.0343 168.138C77.3359 167.545 77.7601 167.085 78.307 166.756C78.8539 166.428 79.5002 166.264 80.2459 166.264C80.9917 166.264 81.638 166.428 82.1848 166.756C82.7317 167.085 83.1543 167.545 83.4526 168.138C83.7542 168.732 83.905 169.423 83.905 170.212C83.905 171 83.7542 171.69 83.4526 172.28C83.1543 172.87 82.7317 173.329 82.1848 173.657C81.638 173.985 80.9917 174.149 80.2459 174.149ZM80.2559 172.707C80.6602 172.707 80.9983 172.596 81.2701 172.374C81.5418 172.149 81.744 171.847 81.8766 171.469C82.0125 171.092 82.0804 170.671 82.0804 170.207C82.0804 169.739 82.0125 169.317 81.8766 168.939C81.744 168.558 81.5418 168.254 81.2701 168.029C80.9983 167.804 80.6602 167.691 80.2559 167.691C79.8416 167.691 79.4969 167.804 79.2218 168.029C78.95 168.254 78.7462 168.558 78.6103 168.939C78.4777 169.317 78.4114 169.739 78.4114 170.207C78.4114 170.671 78.4777 171.092 78.6103 171.469C78.7462 171.847 78.95 172.149 79.2218 172.374C79.4969 172.596 79.8416 172.707 80.2559 172.707ZM88.7536 177.023C88.1072 177.023 87.5521 176.935 87.0881 176.759C86.6241 176.587 86.2512 176.355 85.9695 176.063C85.6877 175.772 85.4922 175.448 85.3828 175.094L87.0036 174.701C87.0765 174.85 87.1825 174.998 87.3217 175.143C87.4609 175.293 87.6482 175.415 87.8835 175.511C88.1222 175.611 88.4221 175.661 88.7834 175.661C89.2938 175.661 89.7164 175.536 90.0511 175.288C90.3859 175.042 90.5533 174.638 90.5533 174.075V172.628H90.4638C90.371 172.813 90.2351 173.004 90.0561 173.2C89.8804 173.395 89.6468 173.559 89.3551 173.692C89.0668 173.824 88.7038 173.891 88.2663 173.891C87.6797 173.891 87.1477 173.753 86.6705 173.478C86.1965 173.2 85.8187 172.785 85.5369 172.235C85.2585 171.682 85.1193 170.989 85.1193 170.157C85.1193 169.318 85.2585 168.611 85.5369 168.034C85.8187 167.454 86.1982 167.015 86.6754 166.717C87.1527 166.415 87.6847 166.264 88.2713 166.264C88.7188 166.264 89.0866 166.34 89.375 166.493C89.6667 166.642 89.8987 166.823 90.071 167.035C90.2434 167.244 90.3743 167.441 90.4638 167.626H90.5632V166.364H92.3381V174.124C92.3381 174.777 92.1823 175.317 91.8707 175.745C91.5592 176.173 91.1333 176.492 90.593 176.705C90.0528 176.917 89.4396 177.023 88.7536 177.023ZM88.7685 172.479C89.1496 172.479 89.4744 172.386 89.7429 172.2C90.0114 172.015 90.2152 171.748 90.3544 171.4C90.4936 171.052 90.5632 170.634 90.5632 170.147C90.5632 169.666 90.4936 169.246 90.3544 168.884C90.2185 168.523 90.0163 168.243 89.7479 168.044C89.4827 167.842 89.1563 167.741 88.7685 167.741C88.3674 167.741 88.0327 167.845 87.7642 168.054C87.4957 168.263 87.2936 168.549 87.1577 168.914C87.0218 169.275 86.9538 169.686 86.9538 170.147C86.9538 170.614 87.0218 171.024 87.1577 171.375C87.2969 171.723 87.5007 171.995 87.7692 172.19C88.041 172.383 88.3741 172.479 88.7685 172.479ZM97.5135 174.149C96.7678 174.149 96.1214 173.985 95.5746 173.657C95.0277 173.329 94.6035 172.87 94.3018 172.28C94.0036 171.69 93.8544 171 93.8544 170.212C93.8544 169.423 94.0036 168.732 94.3018 168.138C94.6035 167.545 95.0277 167.085 95.5746 166.756C96.1214 166.428 96.7678 166.264 97.5135 166.264C98.2592 166.264 98.9055 166.428 99.4524 166.756C99.9993 167.085 100.422 167.545 100.72 168.138C101.022 168.732 101.173 169.423 101.173 170.212C101.173 171 101.022 171.69 100.72 172.28C100.422 172.87 99.9993 173.329 99.4524 173.657C98.9055 173.985 98.2592 174.149 97.5135 174.149ZM97.5234 172.707C97.9278 172.707 98.2659 172.596 98.5376 172.374C98.8094 172.149 99.0116 171.847 99.1442 171.469C99.2801 171.092 99.348 170.671 99.348 170.207C99.348 169.739 99.2801 169.317 99.1442 168.939C99.0116 168.558 98.8094 168.254 98.5376 168.029C98.2659 167.804 97.9278 167.691 97.5234 167.691C97.1091 167.691 96.7644 167.804 96.4893 168.029C96.2176 168.254 96.0137 168.558 95.8778 168.939C95.7453 169.317 95.679 169.739 95.679 170.207C95.679 170.671 95.7453 171.092 95.8778 171.469C96.0137 171.847 96.2176 172.149 96.4893 172.374C96.7644 172.596 97.1091 172.707 97.5234 172.707ZM106.153 174V172.668L109.688 169.202C110.026 168.861 110.307 168.558 110.533 168.293C110.758 168.027 110.927 167.771 111.04 167.522C111.153 167.273 111.209 167.008 111.209 166.727C111.209 166.405 111.136 166.13 110.99 165.901C110.844 165.669 110.644 165.49 110.389 165.364C110.133 165.238 109.843 165.175 109.519 165.175C109.184 165.175 108.891 165.245 108.639 165.384C108.387 165.52 108.191 165.714 108.052 165.966C107.916 166.218 107.848 166.518 107.848 166.866H106.093C106.093 166.219 106.241 165.658 106.536 165.18C106.831 164.703 107.237 164.334 107.754 164.072C108.274 163.81 108.871 163.679 109.544 163.679C110.226 163.679 110.826 163.807 111.343 164.062C111.86 164.317 112.261 164.667 112.546 165.111C112.835 165.555 112.979 166.062 112.979 166.632C112.979 167.013 112.906 167.388 112.76 167.756C112.614 168.124 112.357 168.531 111.99 168.979C111.625 169.426 111.113 169.968 110.453 170.604L108.698 172.389V172.459H113.133V174H106.153ZM118.612 174.194C117.793 174.194 117.09 173.987 116.504 173.572C115.92 173.155 115.471 172.553 115.156 171.768C114.845 170.979 114.689 170.029 114.689 168.919C114.692 167.809 114.85 166.864 115.161 166.085C115.476 165.303 115.925 164.706 116.509 164.295C117.095 163.884 117.796 163.679 118.612 163.679C119.427 163.679 120.128 163.884 120.715 164.295C121.301 164.706 121.75 165.303 122.062 166.085C122.377 166.867 122.534 167.812 122.534 168.919C122.534 170.033 122.377 170.984 122.062 171.773C121.75 172.558 121.301 173.158 120.715 173.572C120.131 173.987 119.43 174.194 118.612 174.194ZM118.612 172.638C119.248 172.638 119.75 172.325 120.118 171.698C120.489 171.068 120.675 170.142 120.675 168.919C120.675 168.11 120.59 167.431 120.421 166.881C120.252 166.33 120.014 165.916 119.705 165.638C119.397 165.356 119.033 165.215 118.612 165.215C117.979 165.215 117.478 165.53 117.11 166.16C116.742 166.786 116.557 167.706 116.553 168.919C116.55 169.731 116.631 170.414 116.797 170.967C116.966 171.521 117.205 171.938 117.513 172.22C117.821 172.499 118.187 172.638 118.612 172.638ZM127.95 174.194C127.131 174.194 126.428 173.987 125.842 173.572C125.258 173.155 124.809 172.553 124.494 171.768C124.183 170.979 124.027 170.029 124.027 168.919C124.03 167.809 124.188 166.864 124.499 166.085C124.814 165.303 125.263 164.706 125.847 164.295C126.433 163.884 127.134 163.679 127.95 163.679C128.765 163.679 129.466 163.884 130.053 164.295C130.639 164.706 131.088 165.303 131.4 166.085C131.715 166.867 131.872 167.812 131.872 168.919C131.872 170.033 131.715 170.984 131.4 171.773C131.088 172.558 130.639 173.158 130.053 173.572C129.469 173.987 128.768 174.194 127.95 174.194ZM127.95 172.638C128.586 172.638 129.088 172.325 129.456 171.698C129.827 171.068 130.013 170.142 130.013 168.919C130.013 168.11 129.928 167.431 129.759 166.881C129.59 166.33 129.352 165.916 129.043 165.638C128.735 165.356 128.371 165.215 127.95 165.215C127.317 165.215 126.816 165.53 126.448 166.16C126.08 166.786 125.895 167.706 125.891 168.919C125.888 169.731 125.969 170.414 126.135 170.967C126.304 171.521 126.543 171.938 126.851 172.22C127.159 172.499 127.525 172.638 127.95 172.638ZM133.623 174L137.954 165.429V165.359H132.927V163.818H139.863V165.394L135.537 174H133.623Z" fill="#34414D"/>
<defs>
<clipPath id="clip0_291_392">
<rect width="149" height="155" fill="white"/>
</clipPath>
</defs>
</svg>
