<svg width="35" height="50" viewBox="0 0 35 50" fill="none" xmlns="http://www.w3.org/2000/svg">
<g id="Group">
<path id="Vector" d="M34.5953 46.5007C34.5953 46.2935 34.737 41.4223 31.3795 38.6111C31.0537 38.3391 30.5436 38.3132 30.1895 38.5593C30.0478 38.663 26.5061 41.0596 23.177 38.5593C22.8228 38.3002 22.327 38.3132 21.987 38.5723C21.9445 38.6112 21.5053 38.9609 20.967 39.6216C20.457 38.8962 19.8336 38.2095 19.097 37.5877C18.7711 37.3156 18.2612 37.2898 17.907 37.5359C17.6804 37.6914 12.3962 41.2799 7.38122 37.5359C7.02705 37.2768 6.53118 37.2897 6.19118 37.5488C6.00702 37.7043 1.502 41.3576 1.38867 48.5477C1.38867 48.7679 1.48784 48.9881 1.65784 49.1565C1.82784 49.312 2.0687 49.4027 2.30954 49.4027H22.6386C23.1345 49.4027 23.5453 49.0399 23.5595 48.5865C23.5595 48.5088 23.5737 48.0294 23.517 47.291H33.6603C34.1561 47.291 34.567 46.9282 34.5812 46.4748L34.5953 46.5007ZM3.28704 47.7445C3.61287 43.2361 5.86535 40.4119 6.89951 39.3366C11.702 42.394 16.6037 40.2694 18.3604 39.2978C21.0804 41.9795 21.6045 46.0214 21.7037 47.7315H3.27286L3.28704 47.7445ZM23.3329 45.6328C23.1204 44.3632 22.7095 42.8215 21.9587 41.3058C22.2278 40.9042 22.4829 40.5803 22.7095 40.3471C25.6845 42.109 28.8436 41.2928 30.6286 40.3342C32.2153 42.0183 32.612 44.4021 32.7112 45.6328H23.3329Z" fill="#F1B701"/>
<path id="Vector_2" d="M25.0321 16.6264H17.8213V18.6992C17.8213 19.7356 18.7421 20.5776 19.8755 20.5776H26.2787L28.1063 22.495C28.2338 22.6375 28.4321 22.7153 28.6304 22.7153C28.7154 22.7153 28.8146 22.7022 28.8996 22.6634C29.1829 22.5597 29.3529 22.3007 29.3246 22.0286L29.1971 20.5776H32.4837C33.6171 20.5776 34.5379 19.7356 34.5379 18.6992V11.276C34.5379 10.2396 33.6171 9.39746 32.4837 9.39746H27.9929V13.9058C27.9929 15.4086 26.6613 16.6264 25.018 16.6264H25.0321ZM28.1771 13.9447V10.6541H32.4979C32.8662 10.6541 33.1638 10.9262 33.1638 11.263V18.6862C33.1638 19.023 32.8662 19.2951 32.4979 19.2951H28.4604C28.2621 19.2951 28.0779 19.3728 27.9504 19.5024C27.8229 19.6319 27.7521 19.8003 27.7663 19.9817V20.202L27.1288 19.5153C27.0013 19.3728 26.803 19.2951 26.6046 19.2951H19.8755C19.5071 19.2951 19.2096 19.023 19.2096 18.6862V16.7041H25.1312C26.8029 16.7041 28.1771 15.4604 28.1771 13.9187V13.9447Z" fill="#F1B701"/>
<path id="Vector_3" d="M0.0141805 13.9057C0.0141805 15.4085 1.34581 16.6263 2.98914 16.6263H10.9791L10.7525 19.2433C10.7242 19.5542 10.9225 19.8521 11.2341 19.9687C11.3333 20.0076 11.4325 20.0205 11.5458 20.0205C11.7725 20.0205 11.9992 19.9298 12.1408 19.7744L15.1441 16.6133H25.0183C26.6617 16.6133 27.9933 15.3956 27.9933 13.8928V3.03652C27.9933 1.53374 26.6617 0.315918 25.0183 0.315918H2.97505C1.33172 0.315918 0 1.53374 0 3.03652V13.8928L0.0141805 13.9057ZM1.61502 3.04949C1.61502 2.34992 2.23831 1.79281 2.98914 1.79281H25.0324C25.7974 1.79281 26.4066 2.36287 26.4066 3.04949V13.9057C26.4066 14.6053 25.7833 15.1624 25.0324 15.1624H14.8042C14.5775 15.1624 14.3508 15.2531 14.195 15.4085L12.5375 17.1445L12.6366 15.9397C12.6508 15.7324 12.58 15.5381 12.4242 15.3826C12.2683 15.2271 12.0558 15.1494 11.8433 15.1494H2.98914C2.22414 15.1494 1.61502 14.5794 1.61502 13.8928V3.03652V3.04949Z" fill="#F1B701"/>
<path id="Vector_4" d="M26.5768 38.5463C28.2768 38.5463 29.8635 37.9374 31.0676 36.8362C32.2718 35.735 32.9377 34.2711 32.9377 32.7295C32.9377 29.5296 30.0902 26.9127 26.5768 26.9127C24.8769 26.9127 23.2902 27.5216 22.0861 28.6228C21.7177 28.9596 21.4202 29.3223 21.151 29.7109C21.1793 29.4518 21.1935 29.1798 21.1935 28.9207C21.1935 24.5419 17.2835 20.9663 12.4952 20.9663C10.1719 20.9663 7.99018 21.7954 6.34685 23.2982C4.70352 24.801 3.79688 26.7961 3.79688 28.9207C3.79688 33.2995 7.70689 36.8751 12.4952 36.8751C14.8185 36.8751 17.0002 36.046 18.6436 34.5432C19.2952 33.9473 19.8194 33.2736 20.2302 32.5481C20.2302 32.6129 20.2302 32.6647 20.2302 32.7295C20.2302 35.9294 23.0777 38.5463 26.591 38.5463H26.5768ZM23.3894 29.8146C24.2394 29.0373 25.3727 28.6098 26.5768 28.6098C29.056 28.6098 31.0818 30.4624 31.0818 32.7295C31.0818 33.8307 30.6143 34.8671 29.7643 35.6444C28.9143 36.4217 27.781 36.8492 26.5768 36.8492C24.0977 36.8492 22.0719 34.9966 22.0719 32.7295C22.0719 31.6283 22.5394 30.5919 23.3894 29.8146ZM17.3402 33.3513C16.051 34.5302 14.3227 35.191 12.4952 35.191C8.71272 35.191 5.65269 32.3797 5.63852 28.9337C5.63852 27.2625 6.34691 25.6949 7.65024 24.5031C8.93941 23.3112 10.6677 22.6634 12.4952 22.6634C16.2635 22.6634 19.3377 25.4747 19.3519 28.9207C19.3519 30.5919 18.6435 32.1594 17.3402 33.3513Z" fill="#F1B701"/>
</g>
</svg>
