<svg width="37" height="36" viewBox="0 0 37 36" fill="none" xmlns="http://www.w3.org/2000/svg">
<g id="alarm">
<mask id="mask0_493_496" style="mask-type:alpha" maskUnits="userSpaceOnUse" x="0" y="0" width="37" height="36">
<rect id="Bounding box" x="0.5" width="36" height="36" fill="#D9D9D9"/>
</mask>
<g mask="url(#mask0_493_496)">
<path id="alarm_2" d="M23.5129 27.272L23.6009 27.3592L23.6889 27.272L25.9894 24.9921L26.079 24.9033L25.9894 24.8145L20.7682 19.64V12.201V12.076H20.6432H17.3568H17.2318V12.201V20.9949V21.047L17.2688 21.0837L23.5129 27.272ZM8.57156 2.91122L8.48357 2.82401L8.39558 2.91122L1.41201 9.83234L1.32242 9.92112L1.41201 10.0099L3.71248 12.2898L3.80047 12.377L3.88846 12.2898L10.872 5.36868L10.9616 5.2799L10.872 5.19111L8.57156 2.91122ZM29.6044 2.91122L29.5164 2.82401L29.4284 2.91122L27.128 5.19111L27.0384 5.2799L27.128 5.36868L34.1115 12.2898L34.1995 12.377L34.2875 12.2898L36.588 10.0099L36.6776 9.92112L36.588 9.83234L29.6044 2.91122ZM13.1788 33.9545C14.989 34.7351 16.9299 35.125 19 35.125C21.0701 35.125 23.011 34.7351 24.8212 33.9545C26.6287 33.175 28.203 32.1215 29.5428 30.7936C30.8826 29.4658 31.9458 27.9055 32.7324 26.1139C33.5202 24.3195 33.9137 22.3956 33.9137 20.3435C33.9137 18.2914 33.5202 16.3675 32.7324 14.5732C31.9458 12.7815 30.8826 11.2213 29.5428 9.8934C28.203 8.56555 26.6287 7.51199 24.8212 6.73255C23.011 5.95192 21.0701 5.56202 19 5.56202C16.9299 5.56202 14.989 5.95192 13.1788 6.73255C11.3713 7.51199 9.79703 8.56555 8.4572 9.8934C7.11736 11.2213 6.05418 12.7815 5.26759 14.5732C4.47978 16.3675 4.08627 18.2914 4.08627 20.3435C4.08627 22.3956 4.47978 24.3195 5.26759 26.1139C6.05418 27.9055 7.11736 29.4658 8.4572 30.7936C9.79703 32.1215 11.3713 33.175 13.1788 33.9545ZM27.0664 28.3362C24.8583 30.5245 22.172 31.618 19 31.618C15.828 31.618 13.1417 30.5245 10.9336 28.3362C8.72561 26.1479 7.62265 23.4861 7.62265 20.3435C7.62265 17.2009 8.72561 14.5392 10.9336 12.3509C13.1417 10.1625 15.828 9.06902 19 9.06902C22.172 9.06902 24.8583 10.1625 27.0664 12.3509C29.2744 14.5392 30.3773 17.2009 30.3773 20.3435C30.3773 23.4861 29.2744 26.1479 27.0664 28.3362Z" fill="#029FC8" stroke="#029FC8" stroke-width="0.25"/>
</g>
</g>
</svg>
