<svg width="95" height="111" viewBox="0 0 95 111" fill="none" xmlns="http://www.w3.org/2000/svg">
<g id="Haba-tan1" clip-path="url(#clip0_125_930)">
<g id="Group">
<path id="Vector" d="M93.295 79.24C93.2206 79.2794 93.15 79.3188 93.0795 79.3581C75.949 88.3065 55.778 83.3282 47.2715 68.3145C47.3498 69.1967 47.4792 70.0789 47.6711 70.9651C50.3982 83.6354 63.6222 91.8748 77.2107 89.362C84.0911 88.0899 89.7372 84.3049 93.2911 79.24H93.295Z" fill="#ED1C29" stroke="#19100E" stroke-width="2.5" stroke-linecap="round" stroke-linejoin="round"/>
<path id="Vector_2" d="M94.0206 64.7026C93.9697 64.7657 93.9148 64.8326 93.86 64.8917C80.7809 79.4722 60.5433 81.7093 47.9893 70.2245C48.3419 71.0437 48.7376 71.8472 49.1882 72.6349C55.6611 83.8833 70.4838 87.2035 82.2855 80.0472C88.2569 76.4277 92.3123 70.8192 94.0206 64.7026Z" fill="#008DD1" stroke="#19100E" stroke-width="2.5" stroke-linecap="round" stroke-linejoin="round"/>
<path id="Vector_3" d="M87.2573 52.3867C87.2182 52.4655 87.1947 52.5443 87.1516 52.623C78.9546 70.8782 60.5742 79.3854 45.5635 72.1622C46.1238 72.8475 46.7194 73.5091 47.3619 74.1314C56.5933 83.0286 71.4395 81.6186 80.5258 70.9727C85.118 65.5848 87.3592 58.8696 87.2573 52.3907V52.3867Z" fill="#ED1C29" stroke="#19100E" stroke-width="2.5" stroke-linecap="round" stroke-linejoin="round"/>
</g>
<g id="Vector_4">
<path d="M60.6922 83.1035C63.0353 87.0342 64.9905 91.1854 66.6832 95.4351C67.9958 98.7277 69.3398 102.717 71.4007 105.612C72.1021 106.601 73.3363 107.353 72.3685 108.55C67.506 114.588 56.484 100.236 53.6041 97.1799C51.0338 94.4583 48.5575 91.6344 45.7324 89.1571" fill="#FFDB00"/>
<path d="M60.6922 83.1035C63.0353 87.0342 64.9905 91.1854 66.6832 95.4351C67.9958 98.7277 69.3398 102.717 71.4007 105.612C72.1021 106.601 73.3363 107.353 72.3685 108.55C67.506 114.588 56.484 100.236 53.6041 97.1799C51.0338 94.4583 48.5575 91.6344 45.7324 89.1571" stroke="#19100E" stroke-width="3" stroke-linecap="round" stroke-linejoin="round"/>
</g>
<g id="Vector_5">
<path d="M37.7385 86.9906C31.5516 88.6803 25.4118 89.5546 19.1818 90.0627C15.6711 90.3463 11.122 91.7838 7.7249 90.362C5.53461 89.4483 2.09048 85.683 5.25249 83.8004C6.38094 83.1308 7.99917 83.5602 9.18639 83.3081C14.5309 82.1856 19.9537 77.6169 24.8084 75.045C28.5033 73.0876 32.2844 71.264 35.7912 68.96" fill="#FFDB00"/>
<path d="M37.7385 86.9906C31.5516 88.6803 25.4118 89.5546 19.1818 90.0627C15.6711 90.3463 11.122 91.7838 7.7249 90.362C5.53461 89.4483 2.09048 85.683 5.25249 83.8004C6.38094 83.1308 7.99917 83.5602 9.18639 83.3081C14.5309 82.1856 19.9537 77.6169 24.8084 75.045C28.5033 73.0876 32.2844 71.264 35.7912 68.96" stroke="#19100E" stroke-width="3" stroke-linecap="round" stroke-linejoin="round"/>
</g>
<g id="Group_2">
<g id="Vector_6">
<path d="M58.4658 47.9554C58.501 61.441 50.9349 70.6966 37.2407 70.157C26.2814 69.7198 6.82744 57.337 4.82523 37.8767C4.06901 30.4959 7.28979 24.3714 11.686 28.562C12.3796 29.2237 13.8097 31.3426 14.1349 32.0949" fill="#FFDB00"/>
<path d="M58.4658 47.9554C58.501 61.441 50.9349 70.6966 37.2407 70.157C26.2814 69.7198 6.82744 57.337 4.82523 37.8767C4.06901 30.4959 7.28979 24.3714 11.686 28.562C12.3796 29.2237 13.8097 31.3426 14.1349 32.0949" stroke="#19100E" stroke-width="3" stroke-linecap="round" stroke-linejoin="round"/>
</g>
<path id="Vector_7" d="M54.5673 51.3703L21.7757 19.7241L7.63477 41.4216C7.63477 41.4216 45.2341 65.5294 45.6573 64.9032C46.0843 64.2809 54.5673 51.3703 54.5673 51.3703Z" fill="#FFDB00"/>
<g id="Vector_8">
<path d="M20.0824 20.9961C18.1586 18.377 16.4737 11.1813 12.6535 12.9339C9.41308 14.4148 7.51274 19.2317 7.52842 25.6751C7.54409 32.5321 9.85193 36.4195 14.1698 42.5872" fill="#FFDB00"/>
<path d="M20.0824 20.9961C18.1586 18.377 16.4737 11.1813 12.6535 12.9339C9.41308 14.4148 7.51274 19.2317 7.52842 25.6751C7.54409 32.5321 9.85193 36.4195 14.1698 42.5872" stroke="#19100E" stroke-width="3" stroke-linecap="round" stroke-linejoin="round"/>
</g>
<g id="Vector_9">
<path d="M54.5871 51.3586C47.2561 47.55 38.8163 38.9994 35.3721 32.0164C31.2737 23.7021 31.4147 9.0704 28.4369 4.5332C23.6096 -2.82794 18.0222 2.6742 16.2316 8.29845C13.2381 17.7352 15.013 29.2673 18.7549 33.2097" fill="#FFDB00"/>
<path d="M54.5871 51.3586C47.2561 47.55 38.8163 38.9994 35.3721 32.0164C31.2737 23.7021 31.4147 9.0704 28.4369 4.5332C23.6096 -2.82794 18.0222 2.6742 16.2316 8.29845C13.2381 17.7352 15.013 29.2673 18.7549 33.2097" stroke="#19100E" stroke-width="3" stroke-linecap="round" stroke-linejoin="round"/>
</g>
<path id="Vector_10" d="M32.1082 29.9014C30.2627 27.6485 28.3898 26.4748 26.9988 26.9711C24.4363 27.873 24.4912 34.0723 27.1242 40.8151C27.3711 41.4492 27.6297 42.0675 27.9079 42.6701C26.4934 40.9293 25.1298 38.5583 24.0641 35.8249C21.6034 29.5114 21.674 23.6627 24.2208 22.7647C26.3954 21.9967 29.6672 25.0727 32.1082 29.9053V29.9014Z" fill="#FAA427"/>
<path id="Vector_11" d="M20.4079 37.7471C18.7897 36.7428 17.3752 36.4159 16.619 37.0185C15.2162 38.1292 16.5602 41.9653 19.6203 45.5888C19.9063 45.9354 20.2002 46.2623 20.498 46.5734C19.252 45.7936 17.9041 44.612 16.666 43.1429C13.8017 39.7479 12.6106 36.1008 14.0055 34.9941C15.1966 34.0567 17.8767 35.2658 20.4079 37.7432V37.7471Z" fill="#FAA427"/>
<path id="Vector_12" d="M16.2626 47.7823C14.8756 46.9198 13.6649 46.6441 13.0144 47.1601C11.8155 48.1053 12.9635 51.3979 15.5848 54.5015C15.8277 54.793 16.0824 55.0726 16.3371 55.3444C15.2752 54.6748 14.1115 53.6626 13.0575 52.4023C10.6008 49.4917 9.58206 46.3684 10.7732 45.4232C11.7919 44.6158 14.088 45.6555 16.2626 47.7784V47.7823Z" fill="#FAA427"/>
</g>
<g id="Vector_13">
<path d="M77.1757 36.5537C79.7421 38.011 85.3491 41.15 88.9421 42.6781C83.6564 46.0495 75.5418 47.2469 68.9082 43.5801" fill="#008DD1"/>
<path d="M77.1757 36.5537C79.7421 38.011 85.3491 41.15 88.9421 42.6781C83.6564 46.0495 75.5418 47.2469 68.9082 43.5801" stroke="#19100E" stroke-width="2.5" stroke-linecap="round" stroke-linejoin="round"/>
</g>
<g id="Vector_14">
<path d="M75.7575 29.5312C80.6631 32.0322 84.8596 33.647 89.2989 34.8759C85.3101 38.7435 78.8176 40.3977 74.2607 40.2992" fill="#ED1C29"/>
<path d="M75.7575 29.5312C80.6631 32.0322 84.8596 33.647 89.2989 34.8759C85.3101 38.7435 78.8176 40.3977 74.2607 40.2992" stroke="#19100E" stroke-width="2.5" stroke-linecap="round" stroke-linejoin="round"/>
</g>
<g id="Vector_15">
<path d="M70.7188 65.6123C77.3759 75.3011 76.4825 85.7304 66.3539 92.1463C58.251 97.2782 38.1505 98.0265 27.1403 85.0136C22.9595 80.0707 22.266 74.0644 27.4968 74.8955C28.3236 75.0294 30.3924 75.8446 30.9997 76.2267" fill="#FFDB00"/>
<path d="M70.7188 65.6123C77.3759 75.3011 76.4825 85.7304 66.3539 92.1463C58.251 97.2782 38.1505 98.0265 27.1403 85.0136C22.9595 80.0707 22.266 74.0644 27.4968 74.8955C28.3236 75.0294 30.3924 75.8446 30.9997 76.2267" stroke="#19100E" stroke-width="3" stroke-linecap="round" stroke-linejoin="round"/>
</g>
<path id="Vector_16" d="M24.7617 46.2778C24.7617 61.8036 37.5508 74.3872 53.3217 74.3872C69.0926 74.3872 81.8895 61.7996 81.8895 46.2778C81.8895 30.756 69.1004 18.1685 53.3217 18.1685C37.543 18.1685 24.7617 30.756 24.7617 46.2778Z" fill="#FFDB00" stroke="#19100E" stroke-width="3" stroke-linecap="round" stroke-linejoin="round"/>
<path id="Vector_17" d="M31.5128 40.7756C29.3186 39.8422 26.325 40.9489 27.524 43.8359C28.339 45.8091 33.0722 47.2309 34.1889 44.7496C35 42.9537 32.9782 41.3979 31.5128 40.7756Z" fill="#FAA427"/>
<path id="Vector_18" d="M63.1416 50.5038C61.6174 50.1769 59.9835 50.4566 59.2233 51.579C56.892 55.0292 65.8216 57.3687 66.3819 53.9973C66.6797 52.2053 64.9988 50.9016 63.1416 50.5038Z" fill="#FAA427"/>
<path id="Vector_19" d="M69.5905 70.0117L30.4121 63.5171L30.9019 86.1677C30.9019 86.1677 69.8334 84.8404 69.8334 84.1787C69.8334 83.517 69.5905 70.0078 69.5905 70.0078V70.0117Z" fill="#FFDB00"/>
<g id="Vector_20">
<path d="M29.8245 65.2735C27.1523 64.344 22.3995 59.9998 20.507 63.1585C18.9044 65.8367 19.9036 70.2518 23.0852 74.8836C26.4705 79.8107 30.0479 81.4688 36.1877 83.761" fill="#FFDB00"/>
<path d="M29.8245 65.2735C27.1523 64.344 22.3995 59.9998 20.507 63.1585C18.9044 65.8367 19.9036 70.2518 23.0852 74.8836C26.4705 79.8107 30.0479 81.4688 36.1877 83.761" stroke="#19100E" stroke-width="3" stroke-linecap="round" stroke-linejoin="round"/>
</g>
<path id="Vector_21" d="M38.2954 77.1797C36.6341 77.2585 35.4508 77.7272 35.2039 78.5346C34.7416 80.0312 37.598 82.1265 41.5828 83.2175C41.9589 83.3239 42.3312 83.4145 42.6995 83.4893C41.4221 83.5484 39.8666 83.3672 38.2523 82.9221C34.5182 81.902 31.8695 79.8658 32.3279 78.381C32.7198 77.1128 35.247 76.652 38.2915 77.1797H38.2954Z" fill="#FAA427"/>
<path id="Vector_22" d="M40.246 86.4631C38.8237 86.53 37.8128 86.9318 37.6012 87.6249C37.2015 88.905 39.6504 90.7009 43.0671 91.6344C43.3845 91.725 43.7058 91.8037 44.0232 91.8668C42.93 91.918 41.5939 91.7604 40.2107 91.3823C37.0095 90.508 34.7409 88.7632 35.1366 87.491C35.4697 86.404 37.6364 86.0101 40.246 86.4631Z" fill="#FAA427"/>
<g id="Group_3">
<path id="Vector_23" d="M63.975 44.9505C65.0916 44.8284 66.1221 44.8284 67.0351 44.9032C66.3024 44.2888 64.9428 43.9698 63.3755 44.1431C61.5104 44.3518 59.947 45.1986 59.3906 46.1832C60.5504 45.6161 62.1726 45.1553 63.975 44.9505Z" fill="#19100E"/>
<path id="Vector_24" d="M62.6663 48.2472C63.3559 48.8853 63.9319 49.5706 64.3864 50.2362C64.3511 49.2555 63.7908 48.0975 62.8152 47.1996C61.6554 46.1283 60.284 45.762 59.3867 46.1834C60.3702 46.5024 61.5417 47.2035 62.6663 48.2472Z" fill="#19100E"/>
<path id="Vector_25" d="M63.83 46.6835C64.8722 46.9434 65.8126 47.2743 66.6237 47.6327C66.0908 46.9001 64.9271 46.203 63.4578 45.8406C61.7141 45.4074 60.1077 45.5728 59.3867 46.1833C60.5661 46.1045 62.1412 46.2621 63.83 46.6835Z" fill="#19100E"/>
</g>
<g id="Group_4">
<path id="Vector_26" d="M34.7137 34.8757C34.2044 34.0368 33.6715 33.3633 33.1621 32.8356C33.8517 32.7883 34.7137 33.3988 35.4347 34.5685C36.2928 35.9667 36.665 37.7154 36.4534 38.9206C36.1439 37.6721 35.5405 36.2266 34.7098 34.8757H34.7137Z" fill="#19100E"/>
<path id="Vector_27" d="M33.7226 38.5387C33.0447 38.6293 32.4022 38.838 31.8262 39.1137C32.3395 38.2984 33.2132 37.6761 34.1732 37.5462C35.3134 37.3847 36.2028 37.9715 36.4575 38.9168C35.7914 38.5387 34.8315 38.3772 33.7226 38.5347V38.5387Z" fill="#19100E"/>
<path id="Vector_28" d="M33.9151 36.4434C33.245 35.9826 32.5946 35.6478 31.9912 35.4273C32.6338 35.1516 33.5898 35.317 34.5302 35.9668C35.6508 36.7349 36.3914 37.9282 36.458 38.9207C35.8898 38.0818 34.9965 37.1838 33.9151 36.4434Z" fill="#19100E"/>
</g>
<path id="Vector_29" d="M37.3438 47.8022C39.4557 49.2752 45.0783 50.4961 50.3758 47.3965C50.4894 50.3543 48.4519 65.8525 43.5816 64.7615C40.494 64.0683 38.0412 50.437 37.3438 47.8061V47.8022Z" fill="#EE3030"/>
<g id="Vector_30">
<path d="M69.5988 69.9921C62.4441 70.894 52.1627 68.9326 46.2501 65.6163C39.209 61.666 32.1131 51.0634 27.7404 49.2714C20.6445 46.3687 19.324 53.1115 20.8051 58.0504C23.2893 66.3331 30.2402 73.7534 34.8715 74.7341" fill="#FFDB00"/>
<path d="M69.5988 69.9921C62.4441 70.894 52.1627 68.9326 46.2501 65.6163C39.209 61.666 32.1131 51.0634 27.7404 49.2714C20.6445 46.3687 19.324 53.1115 20.8051 58.0504C23.2893 66.3331 30.2402 73.7534 34.8715 74.7341" stroke="#19100E" stroke-width="3" stroke-linecap="round" stroke-linejoin="round"/>
</g>
<path id="Vector_31" d="M42.8559 65.7107C40.4227 65.0057 38.4949 65.0923 37.7348 66.14C36.336 68.058 39.4235 72.4968 44.6348 76.0454C45.1246 76.3802 45.6183 76.6953 46.1119 76.9907C44.239 76.4432 42.0879 75.4113 39.976 73.9737C35.1017 70.6496 32.2806 66.3999 33.6677 64.4897C34.8549 62.8552 38.7261 63.4421 42.8598 65.7146L42.8559 65.7107Z" fill="#FAA427"/>
</g>
<defs>
<clipPath id="clip0_125_930">
<rect width="95" height="111" fill="white"/>
</clipPath>
</defs>
</svg>
