<svg width="55" height="33" viewBox="0 0 55 33" fill="none" xmlns="http://www.w3.org/2000/svg">
<path id="Vector" d="M53.3008 0.774885C53.3008 0.774885 53.3443 0.76866 53.3588 0.766588C53.4022 0.760371 53.4455 0.754133 53.4912 0.761046L53.5201 0.756897C53.5201 0.756897 53.5513 0.765914 53.568 0.776971C53.6593 0.790795 53.7362 0.806655 53.8153 0.835681C53.8153 0.835681 53.9635 0.922097 54.0304 0.966324L54.0448 0.96425L54.0493 0.990494L54.0827 1.0126C54.0827 1.0126 54.1563 1.09623 54.192 1.13147L54.1965 1.15771L54.2322 1.19299C54.2322 1.19299 54.2702 1.24136 54.2747 1.26761L54.2792 1.29386C54.2792 1.29386 54.3215 1.36849 54.3283 1.40788C54.3283 1.40788 54.335 1.44728 54.3373 1.46041C54.344 1.4998 54.3508 1.53918 54.3575 1.57857L54.3665 1.6311L54.3444 1.67462C54.3444 1.67462 54.3511 1.71398 54.3534 1.72711C54.3534 1.72711 54.3279 1.83839 54.3202 1.87985L54.3247 1.90609L41.5956 31.614C41.4769 31.8731 41.229 32.0701 40.9296 32.1399C40.9007 32.144 40.8718 32.1481 40.8428 32.1523C40.5679 32.1917 40.2895 32.1239 40.0677 31.9539L28.176 22.5867L17.8567 27.9388L17.7988 27.9471C17.7065 28.0141 17.5952 28.0569 17.4795 28.0735C17.2046 28.1129 16.9095 28.0341 16.6877 27.8641C16.4469 27.6699 16.335 27.3631 16.3913 27.086L15.1563 13.7308L0.736449 10.2005C0.304354 10.101 0.00315418 9.7271 0.0369682 9.31871C0.0563158 8.9124 0.397497 8.56762 0.831544 8.50545L53.253 0.754811L53.3008 0.774885ZM26.6712 21.4168L25.6958 20.6553L22.7128 18.2981L19.3872 25.1907L26.6712 21.4168ZM5.53893 9.59332L16.0443 12.1644L42.1 4.1817L5.52445 9.5954L5.53893 9.59332ZM17.0877 13.6694L18.0065 23.707L21.4775 16.538C21.4775 16.538 21.5141 16.4924 21.5241 16.4641C21.5341 16.4358 21.5586 16.4053 21.5708 16.3901C21.583 16.3749 21.6074 16.3446 21.6196 16.3294C21.6341 16.3273 21.644 16.299 21.6707 16.2817C21.6852 16.2796 21.7097 16.2492 21.7219 16.234C21.7608 16.2015 21.7874 16.1842 21.8286 16.1649C21.8575 16.1608 21.8676 16.1324 21.8965 16.1282L43.1334 5.7151L17.0922 13.6957L17.0877 13.6694ZM24.0231 17.0343L40.319 29.8733L51.6045 3.50632L24.0231 17.0343Z" fill="#029FC8"/>
</svg>
