<svg width="153" height="45" viewBox="0 0 153 45" fill="none" xmlns="http://www.w3.org/2000/svg">
<g id="SNS">
<g id="Group 210">
<path id="Vector" d="M22.3852 44.2069C34.7482 44.2069 44.7704 34.3109 44.7704 22.1035C44.7704 9.89605 34.7482 0 22.3852 0C10.0222 0 0 9.89605 0 22.1035C0 34.3109 10.0222 44.2069 22.3852 44.2069Z" fill="#383A46" fill-opacity="0.4"/>
<path id="Vector_2" d="M27.3684 24.5262L28.1461 19.5463H23.3094V16.3184C23.3094 14.9624 23.9899 13.6305 26.1531 13.6305H28.3527V9.39459C28.3527 9.39459 26.3597 9.05859 24.4517 9.05859C20.4657 9.05859 17.865 11.4465 17.865 15.7544V19.5463H13.4414V24.5262H17.865V36.5499H23.3094V24.5262H27.3684Z" fill="white"/>
</g>
<g id="Group 211">
<path id="Vector_3" d="M130.385 44.2069C142.748 44.2069 152.77 34.3109 152.77 22.1035C152.77 9.89605 142.748 0 130.385 0C118.022 0 108 9.89605 108 22.1035C108 34.3109 118.022 44.2069 130.385 44.2069Z" fill="#383A46" fill-opacity="0.4"/>
<path id="Vector_4" d="M130.387 5.36279C121.041 5.36279 113.434 12.8746 113.434 22.1024C113.434 31.3302 121.041 38.842 130.387 38.842C139.732 38.842 147.34 31.3302 147.34 22.1024C147.34 12.8746 139.732 5.36279 130.387 5.36279ZM144.945 20.9504H138.565C138.407 15.7305 137.18 11.3026 135.296 8.51872C140.595 10.3907 144.484 15.2026 144.945 20.9504ZM130.387 36.538C127.737 36.538 124.808 31.1382 124.541 23.2664H136.232C135.965 31.1502 133.036 36.538 130.387 36.538ZM124.541 20.9504C124.808 13.0666 127.737 7.67874 130.387 7.67874C133.036 7.67874 135.965 13.0786 136.232 20.9504H124.541ZM125.477 8.51872C123.593 11.3026 122.366 15.7305 122.208 20.9504H115.828C116.289 15.2026 120.178 10.3907 125.477 8.51872ZM115.828 23.2664H122.208C122.366 28.4862 123.593 32.9141 125.477 35.698C120.178 33.8261 116.289 29.0142 115.828 23.2664ZM135.296 35.698C137.18 32.9141 138.407 28.4862 138.565 23.2664H144.945C144.484 29.0142 140.595 33.8261 135.296 35.698Z" fill="white"/>
</g>
<g id="Group 212">
<path id="Vector_5" d="M76.3852 44.2069C88.7482 44.2069 98.7704 34.3109 98.7704 22.1035C98.7704 9.89605 88.7482 0 76.3852 0C64.0222 0 54 9.89605 54 22.1035C54 34.3109 64.0222 44.2069 76.3852 44.2069Z" fill="#383A46" fill-opacity="0.4"/>
<g id="Group">
<path id="Vector_6" d="M68.2428 10.98C69.6768 10.98 70.8313 12.132 70.8192 13.5359C70.8192 14.9519 69.6404 16.0919 68.2063 16.0919C66.7723 16.0919 65.6178 14.9399 65.63 13.5359C65.63 12.12 66.8088 10.98 68.2428 10.98Z" fill="white"/>
<path id="Vector_7" d="M70.4287 18.0352L70.3193 32.2548H65.835L65.9443 18.0352H70.4287Z" fill="white"/>
<path id="Vector_8" d="M81.817 17.689C86.3499 17.689 87.1642 20.6289 87.1277 24.4568L87.0669 32.2566H82.5948L82.6434 25.3448C82.6555 23.6888 82.6434 21.5649 80.3465 21.5649C78.0497 21.5649 77.6486 23.3648 77.6365 25.2248L77.5878 32.2566H73.1035L73.2129 18.037H77.5028V19.9809H77.5514C78.159 18.8649 79.6295 17.689 81.8048 17.689H81.817Z" fill="white"/>
</g>
</g>
</g>
</svg>
