<svg width="50" height="39" viewBox="0 0 50 39" fill="none" xmlns="http://www.w3.org/2000/svg">
<path id="Vector" d="M31.4196 0.335449H18.1912C14.7815 0.335449 11.9965 2.88219 11.9965 6.00031V7.3063H4.89144C2.19578 7.3063 0 9.31434 0 11.7795V33.9328C0 36.3979 2.19578 38.4059 4.89144 38.4059H44.7015C47.3972 38.4059 49.5929 36.3979 49.5929 33.9328V11.7795C49.5929 9.31434 47.3972 7.3063 44.7015 7.3063H37.5964V6.00031C37.5964 2.88219 34.8114 0.335449 31.4017 0.335449H31.4196ZM20.0836 36.4632H18.691V8.67762H20.0836V36.4632ZM28.5097 36.4632H21.0833V8.67762H28.5097V36.4632ZM30.9198 36.4632H29.5094V8.67762H30.9198V36.4632ZM31.7053 7.3063H17.9056V6.00031C17.9056 5.85338 18.0306 5.7391 18.1912 5.7391H31.4196C31.5802 5.7391 31.7053 5.85338 31.7053 6.00031V7.3063ZM44.7015 9.15106C46.2903 9.15106 47.5935 10.3428 47.5935 11.7957V33.9491C47.5935 35.402 46.2903 36.5938 44.7015 36.5938H31.9195V9.15106H32.705C33.2584 9.15106 33.7047 8.74294 33.7047 8.23685V6.00031C33.7047 4.84121 32.6692 3.89434 31.4017 3.89434H18.1734C16.9059 3.89434 15.8705 4.84121 15.8705 6.00031V8.23685C15.8705 8.74294 16.3168 9.15106 16.8702 9.15106H17.6557V36.5938H4.87357C3.28474 36.5938 1.98155 35.402 1.98155 33.9491V11.7957C1.98155 10.3428 3.28474 9.15106 4.87357 9.15106H12.9785C13.5319 9.15106 13.9782 8.74294 13.9782 8.23685V6.00031C13.9782 3.89435 15.8526 2.18021 18.1555 2.18021H31.3839C33.6868 2.18021 35.5613 3.89435 35.5613 6.00031V8.23685C35.5613 8.74294 36.0075 9.15106 36.561 9.15106H44.6659H44.7015Z" fill="#F1B701"/>
</svg>
