<svg width="32" height="32" viewBox="0 0 32 32" fill="none" xmlns="http://www.w3.org/2000/svg">
<g id="alarm">
<mask id="mask0_486_455" style="mask-type:alpha" maskUnits="userSpaceOnUse" x="0" y="0" width="32" height="32">
<rect id="Bounding box" width="32" height="32" fill="#D9D9D9"/>
</mask>
<g mask="url(#mask0_486_455)">
<path id="alarm_2" d="M15.9998 29.3333C14.3331 29.3333 12.772 29.0166 11.3165 28.3833C9.86092 27.75 8.59425 26.8944 7.51647 25.8166C6.43869 24.7389 5.58314 23.4722 4.94981 22.0166C4.31647 20.5611 3.9998 19 3.9998 17.3333C3.9998 15.6666 4.31647 14.1055 4.94981 12.65C5.58314 11.1944 6.43869 9.92774 7.51647 8.84997C8.59425 7.77219 9.86092 6.91663 11.3165 6.2833C12.772 5.64997 14.3331 5.3333 15.9998 5.3333C17.6665 5.3333 19.2276 5.64997 20.6831 6.2833C22.1387 6.91663 23.4054 7.77219 24.4831 8.84997C25.5609 9.92774 26.4165 11.1944 27.0498 12.65C27.6831 14.1055 27.9998 15.6666 27.9998 17.3333C27.9998 19 27.6831 20.5611 27.0498 22.0166C26.4165 23.4722 25.5609 24.7389 24.4831 25.8166C23.4054 26.8944 22.1387 27.75 20.6831 28.3833C19.2276 29.0166 17.6665 29.3333 15.9998 29.3333ZM19.7331 22.9333L21.5998 21.0666L17.3331 16.8V10.6666H14.6665V17.8666L19.7331 22.9333ZM7.46647 3.1333L9.33314 4.99997L3.66647 10.6666L1.7998 8.79997L7.46647 3.1333ZM24.5331 3.1333L30.1998 8.79997L28.3331 10.6666L22.6665 4.99997L24.5331 3.1333ZM15.9998 26.6666C18.5998 26.6666 20.8054 25.7611 22.6165 23.95C24.4276 22.1389 25.3331 19.9333 25.3331 17.3333C25.3331 14.7333 24.4276 12.5277 22.6165 10.7166C20.8054 8.90552 18.5998 7.99997 15.9998 7.99997C13.3998 7.99997 11.1943 8.90552 9.38314 10.7166C7.57203 12.5277 6.66647 14.7333 6.66647 17.3333C6.66647 19.9333 7.57203 22.1389 9.38314 23.95C11.1943 25.7611 13.3998 26.6666 15.9998 26.6666Z" fill="#34414D"/>
</g>
</g>
</svg>
