<svg width="45" height="52" viewBox="0 0 45 52" fill="none" xmlns="http://www.w3.org/2000/svg">
<g id="Group">
<path id="Vector" d="M34.1499 21.8511H6.62965C5.5271 21.8511 5.5271 23.4165 6.62965 23.4165H34.1499C35.2524 23.4165 35.2524 21.8511 34.1499 21.8511Z" fill="#F1B701"/>
<path id="Vector_2" d="M34.1499 28.9883H6.62965C5.5271 28.9883 5.5271 30.5537 6.62965 30.5537H34.1499C35.2524 30.5537 35.2524 28.9883 34.1499 28.9883Z" fill="#F1B701"/>
<path id="Vector_3" d="M34.1499 36.1255H6.62965C5.5271 36.1255 5.5271 37.6909 6.62965 37.6909H34.1499C35.2524 37.6909 35.2524 36.1255 34.1499 36.1255Z" fill="#F1B701"/>
<path id="Vector_4" d="M34.1499 43.2629H6.62965C5.5271 43.2629 5.5271 44.8283 6.62965 44.8283H34.1499C35.2524 44.8283 35.2524 43.2629 34.1499 43.2629Z" fill="#F1B701"/>
<path id="Vector_5" d="M9.54617 15.5094C9.54617 14.4082 8.55975 13.5061 7.35565 13.5061C6.15155 13.5061 5.16504 14.4082 5.16504 15.5094C5.16504 16.6105 6.15155 17.5126 7.35565 17.5126C8.55975 17.5126 9.54617 16.6105 9.54617 15.5094ZM6.06448 15.5094C6.06448 14.8593 6.64479 14.3286 7.35565 14.3286C8.0665 14.3286 8.64673 14.8593 8.64673 15.5094C8.64673 16.1594 8.0665 16.6768 7.35565 16.6768C6.64479 16.6768 6.06448 16.1462 6.06448 15.5094Z" fill="#F1B701"/>
<path id="Vector_6" d="M13.8693 17.5126C15.0734 17.5126 16.0599 16.6105 16.0599 15.5094C16.0599 14.4082 15.0734 13.5061 13.8693 13.5061C12.6652 13.5061 11.6787 14.4082 11.6787 15.5094C11.6787 16.6105 12.6652 17.5126 13.8693 17.5126ZM13.8693 14.3286C14.5802 14.3286 15.1604 14.8593 15.1604 15.5094C15.1604 16.1594 14.5802 16.6768 13.8693 16.6768C13.1585 16.6768 12.5782 16.1462 12.5782 15.5094C12.5782 14.8726 13.1585 14.3286 13.8693 14.3286Z" fill="#F1B701"/>
<path id="Vector_7" d="M20.3967 17.5126C21.6008 17.5126 22.5873 16.6105 22.5873 15.5094C22.5873 14.4082 21.6008 13.5061 20.3967 13.5061C19.1926 13.5061 18.2061 14.4082 18.2061 15.5094C18.2061 16.6105 19.1926 17.5126 20.3967 17.5126ZM20.3967 14.3286C21.1075 14.3286 21.6877 14.8593 21.6877 15.5094C21.6877 16.1594 21.1075 16.6768 20.3967 16.6768C19.6858 16.6768 19.1055 16.1462 19.1055 15.5094C19.1055 14.8726 19.6858 14.3286 20.3967 14.3286Z" fill="#F1B701"/>
<path id="Vector_8" d="M26.926 17.5126C28.1301 17.5126 29.1166 16.6105 29.1166 15.5094C29.1166 14.4082 28.1301 13.5061 26.926 13.5061C25.7219 13.5061 24.7354 14.4082 24.7354 15.5094C24.7354 16.6105 25.7219 17.5126 26.926 17.5126ZM26.926 14.3286C27.6368 14.3286 28.217 14.8593 28.217 15.5094C28.217 16.1594 27.6368 16.6768 26.926 16.6768C26.2151 16.6768 25.6348 16.1462 25.6348 15.5094C25.6348 14.8726 26.2151 14.3286 26.926 14.3286Z" fill="#F1B701"/>
<path id="Vector_9" d="M31.248 15.5094C31.248 16.6105 32.2346 17.5126 33.4387 17.5126C34.6428 17.5126 35.6293 16.6105 35.6293 15.5094C35.6293 14.4082 34.6428 13.5061 33.4387 13.5061C32.2346 13.5061 31.248 14.4082 31.248 15.5094ZM33.4387 14.3286C34.1495 14.3286 34.7298 14.8593 34.7298 15.5094C34.7298 16.1594 34.1495 16.6768 33.4387 16.6768C32.7278 16.6768 32.1475 16.1462 32.1475 15.5094C32.1475 14.8726 32.7278 14.3286 33.4387 14.3286Z" fill="#F1B701"/>
<path id="Vector_10" d="M43.3477 12.8031C42.9415 12.8031 42.4337 12.8031 41.8679 12.7765V8.02711H36.1375C37.1821 7.16479 37.7914 5.89126 37.8059 4.76361C37.8204 3.18489 36.7904 2.00417 35.035 1.60617C33.7438 1.31431 32.6123 1.48677 31.7419 2.09703C30.8714 2.70729 30.2911 3.74202 30.0735 5.02887L30.0445 4.98911C29.3481 3.91453 29.5657 2.81339 29.9429 1.48674C30.146 0.743813 29.5948 0.173399 28.9709 0.0407339C28.3471 -0.105198 27.6072 0.133606 27.4041 0.87653C26.9109 2.68077 26.5628 4.98909 28.3617 6.95253C28.7389 7.35053 29.1741 7.72199 29.6528 8.02711H0V51.9259H41.8679V15.1778C42.2306 15.191 42.5933 15.2043 42.9705 15.2043C43.1011 15.2043 43.2316 15.2043 43.3621 15.2043C44.2035 15.1911 44.6533 14.5543 44.6388 13.9706C44.6388 13.3868 44.1746 12.8164 43.3477 12.8164V12.8031ZM40.5042 9.27417V12.6306C38.2266 12.3122 35.4702 11.4499 33.7438 9.27417H40.5042ZM40.5042 50.679H1.36369V9.27417H30.6683C32.3656 12.4449 35.949 14.5012 40.5042 15.0584V50.679ZM43.3477 14.3685C37.8059 14.4747 33.3521 12.4184 31.4807 8.90275C31.3356 8.63742 31.2195 8.3455 31.118 8.01384L31.06 7.82817L30.8714 7.74857C30.1605 7.43017 29.5367 6.96586 29.0435 6.4352C27.5202 4.77689 27.7959 2.80015 28.2746 1.10204C28.3327 0.903041 28.4777 0.863251 28.5937 0.863251C28.6373 0.863251 28.6953 0.863264 28.7243 0.87653C28.7969 0.889797 29.1305 0.982604 29.0289 1.31427C28.6227 2.77358 28.3616 4.10029 29.2321 5.44021C29.4497 5.77187 29.7399 6.09022 30.088 6.38208L30.8279 7.00565V6.07698C30.8714 4.57786 31.3937 3.37061 32.2641 2.76035C32.917 2.30929 33.7584 2.18989 34.7884 2.42869C36.6163 2.83995 36.8774 4.07375 36.8774 4.76361C36.8629 6.14332 35.7749 7.78837 33.976 8.15983C33.5988 8.23943 33.1926 8.26596 32.7864 8.23942L31.974 8.18631L32.3512 8.84963C34.9335 13.3072 40.9104 13.6786 43.3621 13.6521C43.6668 13.6521 43.7104 13.8909 43.7104 13.997C43.7104 14.0634 43.7104 14.3818 43.3332 14.3818L43.3477 14.3685Z" fill="#F1B701"/>
<path id="Vector_11" d="M34.8324 7.05871C36.3411 6.14332 36.2396 5.13507 36.109 4.73707C35.8624 3.92782 34.963 3.31759 33.962 3.27779C32.9319 3.23799 32.0761 3.82169 31.6554 4.82995C31.3942 5.46674 31.3651 6.20963 31.5827 7.03215L31.6408 7.25774L31.8874 7.32406C32.2936 7.44346 32.6999 7.50981 33.0916 7.50981C33.7154 7.50981 34.3101 7.35056 34.8324 7.04543V7.05871ZM32.4242 6.6209C32.3081 6.05044 32.3371 5.57285 32.5112 5.13505C32.7869 4.45846 33.2802 4.10025 33.9185 4.12679C34.5133 4.15332 35.079 4.5248 35.2241 4.97586C35.3692 5.44019 35.05 5.93103 34.3246 6.36883C33.6718 6.76682 32.961 6.74029 32.4242 6.6209Z" fill="#F1B701"/>
</g>
</svg>
