<svg width="32" height="32" viewBox="0 0 32 32" fill="none" xmlns="http://www.w3.org/2000/svg">
<g id="date_range">
<mask id="mask0_486_444" style="mask-type:alpha" maskUnits="userSpaceOnUse" x="0" y="0" width="32" height="32">
<rect id="Bounding box" width="32" height="32" fill="#D9D9D9"/>
</mask>
<g mask="url(#mask0_486_444)">
<path id="date_range_2" d="M10.3557 18.8003C9.97789 18.8003 9.66122 18.6725 9.40567 18.417C9.15011 18.1614 9.02233 17.8448 9.02233 17.467C9.02233 17.0892 9.15011 16.7725 9.40567 16.517C9.66122 16.2614 9.97789 16.1337 10.3557 16.1337C10.7334 16.1337 11.0501 16.2614 11.3057 16.517C11.5612 16.7725 11.689 17.0892 11.689 17.467C11.689 17.8448 11.5612 18.1614 11.3057 18.417C11.0501 18.6725 10.7334 18.8003 10.3557 18.8003ZM16.0667 18.8003C15.6889 18.8003 15.3722 18.6725 15.1167 18.417C14.8611 18.1614 14.7333 17.8448 14.7333 17.467C14.7333 17.0892 14.8611 16.7725 15.1167 16.517C15.3722 16.2614 15.6889 16.1337 16.0667 16.1337C16.4444 16.1337 16.7611 16.2614 17.0167 16.517C17.2722 16.7725 17.4 17.0892 17.4 17.467C17.4 17.8448 17.2722 18.1614 17.0167 18.417C16.7611 18.6725 16.4444 18.8003 16.0667 18.8003ZM21.6223 18.8003C21.2446 18.8003 20.9279 18.6725 20.6723 18.417C20.4168 18.1614 20.289 17.8448 20.289 17.467C20.289 17.0892 20.4168 16.7725 20.6723 16.517C20.9279 16.2614 21.2446 16.1337 21.6223 16.1337C22.0001 16.1337 22.3168 16.2614 22.5723 16.517C22.8279 16.7725 22.9557 17.0892 22.9557 17.467C22.9557 17.8448 22.8279 18.1614 22.5723 18.417C22.3168 18.6725 22.0001 18.8003 21.6223 18.8003ZM6.22233 29.3337C5.62233 29.3337 5.10189 29.1133 4.661 28.6727C4.22033 28.2318 4 27.7113 4 27.1113V7.11133C4 6.51133 4.22033 5.99099 4.661 5.55033C5.10189 5.10966 5.62233 4.88932 6.22233 4.88932H8.111V2.66699H10.4443V4.88932H21.5557V2.66699H23.889V4.88932H25.7777C26.3777 4.88932 26.8981 5.10966 27.339 5.55033C27.7797 5.99099 28 6.51133 28 7.11133V27.1113C28 27.7113 27.7797 28.2318 27.339 28.6727C26.8981 29.1133 26.3777 29.3337 25.7777 29.3337H6.22233ZM6.22233 27.1113H25.7777V13.1113H6.22233V27.1113ZM6.22233 10.8893H25.7777V7.11133H6.22233V10.8893Z" fill="#34414D"/>
</g>
</g>
</svg>
