<svg width="60" height="67" viewBox="0 0 60 67" fill="none" xmlns="http://www.w3.org/2000/svg">
<g id="a" clip-path="url(#clip0_137_1256)">
<path id="Vector" fill-rule="evenodd" clip-rule="evenodd" d="M46.3719 1.17627C47.2974 2.89508 48.4005 3.32676 49.6418 4.84162C51.0626 6.58419 51.1988 5.54261 52.1223 6.60597C52.6867 7.21785 54.1509 6.22181 54.6028 7.17231C54.8968 7.78419 56.0453 8.14459 56.3394 7.42181C56.7459 6.4931 57.4662 6.35845 58.3009 5.63369C58.887 5.99607 57.7365 6.85548 57.6477 7.39805C57.3991 9.43369 57.3991 8.03171 58.0088 10.0911C58.1667 10.5664 58.8436 10.2713 59.4967 10.3406C59.3843 10.5208 59.7 10.5901 58.9107 10.7485C58.1884 10.8832 57.9181 12.3782 57.3103 11.8119C56.6788 11.1782 57.8056 12.2198 56.2506 11.7664C55.9802 12.3089 56.2052 12.7169 54.9876 12.3327C54.2437 12.0832 52.3709 12.9664 52.0118 13.9386C51.4928 15.4099 51.6743 15.2733 51.6961 16.8357C51.6961 16.9941 51.921 17.2198 51.3586 16.9941C50.2535 16.5188 50.141 16.0218 48.5407 15.7505C47.6151 15.5921 46.7133 15.7723 46.737 14.9367C46.3542 14.6198 44.3236 14.3485 44.144 14.8238C43.8066 15.707 44.0078 15.5485 43.1297 14.8238C42.9047 14.6436 42.0246 14.2357 41.7543 14.4396C40.6038 15.2099 40.9432 15.7287 42.07 16.4317C42.6107 16.7941 44.3019 15.8654 44.3019 16.8396C44.2802 17.4951 45.5194 17.0891 44.7538 18.4693C44.5959 18.7406 44.7755 18.808 44.1894 18.5367C43.4454 18.1981 42.814 17.6535 42.3404 18.7862C41.8214 19.9624 41.9338 19.5782 40.2881 19.6C39.5658 19.6218 42.2733 16.9307 40.0631 16.6139C39.8835 16.5921 39.0942 15.8674 39.5441 15.1208C40.2664 13.9208 39.2501 13.4693 41.0557 13.5584C41.7543 13.604 41.259 12.4278 41.9812 12.5862C42.2062 11.907 39.7493 10.006 42.7035 11.3426C43.4928 11.705 43.4928 11.3426 44.5762 11.8179C45.4563 12.2258 44.2604 9.39607 45.1623 8.55845C46.2002 7.56241 44.5525 7.58617 45.772 6.29508C46.3127 5.75251 45.4346 4.84756 45.6359 3.82775C45.9733 2.03964 42.4785 3.53469 45.7937 1.56439C45.9516 1.4733 46.3798 1.20201 46.3798 1.18023L46.3719 1.17627ZM42.4923 21.0891C42.4923 21.3842 42.4706 22.808 43.1692 22.2891C43.4395 22.0852 43.6645 21.202 44.0256 21.9723C44.3413 22.6971 45.1307 21.3169 45.0636 20.8416C45.0182 20.4337 44.7261 20.3664 44.4321 20.6377C44.0493 20.4792 44.0947 20.5248 43.7099 20.7961C42.8751 21.3624 43.3724 20.004 43.3724 19.6198C43.3724 19.0317 44.296 18.9188 44.4538 19.2812C44.7025 19.802 44.6117 19.7565 45.3339 19.4852C46.1687 19.1683 45.626 20.7743 45.626 21.1367C45.6477 21.703 45.5589 23.3763 46.1904 23.5347C47.1376 23.7386 46.2358 24.4852 47.0468 25.2773C47.3843 25.5941 47.2047 25.6852 47.5658 26.0911C47.7908 26.3624 47.6112 26.703 48.1756 27.3129C48.2881 27.4258 48.1973 27.8337 48.1756 27.9921C48.4913 29.4396 46.6877 30.5723 46.6877 30.5941C46.5081 31.1149 46.8238 33.1961 46.147 33.2198C44.9294 33.2654 44.4321 33.4693 44.4321 35.0297C44.4538 36.5466 45.0636 36.0713 44.9057 38.4476C44.8603 39.4198 45.4918 39.1941 44.4775 39.6238C43.9131 39.8733 44.0039 40.9129 43.9131 41.4575C43.8223 42.0693 43.3724 43.5169 43.846 43.9921C45.2215 45.5307 43.8677 45.3961 43.3507 45.8476C43.1258 46.0515 42.7863 46.6178 42.9225 46.9109C43.0133 47.1149 43.1475 47.8159 42.9225 47.9287C42.4272 48.2 41.7049 48.1782 41.6142 48.8555C41.5234 49.5109 40.5999 48.5169 40.8702 47.8377C41.253 46.9545 41.8845 46.9109 41.8174 45.8693C41.7503 44.9862 40.3058 46.0278 40.217 46.1644C40.0592 46.4357 40.5781 47.3644 40.3295 47.703C39.9684 48.1782 40.0809 46.8436 39.0666 47.2278C38.3443 47.4773 38.368 46.7525 38.1647 47.8159C38.1193 48.0654 37.6694 48.1109 38.074 48.699C38.4805 49.3109 38.4114 49.3782 37.8944 49.8535C37.5333 50.1703 37.3991 50.1485 37.2412 50.3961C36.9038 50.9169 36.6097 49.9208 36.588 49.6495C36.588 49.2198 37.2412 48.5406 36.296 48.5406C36.1835 48.5406 35.8224 48.699 35.7099 48.8575C35.3941 49.3545 35.7316 49.1525 35.2816 49.4456C35.2514 49.4759 35.229 49.5136 35.2146 49.5584C35.0113 50.0792 34.9659 50.0792 34.9205 50.6C34.8988 50.9386 34.3344 50.9386 34.1983 50.5782C34.1312 50.3743 33.995 50.4198 33.703 50.5109C33.5668 50.5565 32.7775 51.0079 33.2076 50.103C33.6813 49.1525 33.8174 49.1307 32.8919 49.7644C31.9664 50.4198 32.7123 48.4297 32.0118 50.103C31.8322 50.5565 31.402 50.398 30.7942 50.5565C30.1845 50.7149 30.072 50.9188 30.1174 50.4654C30.1845 49.8535 30.8613 50.0357 30.366 49.9228C29.7128 49.7644 30.5022 48.8357 29.6221 49.9228C29.1267 50.5347 28.9906 49.6515 29.2609 49.0852C29.5767 48.4297 30.1174 47.9545 28.8544 48.3149C28.2012 48.5188 28.3354 48.8119 28.0651 49.4456C27.3882 51.2337 29.5313 50.8495 29.6438 51.5268C29.8924 52.8614 29.3951 52.0238 28.5624 52.0693C28.517 52.0911 27.5481 52.5228 27.5027 52.5901C27.0074 53.2911 27.7513 53.4733 26.9166 53.903C26.5555 54.0832 26.5101 54.6277 26.1489 55.103C25.7207 55.6456 25.9457 55.5327 25.8115 55.7822C25.4741 55.8495 24.7518 55.8495 24.4578 55.6476C23.7138 55.1268 24.0296 55.5802 23.7592 54.5386C23.7138 54.3347 23.037 54.4475 22.9916 53.8832C22.9699 53.3406 22.1114 54.0872 22.4055 52.9545C22.6541 52.0258 21.9536 52.3664 23.3744 51.3703C23.6684 51.1664 24.0276 51.0753 23.848 50.5109C23.1711 50.3307 21.8194 50.4654 21.7286 51.3941C21.7286 51.5307 21.8648 52.3228 21.4366 52.4119C20.9412 52.503 20.8505 51.8911 20.963 51.7327C21.3912 51.1901 22.068 51.0535 21.8431 50.2396C20.7834 49.8099 19.8362 49.8317 18.7311 50.1268C18.5061 50.6931 18.8672 50.8733 17.9417 50.602C17.626 50.4891 17.8293 50.9188 17.8746 51.0317C17.8746 51.0317 17.6497 51.3268 17.0182 51.099C16.8603 51.0535 16.4775 51.008 16.3867 51.1901C16.3867 51.2119 15.8223 52.2079 15.3034 51.2357C15.2126 51.0773 14.3561 51.6654 13.9733 51.7327C13.1169 51.9367 13.2747 52.1862 12.959 52.2535C12.44 52.3664 12.148 51.3485 11.9901 51.1683C11.2915 51.305 11.4948 51.6218 11.2244 52.3228C10.6147 53.907 11.6073 53.1367 11.5619 54.0872C11.5619 54.2218 10.9975 54.0872 10.7725 53.8832C10.2989 53.4535 9.69112 53.204 9.08135 53C8.90178 52.4119 8.3374 53 8.2703 53C7.90918 52.9327 7.97627 52.4119 7.48096 53.0674C7.32309 53.2713 7.05274 52.8872 7.02906 52.8634C6.19433 52.5921 6.55545 53.2713 6.12723 52.9981C6.01475 52.907 6.12723 52.2278 6.03646 51.9129C5.87859 51.3703 5.81149 50.9842 6.3739 50.6674C6.59887 50.5545 7.16325 50.7347 7.79472 50.4178C8.13217 50.2594 7.99798 51.0297 9.28263 50.0555C9.91411 49.5802 9.37341 49.5584 10.5219 49.0832C11.0626 48.8792 11.627 48.2 11.9427 48.0416C12.5525 47.6337 12.1223 47.7703 13.0478 47.2951C13.6122 47.0238 12.2585 46.5941 13.8589 46.4119C14.8278 46.299 14.1529 45.9584 15.2343 45.8238C15.7079 45.7565 14.5811 46.7287 15.0981 46.9545C15.4139 47.0911 16.2703 45.9584 17.1958 46.3426C17.4445 46.4337 19.7888 46.3881 19.9013 46.1169C20.0374 45.8456 19.923 45.4832 20.8702 45.7545C21.3438 45.8911 21.4109 45.3466 21.9753 45.8456C22.6068 46.4119 23.9605 44.3743 23.5323 45.5961C23.1711 46.6377 22.81 45.7327 23.4652 46.9089C24.2091 46.9763 23.6447 45.8911 24.3453 46.6594C24.5032 46.8396 25.7424 47.0218 25.8115 46.0476C25.8569 45.4812 26.2851 45.1881 26.6679 45.8436C26.8258 45.8891 26.8929 45.301 26.4647 45.0297C26.2614 44.8713 26.0128 44.0119 26.5555 43.5129C27.2777 42.8575 26.4884 42.2456 27.9092 42.0198C28.8564 41.8832 28.7202 41.0911 29.2175 40.2317C29.5786 39.598 27.4356 38.5565 30.5929 37.5169C32.1499 36.9961 31.0883 38.3089 30.368 38.5347C29.4425 38.8515 30.0976 39.3268 29.8273 40.4575C29.6931 41.0456 31.0902 40.707 31.5421 40.8198C31.925 40.3228 31.7671 40.1188 32.1282 39.9822C32.1953 39.9367 32.2644 39.9367 32.2861 39.8456C32.6018 39.9367 32.2644 39.5505 33.0537 39.3248C33.8431 39.099 34.0226 38.4416 34.5653 38.7367C35.1968 39.099 36.7084 36.7901 36.7518 36.3842C36.9097 34.505 38.5101 35.7961 38.962 33.4654C39.3231 31.5426 40.2466 31.2713 40.4499 30.0713C40.5407 29.505 40.292 29.6872 40.6985 29.1208C41.4208 28.0792 40.9018 25.8614 39.8875 26.8357C39.3231 27.3565 39.1889 25.907 39.7967 25.7723C41.6911 25.3644 40.5189 24.8674 40.4065 23.804C40.4065 23.7802 39.5263 22.6733 40.813 22.4693C41.5352 22.3565 41.4898 23.3961 41.8056 22.1743C42.1667 20.7941 41.5806 21.4951 41.5806 20.7703C42.1904 20.4753 42.2338 20.8159 42.3917 20.907L42.5041 21.0872L42.4923 21.0891ZM15.1396 53.4258C14.147 54.1723 14.5081 53.0634 13.7858 52.6119C13.0873 52.907 14.0345 53.9703 11.6428 55.4178C11.1692 55.7129 12.3413 56.7307 11.846 57.3406C11.3507 57.9525 12.4558 58.0416 12.5446 58.2911C12.7479 58.8792 12.2072 58.7208 13.3122 58.7664C13.3576 58.7664 14.2812 60.0555 13.9891 58.5406C13.9437 58.2456 13.6063 57.6119 14.4844 57.5228C15.3645 57.4099 14.2594 56.3228 15.8145 55.6891C16.0631 55.5763 16.5821 54.2416 16.6492 55.5307C16.7163 56.503 17.4385 54.4891 18.4311 56.9109C18.5219 57.1604 19.333 57.6357 19.333 56.3901C19.3112 54.1723 21.2491 55.101 21.0478 53.9228C20.957 53.3347 20.5742 53.7862 20.4617 52.4753C20.4163 52.0911 19.7849 52.4297 19.2659 51.9327C18.5219 51.2773 16.4242 51.9782 16.74 52.7921C16.9195 53.3129 15.9506 53.3802 15.5007 53.5842C15.3211 53.6753 15.1632 53.4258 15.1396 53.4258ZM0.820868 55.6891C1.00044 55.6674 1.83518 56.4594 1.81347 55.598C1.81347 55.5763 0.887962 54.398 2.15091 54.5565C2.71529 55.6436 2.69161 54.2396 3.41386 54.1723C4.42817 54.0812 3.77499 54.6931 4.04534 53.6297C4.11243 53.3129 4.83468 53.4258 5.03794 53.5169C5.24119 54.2634 5.15042 53.1327 6.07593 53.2674C6.48244 53.3347 5.76019 53.7208 6.93236 54.3763C7.58555 54.7604 7.40597 55.5763 8.44396 54.8733C9.75229 53.9901 8.48934 56.2317 8.66892 56.3901C9.05175 56.7743 9.3004 55.9367 9.3004 57.1149C10.0226 57.2951 10.1114 56.8654 9.75229 57.7703C9.70691 57.9287 10.5199 58.0654 9.16621 59.3089C8.64721 59.7624 8.28609 61.6852 7.60923 62.5228C7.22639 62.9763 8.21899 63.3149 7.2481 64.9664C6.57124 64.7406 5.51154 63.7446 5.89438 65.2159C6.07395 65.8951 5.01426 66.099 4.36108 66.5743C3.75131 67.0495 3.79669 66.1208 4.38278 65.4891C4.63143 65.2178 3.68421 64.0852 4.58604 64.1763C5.08135 64.2218 4.96887 63 4.22491 63.4753C3.7296 63.7921 4.06705 64.0872 3.70592 63.9961C3.02906 64.6971 4.49526 65.6258 3.39018 65.5565C2.96196 65.5347 3.21061 65.2396 2.44297 65.307C2.03646 65.3287 1.90227 64.8099 2.60084 64.402C3.32309 63.9941 2.21801 62.8634 2.19433 62.3881C2.17262 61.5961 2.55545 62.1624 2.01475 61.0753C1.94766 60.9386 2.60084 60.6 2.78239 61.4139C2.89487 61.8891 3.55002 60.6218 3.61712 59.9208C3.68421 59.4238 5.08333 59.7842 4.60972 59.1287C4.29398 58.6753 3.25599 59.4911 3.95654 57.9981C4.13611 57.6139 3.48293 56.505 3.27967 56.4139C2.26537 56.0753 2.08382 56.8436 2.78436 57.2278C2.78436 57.7703 2.42324 57.5228 3.033 57.7703C3.70987 58.0198 2.76265 59.7624 2.19827 58.8119C1.45432 57.6119 1.31815 58.5624 0.574198 58.1327C-0.0355698 57.7703 0.483424 56.9565 0.98071 57.5446C1.34184 57.9743 2.44692 57.2733 0.552491 56.301C0.552491 56.301 0.258461 55.9842 0.71036 55.9842C1.16226 55.9842 0.822842 55.6891 0.822842 55.6891H0.820868ZM1.99304 59.5129C1.85688 60.101 1.51944 60.1683 1.38328 60.6436C1.31618 60.8693 1.67533 61.0277 1.92398 60.6654C2.08185 60.4159 2.41929 60.0317 2.73503 60.0317C3.07247 60.0079 3.07247 60.0535 3.3448 59.8278C3.3665 59.804 3.43557 59.6911 3.29941 59.6476C2.60084 59.4436 2.78041 59.7822 2.44297 59.7604C2.15091 59.7386 2.2851 59.105 2.01475 59.4891L1.99304 59.5109V59.5129ZM34.443 34.3941C34.7804 34.3485 34.9383 33.7149 35.6388 33.7149C36.2703 33.6931 35.4139 34.3941 35.2777 34.6436C35.5263 34.8931 36.067 34.1466 36.0217 35.2555C36.0217 35.798 35.5698 36.0693 35.1198 36.3862C34.9403 36.499 34.0148 36.9525 33.8569 36.8832C33.7898 35.8198 34.9837 35.5485 34.3976 35.3901C33.9023 35.2535 34.8258 34.802 34.5101 34.6891C34.2851 34.5763 34.4193 34.3941 34.443 34.3941Z" stroke="#029FC8" stroke-width="1.5" stroke-miterlimit="10"/>
</g>
<defs>
<clipPath id="clip0_137_1256">
<rect width="60" height="67" fill="white"/>
</clipPath>
</defs>
</svg>
