<svg width="25" height="25" viewBox="0 0 25 25" fill="none" xmlns="http://www.w3.org/2000/svg">
<g id="north_west">
<mask id="mask0_248_377" style="mask-type:alpha" maskUnits="userSpaceOnUse" x="0" y="0" width="25" height="25">
<rect id="Bounding box" x="24.5" y="24.5" width="24" height="24" transform="rotate(180 24.5 24.5)" fill="#D9D9D9"/>
</mask>
<g mask="url(#mask0_248_377)">
<path id="north_west_2" d="M17.5 16.1V10.5C17.5 10.2167 17.5958 9.97917 17.7875 9.7875C17.9792 9.59583 18.2167 9.5 18.5 9.5C18.7833 9.5 19.0208 9.59583 19.2125 9.7875C19.4042 9.97917 19.5 10.2167 19.5 10.5V18.5C19.5 18.7833 19.4042 19.0208 19.2125 19.2125C19.0208 19.4042 18.7833 19.5 18.5 19.5H10.5C10.2167 19.5 9.97917 19.4042 9.7875 19.2125C9.59583 19.0208 9.5 18.7833 9.5 18.5C9.5 18.2167 9.59583 17.9792 9.7875 17.7875C9.97917 17.5958 10.2167 17.5 10.5 17.5H16.1L5.2 6.6C5.01667 6.41667 4.925 6.18333 4.925 5.9C4.925 5.61667 5.01667 5.38333 5.2 5.2C5.38333 5.01667 5.61667 4.925 5.9 4.925C6.18333 4.925 6.41667 5.01667 6.6 5.2L17.5 16.1Z" fill="white"/>
</g>
</g>
</svg>
