<svg width="30" height="34" viewBox="0 0 30 34" fill="none" xmlns="http://www.w3.org/2000/svg">
<g id="Icon">
<path id="Vector" d="M19.56 33.125C19.7379 33.125 19.8977 33.0683 20.0298 32.9728C20.2024 32.9649 20.3588 32.8917 20.4884 32.7823L20.4886 32.7825L20.4941 32.7771L26.8058 26.7462C26.806 26.746 26.8062 26.7458 26.8065 26.7456C26.9461 26.6155 27.0166 26.4339 27.0245 26.2541C27.0856 26.1397 27.125 25.9988 27.125 25.8563V3.52605C27.125 2.06418 25.9536 0.875 24.5067 0.875H3.49329C2.04642 0.875 0.875 2.06418 0.875 3.52605V30.4739C0.875 31.9358 2.04642 33.125 3.49329 33.125H19.56ZM24.5142 26.9412L20.7123 30.5756V28.5542C20.7123 27.6613 21.4262 26.9412 22.2926 26.9412H24.5142ZM18.7369 31.4907H3.49329C2.95549 31.4907 2.51128 31.043 2.51128 30.4942V3.54628C2.51128 2.99741 2.9555 2.54967 3.49329 2.54967H24.5067C25.0445 2.54967 25.4887 2.99741 25.4887 3.54628V25.0544H22.3824C20.3671 25.0544 18.7369 26.7084 18.7369 28.7462V31.4907Z" fill="#029FC8" stroke="#029FC8" stroke-width="0.25"/>
<path id="Vector_2" d="M6.66307 11.125H21.3369C21.7908 11.125 22.125 10.6927 22.125 10.2099V8.79008C22.125 8.30735 21.7908 7.875 21.3369 7.875H6.66307C6.20924 7.875 5.875 8.30735 5.875 8.79008V10.2099C5.875 10.6927 6.20924 11.125 6.66307 11.125ZM6.92256 9.06394H21.0774V9.91321H6.92256V9.06394Z" fill="#029FC8" stroke="#029FC8" stroke-width="0.25"/>
<path id="Vector_3" d="M6.66307 15.125H21.3369C21.7908 15.125 22.125 14.6927 22.125 14.2099V12.7901C22.125 12.3073 21.7908 11.875 21.3369 11.875H6.66307C6.20924 11.875 5.875 12.3073 5.875 12.7901V14.2099C5.875 14.6927 6.20924 15.125 6.66307 15.125ZM6.92256 13.0639H21.0774V13.9131H6.92256V13.0639Z" fill="#029FC8" stroke="#029FC8" stroke-width="0.25"/>
<path id="Vector_4" d="M22.125 18.4733V17.5267C22.125 17.1423 21.7428 16.875 21.3369 16.875H6.66307C6.25723 16.875 5.875 17.1423 5.875 17.5267V18.4733C5.875 18.8577 6.25723 19.125 6.66307 19.125H21.3369C21.7428 19.125 22.125 18.8577 22.125 18.4733ZM21.0774 18.2414H6.92256V17.7586H21.0774V18.2414Z" fill="#029FC8" stroke="#029FC8" stroke-width="0.25"/>
</g>
</svg>
