<svg width="40" height="40" viewBox="0 0 40 40" fill="none" xmlns="http://www.w3.org/2000/svg">
<g id="Frame 20">
<g id="all_inbox">
<mask id="mask0_650_915" style="mask-type:alpha" maskUnits="userSpaceOnUse" x="0" y="0" width="40" height="40">
<rect id="Bounding box" width="40" height="40" fill="#D9D9D9"/>
</mask>
<g mask="url(#mask0_650_915)">
<path id="all_inbox_2" d="M14.1 24.9H30.3V20.85H26.8575C26.385 21.6825 25.7325 22.3406 24.9 22.8244C24.0675 23.3081 23.1675 23.55 22.2 23.55C21.255 23.55 20.3663 23.3081 19.5338 22.8244C18.7013 22.3406 18.0375 21.6825 17.5425 20.85H14.1V24.9ZM22.2 20.85C22.965 20.85 23.6063 20.5856 24.1238 20.0569C24.6413 19.5281 24.9 18.8925 24.9 18.15H30.3V8.7H14.1V18.15H19.5C19.5 18.8925 19.7644 19.5281 20.2931 20.0569C20.8219 20.5856 21.4575 20.85 22.2 20.85ZM14.1 27.6C13.3575 27.6 12.7219 27.3356 12.1931 26.8069C11.6644 26.2781 11.4 25.6425 11.4 24.9V8.7C11.4 7.9575 11.6644 7.32188 12.1931 6.79313C12.7219 6.26438 13.3575 6 14.1 6H30.3C31.0425 6 31.6781 6.26438 32.2069 6.79313C32.7356 7.32188 33 7.9575 33 8.7V24.9C33 25.6425 32.7356 26.2781 32.2069 26.8069C31.6781 27.3356 31.0425 27.6 30.3 27.6H14.1ZM8.7 33C7.9575 33 7.32188 32.7356 6.79313 32.2069C6.26438 31.6781 6 31.0425 6 30.3V11.4H8.7V30.3H27.6V33H8.7Z" fill="#029FC8"/>
</g>
</g>
</g>
</svg>
