<svg width="40" height="40" viewBox="0 0 40 40" fill="none" xmlns="http://www.w3.org/2000/svg">
<g id="Frame 22">
<g id="travel_explore">
<mask id="mask0_650_924" style="mask-type:alpha" maskUnits="userSpaceOnUse" x="0" y="0" width="40" height="40">
<rect id="Bounding box" width="40" height="40" fill="#D9D9D9"/>
</mask>
<g mask="url(#mask0_650_924)">
<path id="travel_explore_2" d="M21.122 36C19.0301 36 17.0642 35.6062 15.2244 34.8187C13.3846 34.0312 11.7841 32.9625 10.4232 31.6125C9.0622 30.2625 7.98476 28.675 7.19085 26.85C6.39695 25.025 6 23.075 6 21C6 18.925 6.39695 16.975 7.19085 15.15C7.98476 13.325 9.0622 11.7375 10.4232 10.3875C11.7841 9.0375 13.3846 7.96875 15.2244 7.18125C17.0642 6.39375 19.0301 6 21.122 6C24.8016 6 28.0213 7.14375 30.7811 9.43125C33.5409 11.7188 35.261 14.5875 35.9415 18.0375H32.8415C32.3626 16.2125 31.4994 14.5813 30.2518 13.1438C29.0043 11.7063 27.4732 10.625 25.6585 9.9V10.5C25.6585 11.325 25.3624 12.0312 24.7701 12.6187C24.1778 13.2062 23.4659 13.5 22.6341 13.5H19.6098V16.5C19.6098 16.925 19.4648 17.2812 19.175 17.5688C18.8852 17.8562 18.526 18 18.0976 18H15.0732V21H18.0976V25.5H16.5854L9.32683 18.3C9.25122 18.75 9.18191 19.2 9.1189 19.65C9.05589 20.1 9.02439 20.55 9.02439 21C9.02439 24.275 10.1837 27.0875 12.5024 29.4375C14.8211 31.7875 17.6943 32.975 21.122 33V36ZM34.8829 35.25L30.0439 30.45C29.5146 30.75 28.9476 31 28.3427 31.2C27.7378 31.4 27.0951 31.5 26.4146 31.5C24.5244 31.5 22.9177 30.8438 21.5945 29.5312C20.2713 28.2188 19.6098 26.625 19.6098 24.75C19.6098 22.875 20.2713 21.2812 21.5945 19.9688C22.9177 18.6562 24.5244 18 26.4146 18C28.3049 18 29.9116 18.6562 31.2348 19.9688C32.5579 21.2812 33.2195 22.875 33.2195 24.75C33.2195 25.425 33.1187 26.0625 32.9171 26.6625C32.7154 27.2625 32.4634 27.825 32.161 28.35L37 33.15L34.8829 35.25ZM26.4146 28.5C27.4732 28.5 28.3679 28.1375 29.0988 27.4125C29.8297 26.6875 30.1951 25.8 30.1951 24.75C30.1951 23.7 29.8297 22.8125 29.0988 22.0875C28.3679 21.3625 27.4732 21 26.4146 21C25.3561 21 24.4614 21.3625 23.7305 22.0875C22.9996 22.8125 22.6341 23.7 22.6341 24.75C22.6341 25.8 22.9996 26.6875 23.7305 27.4125C24.4614 28.1375 25.3561 28.5 26.4146 28.5Z" fill="#029FC8"/>
</g>
</g>
</g>
</svg>
